<svg xmlns="http://www.w3.org/2000/svg" viewBox="0 0 84 78.16"><defs><style>.cls-1{fill:#5d5454}.cls-2{fill:#fff}</style></defs><g id="Layer_2" data-name="Layer 2"><g id="Layer_1-2" data-name="Layer 1"><path class="cls-1" d="M34.47 0h15.06v13.56H34.47z"/><circle class="cls-2" cx="42" cy="4.91" r="1.4"/><path class="cls-1" d="M84 70.65v7.52H0v-7.52l42-5.6 42 5.6z"/><path fill="#857d7e" d="M77.87 57.39L84 70.65H0l6.13-13.26L42 51.79l35.87 5.6z"/><path class="cls-1" d="M46.17 66.15h-8.34a1.4 1.4 0 1 1 0-2.8h8.34a1.4 1.4 0 0 1 0 2.8z"/><path d="M72.75 9.83h-61.5a5.11 5.11 0 0 0-5.12 5.11v42.45h71.74V14.94a5.11 5.11 0 0 0-5.12-5.11z" fill="#f2d059"/><path d="M57.1 52a16 16 0 0 0-30.2 0z" fill="#faf0cc"/><path class="cls-2" d="M38.21 21.41h1.62v7.14h-1.62zm5.21-.06a13.57 13.57 0 0 0-2.18.15v7.05h1.6V26a4.22 4.22 0 0 0 .55 0 3.36 3.36 0 0 0 2.32-.75 2.32 2.32 0 0 0 .66-1.7 2.11 2.11 0 0 0-.77-1.66 3.41 3.41 0 0 0-2.18-.57zm-.05 3.44a2.44 2.44 0 0 1-.53-.05v-2.11a2.81 2.81 0 0 1 .67-.06c.8 0 1.25.4 1.25 1.05s-.52 1.17-1.39 1.17zm-1.66-8.33A8.71 8.71 0 0 0 33 25.17c0 4.81 8.71 12.48 8.71 12.48s8.71-7.65 8.71-12.48a8.71 8.71 0 0 0-8.71-8.71zm0 14a5.79 5.79 0 1 1 5.79-5.79 5.79 5.79 0 0 1-5.79 5.79z"/></g></g></svg>