<svg xmlns="http://www.w3.org/2000/svg" viewBox="0 0 84 84"><defs><style>.cls-1{fill:#e5906b}.cls-3{fill:#dbfafc}.cls-6{fill:#f8e8b5}.cls-8{fill:#f4d98c}.cls-9{fill:#f1cb9c}.cls-10{fill:#eaad82}.cls-12{fill:#bbf5f9}</style></defs><g id="Layer_2" data-name="Layer 2"><g id="Layer_1-2" data-name="Layer 1"><path class="cls-1" d="M42 0a42 42 0 0 0-10.94 82.56l51.5-51.5A42 42 0 0 0 42 0z"/><path d="M20.09 71.58l11 11a42 42 0 0 0 51.5-51.5L63.91 12.42l-5.37 4.12-4.12-4.12-5.27 4.23-4.23-4.23-4.81 4.68-4.68-4.68L30.54 17l-4.61-4.61-5.84 5.84 4.47 4.48-4.47 5 4.79 4.79z" fill="#e17452"/><path class="cls-3" d="M63.91 31.41v29.22l-7.3 3.65-3.65 7.3H42l-7.3-17.16L42 35.43l2.92 1.82h3.65v-5.84h15.34z"/><path fill="#fff" d="M42 35.43v36.15H20.09V37.25l2.92-1.82 2.92 1.82h3.65l2.92-1.82 2.93 1.82h3.65L42 35.43z"/><path fill="#9ee1ea" d="M52.96 60.63v10.95l10.95-10.95H52.96z"/><path class="cls-6" d="M20.09 12.42h5.84v5.84h-5.84zm9.49 0h5.84v5.84h-5.84zm18.99 0h5.84v5.84h-5.84z"/><path class="cls-3" d="M58.07 12.42h5.84v5.84h-5.84z"/><path fill="#edbc44" d="M44.92 12.42v5.84H42l-1.83-2.92L42 12.42h2.92z"/><path class="cls-8" d="M39.08 12.42H42v5.84h-2.92z"/><path class="cls-9" d="M20.09 21.91h5.84v5.84h-5.84z"/><path class="cls-3" d="M29.58 21.91h5.84v5.84h-5.84z"/><path class="cls-6" d="M48.57 21.91h5.84v5.84h-5.84z"/><path class="cls-10" d="M58.07 21.91h5.84v5.84h-5.84z"/><path class="cls-1" d="M44.92 21.91v5.85H42l-1.83-2.92L42 21.91h2.92z"/><path class="cls-10" d="M39.08 21.91H42v5.84h-2.92z"/><path fill="#84cfdb" d="M20.09 31.41h5.84v5.84h-5.84z"/><path class="cls-6" d="M29.58 31.41h5.84v5.84h-5.84z"/><path class="cls-1" d="M48.57 40.9h5.84v5.84h-5.84z"/><path class="cls-12" d="M44.92 31.41v5.84H42l-1.83-2.92L42 31.41h2.92z"/><path class="cls-3" d="M39.08 31.41H42v5.84h-2.92z"/><path class="cls-9" d="M29.58 40.9h5.84v5.84h-5.84z"/><path class="cls-12" d="M29.58 50.4h5.84v5.84h-5.84z"/><path class="cls-8" d="M44.92 40.9v5.85H42l-1.83-2.92L42 40.9h2.92z"/><path class="cls-6" d="M39.08 40.9H42v5.84h-2.92z"/></g></g></svg>