<svg xmlns="http://www.w3.org/2000/svg" viewBox="0 0 84 84"><defs><style>.cls-7{fill:#55696e}.cls-8{fill:#485959}</style></defs><g id="Layer_2" data-name="Layer 2"><g id="Layer_1-2" data-name="Layer 1"><path fill="#accefc" d="M2.46 12.47h79.08v54.14H2.46z"/><path fill="#8bbafc" d="M42 12.47h39.54v54.14H42z"/><path d="M44.46 32.16v17.22h-4.92V32.16a2.46 2.46 0 0 1 4.92 0z"/><path d="M66.61 54.3h-9.84a7.37 7.37 0 0 1-7.39-7.38 2.43 2.43 0 0 0-2.46-2.46h-9.84a2.43 2.43 0 0 0-2.46 2.46 7.37 7.37 0 0 1-7.39 7.38h-9.84a7.38 7.38 0 0 0-5.22 12.6h59.66a7.38 7.38 0 0 0-5.22-12.6z" fill="#f6e277"/><path d="M44.46 49.38H42V29.7a2.43 2.43 0 0 1 2.46 2.46z"/><path d="M71.83 66.9H42V44.46h4.92a2.43 2.43 0 0 1 2.46 2.46 7.37 7.37 0 0 0 7.39 7.38h9.84a7.38 7.38 0 0 1 5.22 12.6z" fill="#f2d231"/><path d="M64.15 81.54a1.29 1.29 0 0 1-.15.59H20a1.29 1.29 0 0 1-.15-.59 2.43 2.43 0 0 1 2.46-2.46 7.52 7.52 0 0 0 7.39-7.55v-4.92a2.43 2.43 0 0 1 2.46-2.46h19.68a2.43 2.43 0 0 1 2.46 2.46v4.92a7.52 7.52 0 0 0 7.39 7.55 2.43 2.43 0 0 1 2.46 2.46z" fill="#404a4a"/><path d="M64.15 81.54a1.29 1.29 0 0 1-.15.59H42v-18h9.84a2.43 2.43 0 0 1 2.46 2.46v4.92a7.52 7.52 0 0 0 7.39 7.55 2.43 2.43 0 0 1 2.46 2.48z" fill="#323c3c"/><path class="cls-7" d="M74 81.54A2.43 2.43 0 0 1 71.53 84H12.47a2.46 2.46 0 0 1 0-4.92h59.06A2.43 2.43 0 0 1 74 81.54z"/><path class="cls-8" d="M74 81.54A2.43 2.43 0 0 1 71.53 84H42v-4.92h29.53A2.43 2.43 0 0 1 74 81.54z"/><path class="cls-7" d="M81.54 10H2.46A2.43 2.43 0 0 0 0 12.47v54.14a2.43 2.43 0 0 0 2.46 2.46h79.08A2.43 2.43 0 0 0 84 66.61V12.47A2.43 2.43 0 0 0 81.54 10zm-2.46 54.15H4.92V14.93h74.16z"/><path class="cls-8" d="M84 12.47v54.14a2.43 2.43 0 0 1-2.46 2.46H42v-4.92h37.08V14.93H42V10h39.54A2.43 2.43 0 0 1 84 12.47z"/><path d="M54.3 18.57v1.28l-5.8 4.92H36l-6.3-4.92v-1.28A20.34 20.34 0 0 1 40.92.25a2.46 2.46 0 0 1 2.16 0A20.34 20.34 0 0 1 54.3 18.57z" fill="#e38394"/><path d="M63.43 40.26l-9.85-9.84a2.46 2.46 0 0 0-4.2 1.74v10.48l4.92 6.74h7.39a2.46 2.46 0 0 0 2.46-2.46V42a2.47 2.47 0 0 0-.72-1.74z" fill="#da1f3e"/><path d="M34.62 32.16a2.46 2.46 0 0 0-4.2-1.74l-9.85 9.84a2.47 2.47 0 0 0-.72 1.74v4.92a2.46 2.46 0 0 0 2.46 2.46h7.39l4.92-5.64zm13.88-7.39H42V0a2.63 2.63 0 0 1 1.08.25A20.34 20.34 0 0 1 54.3 18.57v1.28z" fill="#dd4a4a"/><path d="M29.7 19.85v29.53h24.6V19.85z" fill="#eae7e6"/><path fill="#dbd5d3" d="M42 19.85h12.3v29.53H42z"/></g></g></svg>