<svg xmlns="http://www.w3.org/2000/svg" viewBox="0 0 50.83 34.33"><defs><style>.cls-1{fill:#80bda9}.cls-2{fill:#979797}.cls-4{fill:#aad4c8}</style></defs><g id="Layer_2" data-name="Layer 2"><g id="Layer_1-2" data-name="Layer 1"><path class="cls-1" d="M4.51 8.87L4.36 9a.67.67 0 0 0 0 .93L6 11.65a.64.64 0 0 0 .73.15 14.31 14.31 0 0 1 11.64.06.64.64 0 0 0 .71-.12l1.77-1.68a.68.68 0 0 0 .2-.57.66.66 0 0 0-.36-.49 17.94 17.94 0 0 0-16.18-.13z"/><path class="cls-2" d="M.32 3.33l-.12.09a.65.65 0 0 0 0 .92l1.61 1.72a.64.64 0 0 0 .78.12 20.14 20.14 0 0 1 20.21.24.65.65 0 0 0 .78-.09L25.3 4.7a.64.64 0 0 0 .2-.54.66.66 0 0 0-.3-.49A23.87 23.87 0 0 0 .32 3.33z"/><path d="M6.42 27.94h31.06v1.6H6.42zm33.96 1.88h7.52v.57h-7.52z" fill="#fff"/><path class="cls-1" d="M40.38 26.29h3.8v1.99h-3.8z"/><path class="cls-4" d="M44.18 26.29h3.72v1.99h-3.72z"/><path class="cls-2" d="M4.55 23.16a1.68 1.68 0 0 0-1.67 1.68v7.81a1.68 1.68 0 0 0 1.67 1.68h44.6a1.68 1.68 0 0 0 1.68-1.68v-7.81a1.68 1.68 0 0 0-1.68-1.68H13.36v-4.53a2.78 2.78 0 1 0-1.63 0v4.53zm35.83 3.13h7.53v2h-7.53zm0 3.53h7.53v.57h-7.53zM11.1 16a1.48 1.48 0 1 1 1.48 1.47A1.47 1.47 0 0 1 11.1 16zm26.39 12v1.61H6.42v-1.67z"/><path class="cls-4" d="M11.1 16a1.48 1.48 0 1 0 1.48-1.47A1.47 1.47 0 0 0 11.1 16z"/></g></g></svg>