<svg xmlns="http://www.w3.org/2000/svg" viewBox="0 0 53.82 54"><g data-name="Layer 2"><path d="M.06 42.77L0 18.23a1.68 1.68 0 0 1 2.34-1.55l22.34 9.55a1.67 1.67 0 0 1 1 1.54l.06 24.54a1.68 1.68 0 0 1-2.34 1.55L1.08 44.31a1.67 1.67 0 0 1-1-1.54zm51.19-23.39l-20.62 8.93.05 22.69 20.62-8.9V19.38m.83-3a1.69 1.69 0 0 1 1.69 1.68V42.6a1.66 1.66 0 0 1-1 1.55l-22.3 9.66a1.74 1.74 0 0 1-.66.14 1.68 1.68 0 0 1-1.68-1.68l-.06-24.54a1.67 1.67 0 0 1 1-1.55l22.3-9.66a1.74 1.74 0 0 1 .66-.14zM26.75 2.6L5.36 12.15l21.43 9.45 21.39-9.55L26.75 2.6m0-2.6a1.76 1.76 0 0 1 .68.14l23.5 10.37a1.68 1.68 0 0 1 0 3.07L27.48 24.05a1.64 1.64 0 0 1-.68.15 1.6 1.6 0 0 1-.68-.15L2.61 13.69a1.68 1.68 0 0 1 0-3.07L26.06.15a1.64 1.64 0 0 1 .68-.15z" fill="#b3b3b3" data-name="Layer 1"/></g></svg>