<svg xmlns="http://www.w3.org/2000/svg" viewBox="0 0 56.73 71.68"><defs><style>.cls-1{fill:#69ae8f}</style></defs><g id="Layer_2" data-name="Layer 2"><g id="Layer_1-2" data-name="Layer 1"><path class="cls-1" d="M13.86 23.18V2.9a2.91 2.91 0 0 0-5.81 0v20.28a11 11 0 0 0 0 21.12v24.48a2.91 2.91 0 0 0 5.81 0V44.3a11 11 0 0 0 0-21.12zm0 14.82a5.14 5.14 0 0 1-5.81 0A5.17 5.17 0 0 1 11 28.58 5.15 5.15 0 0 1 13.86 38z"/><path class="cls-1" d="M39.32 14.38a11 11 0 0 0-8-10.56V2.9a2.91 2.91 0 0 0-5.81 0v.92a11 11 0 0 0 0 21.12v43.83a2.91 2.91 0 1 0 5.81 0V24.94a11 11 0 0 0 8.05-10.56zm-8.06 4.26a5.12 5.12 0 0 1-5.8 0 5.16 5.16 0 1 1 5.8 0z"/><path class="cls-1" d="M48.67 41.21V2.9a2.9 2.9 0 1 0-5.8 0v38.31a10.95 10.95 0 0 0 0 21.12v6.45a2.9 2.9 0 0 0 5.8 0v-6.45a10.95 10.95 0 0 0 0-21.12zm0 14.82a5.14 5.14 0 1 1 2.26-4.26A5.11 5.11 0 0 1 48.67 56z"/></g></g></svg>