<svg xmlns="http://www.w3.org/2000/svg" viewBox="0 0 20.29 20.28"><g data-name="Layer 2"><path d="M19.6 15.77l-4.3-4.3a.34.34 0 0 0-.48 0l-1 1-1.19-1.2L13.9 10a5.1 5.1 0 0 0 4.7-1.36 5.09 5.09 0 0 0 1.19-5.28.35.35 0 0 0-.24-.22.37.37 0 0 0-.32.09l-2.39 2.4L15.05 5l-.6-1.79 2.4-2.4a.34.34 0 0 0 0-.48.33.33 0 0 0-.13-.03 5.06 5.06 0 0 0-6.64 5.88L8.85 7.41l-4.3-4.3-.14-1.46a.35.35 0 0 0-.2-.28L1.59.18a.34.34 0 0 0-.38.07l-.95 1a.34.34 0 0 0-.07.38l1.19 2.58a.34.34 0 0 0 .28.19l1.45.14 4.31 4.3-6.73 6.73a2.37 2.37 0 0 0 0 3.34l.48.48a2.37 2.37 0 0 0 3.34 0l6.73-6.73 1.19 1.2-.95 1a.33.33 0 0 0 0 .47l4.3 4.3a2.37 2.37 0 0 0 3.34 0l.48-.48a2.37 2.37 0 0 0 0-3.34z" fill="#fff" data-name="Layer 1"/></g></svg>