<svg xmlns="http://www.w3.org/2000/svg" viewBox="0 0 47.46 47.46"><defs><style>.cls-1{fill:#69ae8f}</style></defs><g id="Layer_2" data-name="Layer 2"><g id="Layer_1-2" data-name="Layer 1"><path class="cls-1" d="M28.07 0A11.94 11.94 0 1 0 40 11.94 11.94 11.94 0 0 0 28.07 0zm.34 2.88h-.34zM28.07 21h.34-.34zm8.17-5.14a4 4 0 0 1-.23.39 4 4 0 0 0 .23-.39l-.09-.07-.56-.32a.69.69 0 0 0-1 .25.7.7 0 0 0 .25.95l.56.32.1.05a8.35 8.35 0 0 1-1.15 1.37 7.42 7.42 0 0 1-1 .88 9.12 9.12 0 0 1-1.54.9 9 9 0 0 1-3.06.78.41.41 0 0 0 0-.11v-.65a.7.7 0 0 0-1.39 0v.65a.41.41 0 0 0 0 .11 8.65 8.65 0 0 1-1.76-.31s0-.07.05-.1l.22-.61a.7.7 0 0 0-1.31-.48l-.22.61v.11c.21.1.43.16.64.24-.21-.08-.43-.14-.64-.24a9.11 9.11 0 0 1-3.75-3.15 8.67 8.67 0 0 1-.69-1.18 8.62 8.62 0 0 1-.61-1.68h.11l.64-.11a.69.69 0 0 0 .56-.81.69.69 0 0 0-.8-.56l-.64.11h-.11a8.7 8.7 0 0 1 0-.89 8.9 8.9 0 0 1 0-.9h.11l.64.11h.12a.69.69 0 0 0 .68-.57.69.69 0 0 0-.6-.75l-.64-.11h-.11a8.62 8.62 0 0 1 .64-1.7 8.78 8.78 0 0 1 .69-1.19 9.38 9.38 0 0 1 1.15-1.37l.06.09.42.5a.68.68 0 0 0 1 .08.7.7 0 0 0 .08-1l-.41-.49-.08-.08c-.19.13-.35.29-.53.44.18-.15.34-.31.53-.44a8.83 8.83 0 0 1 1.55-.9c.21-.09.43-.16.64-.23-.21.07-.43.14-.64.23v.11l.22.61a.7.7 0 0 0 .65.46 1 1 0 0 0 .24 0 .71.71 0 0 0 .42-.9l-.22-.61s0-.07-.05-.1a9.4 9.4 0 0 1 1.76-.31.45.45 0 0 0 0 .11v.65a.7.7 0 1 0 1.39 0V3a.45.45 0 0 0 0-.11 9.36 9.36 0 0 1 1.77.31 10 10 0 0 1 1.29.47 9.12 9.12 0 0 1 1.54.9c.13.09.23.2.35.29-.12-.09-.22-.2-.35-.29l-.07.08-.42.49a.69.69 0 0 0 .09 1 .67.67 0 0 0 .44.17.69.69 0 0 0 .52-.31l.42-.5a.24.24 0 0 0 .06-.09 8.79 8.79 0 0 1 1.15 1.37h-.1l-.56.32a.7.7 0 0 0 .35 1.3.73.73 0 0 0 .35-.09l.56-.33.09.02a8.65 8.65 0 0 1 .62 1.68 8.89 8.89 0 0 1 .15.9 8.89 8.89 0 0 0-.15-.9h-.12l-.64.11a.7.7 0 0 0-.56.81.69.69 0 0 0 .68.57h.13l.63-.11h.11a8.88 8.88 0 0 1 0 .9 8.69 8.69 0 0 1 0 .89h-.11l-.63-.11a.7.7 0 1 0-.25 1.37l.64.11h.12a8.89 8.89 0 0 0 .15-.9 8.89 8.89 0 0 1-.15.9 9 9 0 0 1-.62 1.65z"/><path class="cls-1" d="M29 7.7v-.32a.7.7 0 1 0-1.39 0v.22h-.42v-.22a.7.7 0 1 0-1.39 0v.22h-.24a.7.7 0 1 0 0 1.39h.24v5.89h-.24a.7.7 0 1 0 0 1.39h.24v.23a.7.7 0 0 0 1.39 0v-.23h.42v.23a.7.7 0 0 0 1.39 0v-.33a2.5 2.5 0 0 0 1.81-2.41 2.48 2.48 0 0 0-.81-1.82 2.52 2.52 0 0 0 .78-1.82A2.5 2.5 0 0 0 29 7.7zm.42 6.06a1.12 1.12 0 0 1-1.12 1.12h-1.16v-2.25h1.11a1.12 1.12 0 0 1 1.12 1.12zm0-3.64a1.12 1.12 0 0 1-1.12 1.12h-1.16V9h1.11a1.12 1.12 0 0 1 1.12 1.12zm2.13 9.36a.69.69 0 1 0-1.3.48l.22.61.05.1a8.67 8.67 0 0 0 1.29-.47v-.11zm2.37-1.64a.68.68 0 0 0-1-.09.69.69 0 0 0-.09 1l.42.5.07.07a7.42 7.42 0 0 0 1-.88.24.24 0 0 0-.06-.09zM21.24 7.19l-.56-.32h-.1A8.78 8.78 0 0 0 19.89 8l.09.06.57.33a.67.67 0 0 0 .34.09.7.7 0 0 0 .35-1.3zm-.69 8.29l-.55.32-.09.06a8.67 8.67 0 0 0 .69 1.18l.1-.05.56-.32a.69.69 0 0 0 .25-.95.68.68 0 0 0-.96-.24zm2.31 3.75l.41-.5a.7.7 0 0 0-.08-1 .69.69 0 0 0-1 .09l-.42.49-.06.09a8.74 8.74 0 0 0 1.05.88zM30.47 3.3l-.22.61a.71.71 0 0 0 .41.9 1 1 0 0 0 .24 0 .7.7 0 0 0 .65-.46l.23-.61v-.11a10 10 0 0 0-1.29-.47zm5.05 20.29a11.94 11.94 0 1 0 11.94 11.93 11.93 11.93 0 0 0-11.94-11.93zm8.18 15.86l-.1-.06-.6-.33a.7.7 0 0 0-.95.26.7.7 0 0 0 .26 1l.56.32h.1A9.38 9.38 0 0 1 41.86 42a9.79 9.79 0 0 1-1 .88 8.83 8.83 0 0 1-1.55.9v-.11l-.31-.6a.7.7 0 0 0-1.31.47l.22.61v.11a9.4 9.4 0 0 1-1.76.31h-.69.69v-.76a.7.7 0 1 0-1.39 0v.64a.49.49 0 0 0 0 .12 9.36 9.36 0 0 1-1.77-.31.54.54 0 0 0 0-.11l.22-.61a.69.69 0 1 0-1.3-.47l-.23.61v.11a9.12 9.12 0 0 1-1.54-.9l.07-.08.42-.5a.68.68 0 0 0-.09-1 .7.7 0 0 0-1 .08l-.41.5-.07.09c.17.16.36.29.53.44-.17-.15-.36-.28-.53-.44A10.05 10.05 0 0 1 28 40.64h.1l.57-.32a.7.7 0 0 0 .25-1 .69.69 0 0 0-.95-.26l-.56.33-.09.06a8.89 8.89 0 0 1-.62-1.68 10 10 0 0 1-.24-1.35v-.9a8.7 8.7 0 0 1 0-.89 9.49 9.49 0 0 1 .24-1.35 9 9 0 0 1 .62-1.69.22.22 0 0 0 .09.07L28 32a.73.73 0 0 0 .35.09.69.69 0 0 0 .35-1.29l-.57-.33h-.1A8.49 8.49 0 0 1 29.19 29a.24.24 0 0 0 .06.09l.41.49a.69.69 0 0 0 .54.25.69.69 0 0 0 .53-1.14l-.42-.5-.07-.08a9.79 9.79 0 0 1 1.54-.89c.21-.1.43-.16.65-.24-.22.08-.44.14-.65.24v.11L32 28a.68.68 0 0 0 .65.45.67.67 0 0 0 .24 0 .69.69 0 0 0 .41-.89l-.22-.61a.31.31 0 0 0 0-.1 8.63 8.63 0 0 1 1.77-.31h.34-.34a.37.37 0 0 0 0 .11v.65a.7.7 0 0 0 1.39 0v-.76h-.69.69a8.65 8.65 0 0 1 1.76.31v.1l-.22.61a.7.7 0 0 0 .42.89.66.66 0 0 0 .23 0A.69.69 0 0 0 39 28l.22-.61v-.11a9.45 9.45 0 0 1 1.55.89l-.08.08-.42.5a.71.71 0 0 0 .09 1 .7.7 0 0 0 1-.09l.42-.49.06-.09A9 9 0 0 1 43 30.41h-.1l-.56.33a.7.7 0 0 0-.26.95.71.71 0 0 0 .61.34A.72.72 0 0 0 43 32l.56-.32.1-.07a9.71 9.71 0 0 1 .61 1.69c0 .14 0 .3.08.45 0-.15 0-.31-.08-.45h-.07l-.64.11a.7.7 0 0 0 .12 1.38h.12l.64-.11h.11a8.7 8.7 0 0 1 0 .89v.9h-.11l-.64-.11a.69.69 0 0 0-.24 1.36l.64.12h.11c0-.15 0-.3.08-.45 0 .15 0 .3-.08.45a9.61 9.61 0 0 1-.61 1.61z"/><path class="cls-1" d="M41.8 41.92l-.42-.5a.7.7 0 0 0-1.07.89l.42.5.08.08a9.79 9.79 0 0 0 1-.88zM27.48 33.4l-.63-.11h-.12a9.49 9.49 0 0 0-.24 1.35h.11l.64.11h.12a.69.69 0 0 0 .12-1.38zm-.24 2.88l-.64.11h-.11a10 10 0 0 0 .24 1.35h.12l.63-.12a.69.69 0 0 0 .57-.8.69.69 0 0 0-.81-.54zm11.09 1.83h-3V36l.85-.21a.69.69 0 1 0-.33-1.35l-.52.12v-2.9a.7.7 0 1 0-1.39 0v3.28c-.62.16-.85.23-.87.24a.68.68 0 0 0-.47.86.71.71 0 0 0 .67.5.63.63 0 0 0 .19 0l.48-.13v2.39a.7.7 0 0 0 .7.7h3.68a.7.7 0 0 0 0-1.39zM11.94 18.28a11.94 11.94 0 1 0 11.93 11.94 11.94 11.94 0 0 0-11.93-11.94zm0 2.87zm-.35 18.13zm9.25-7.49c0-.23.1-.45.12-.68h-.11l-.63-.11a.7.7 0 0 0-.22 1.34l.64.11h.12a9 9 0 0 1-.62 1.69l-.14-.06-.56-.32a.69.69 0 1 0-.7 1.2l.56.33h.1a8 8 0 0 1-1.15 1.37l-.06-.09-.42-.49a.69.69 0 1 0-1.06.89l.42.5.07.08a9.79 9.79 0 0 1-1.54.89.76.76 0 0 0 0-.11l-.22-.6a.69.69 0 1 0-1.3.47l.22.61a.31.31 0 0 0 .05.1c.22-.06.43-.15.64-.23-.21.08-.42.17-.64.23a8.63 8.63 0 0 1-1.77.31h-.34.34a.37.37 0 0 0 0-.11v-.61a.7.7 0 0 0-1.39 0v.65a.37.37 0 0 0 0 .11A8.41 8.41 0 0 1 9.49 39c-.15 0-.29-.1-.43-.15.14.05.28.11.43.15a1 1 0 0 0 0-.1l.23-.61a.7.7 0 0 0-.42-.89.69.69 0 0 0-.89.42l-.22.6a.61.61 0 0 0 0 .11 9.45 9.45 0 0 1-1.55-.89 9.88 9.88 0 0 1-1.04-.94 8.43 8.43 0 0 1-1.15-1.37c-.13-.18-.23-.39-.35-.59.12.2.22.41.35.59h.1l.56-.33a.69.69 0 0 0 .25-1 .7.7 0 0 0-1-.25l-.56.32-.09.07a9 9 0 0 1-.61-1.69 7.32 7.32 0 0 1-.24-1.35 8.7 8.7 0 0 1 0-.89v-.9A7.63 7.63 0 0 1 3.15 28a8.86 8.86 0 0 1 .61-1.68l.09.06.56.33a.73.73 0 0 0 .35.09.67.67 0 0 0 .6-.35.69.69 0 0 0-.25-1l-.56-.32h-.1c-.13.19-.23.4-.35.6.12-.2.22-.41.35-.6a9.38 9.38 0 0 1 1.15-1.4l.06.09.42.5a.68.68 0 0 0 1 .08.7.7 0 0 0 .08-1l-.41-.49-.08-.08A8.83 8.83 0 0 1 8.2 22a.35.35 0 0 0 0 .11l.22.61a.7.7 0 0 0 .65.46.67.67 0 0 0 .24 0 .7.7 0 0 0 .42-.89l-.23-.61v-.11c0-.04-.29.11-.43.16.14-.05.28-.12.43-.16a9.12 9.12 0 0 1 1.76-.31.49.49 0 0 0 0 .12v.64a.7.7 0 1 0 1.39 0v-.64a.49.49 0 0 0 0-.12 9.36 9.36 0 0 1 1.77.31c.22.06.43.16.64.24-.21-.08-.42-.18-.64-.24a.54.54 0 0 0-.05.11l-.22.61a.69.69 0 0 0 .41.89.67.67 0 0 0 .24 0 .7.7 0 0 0 .65-.46l.22-.61a.36.36 0 0 0 0-.11 9.12 9.12 0 0 1 1.54.9.27.27 0 0 0-.07.08l-.42.49a.7.7 0 1 0 1.06.9l.42-.5.06-.09a8.79 8.79 0 0 1 1.15 1.37h-.1l-.56.32a.7.7 0 0 0-.25 1 .68.68 0 0 0 .6.35.73.73 0 0 0 .35-.09l.56-.33.09-.06a8.89 8.89 0 0 1 .63 1.66h-.12l-.64.11a.7.7 0 0 0-.56.81.69.69 0 0 0 .68.57h.13l.63-.11a.35.35 0 0 0 .11 0c0-.23-.08-.45-.12-.67 0 .22.1.44.12.67s.05.6.05.9a8.69 8.69 0 0 1-.05.89c-.02.17-.08.39-.12.62z"/><path class="cls-1" d="M3 29.35l.64.11h.12a.69.69 0 0 0 .68-.57.69.69 0 0 0-.56-.81L3.26 28h-.11a7.63 7.63 0 0 0-.24 1.35.35.35 0 0 0 .09 0zm.9 2.99A.7.7 0 0 0 3.66 31l-.66.08h-.11a7.32 7.32 0 0 0 .24 1.35h.11zm2.83 5.17l.41-.5a.7.7 0 0 0-.08-1 .69.69 0 0 0-1 .09l-.42.49-.06.09a9.88 9.88 0 0 0 1.05.89zm5.39-12.19a.22.22 0 0 0-.37 0l-2.86 4.56a.22.22 0 0 0 .24.33l2.75-.68a.21.21 0 0 1 .11 0l2.75.68a.22.22 0 0 0 .24-.33z"/><path class="cls-1" d="M12 30.07a.25.25 0 0 0-.17 0l-2.43 1.1a.21.21 0 0 0-.07.33l2.45 2.75a.2.2 0 0 0 .31 0l2.45-2.75a.2.2 0 0 0-.07-.33z"/></g></g></svg>