<svg xmlns="http://www.w3.org/2000/svg" viewBox="0 0 40.35 34.87"><g data-name="Layer 2"><path d="M7.07 8.1v-8h.83a.36.36 0 0 1 .38.29l.1.82a4.14 4.14 0 0 1 1-.89A2.32 2.32 0 0 1 10.64 0 1.94 1.94 0 0 1 12 .46a2.52 2.52 0 0 1 .71 1.21 2.59 2.59 0 0 1 .39-.74 2.31 2.31 0 0 1 .61-.52 2.29 2.29 0 0 1 .72-.3A3.31 3.31 0 0 1 15.2 0a2.83 2.83 0 0 1 1.12.2 2.12 2.12 0 0 1 .83.58 2.56 2.56 0 0 1 .52 1A3.87 3.87 0 0 1 17.86 3v5.1h-1.4V3a2.18 2.18 0 0 0-.41-1.42 1.47 1.47 0 0 0-1.19-.48 1.75 1.75 0 0 0-.65.12 1.54 1.54 0 0 0-.55.36 1.61 1.61 0 0 0-.37.59 2.37 2.37 0 0 0-.14.83v5.1h-1.4V3a2.28 2.28 0 0 0-.38-1.43 1.39 1.39 0 0 0-1.13-.47 1.76 1.76 0 0 0-1 .28 3.38 3.38 0 0 0-.81.76V8.1zm18.74 0h-.62a.81.81 0 0 1-.33-.1.37.37 0 0 1-.16-.27L24.54 7c-.21.19-.41.36-.61.51a3.35 3.35 0 0 1-.63.37 3.4 3.4 0 0 1-.7.24 4.28 4.28 0 0 1-.83.07 2.73 2.73 0 0 1-.87-.13 1.79 1.79 0 0 1-.7-.39 1.87 1.87 0 0 1-.48-.65 2.3 2.3 0 0 1-.18-1 1.8 1.8 0 0 1 .26-.91 2.34 2.34 0 0 1 .84-.77 5.44 5.44 0 0 1 1.51-.56 10.64 10.64 0 0 1 2.29-.22V3A2.14 2.14 0 0 0 24 1.61a1.42 1.42 0 0 0-1.17-.48 2.4 2.4 0 0 0-.86.13 3.16 3.16 0 0 0-.61.29l-.36.29a.59.59 0 0 1-.4.16.41.41 0 0 1-.25-.07.52.52 0 0 1-.17-.19l-.25-.45a4.6 4.6 0 0 1 1.42-.98A4.39 4.39 0 0 1 23 0a3 3 0 0 1 1.19.22 2.58 2.58 0 0 1 .87.61 2.66 2.66 0 0 1 .53 1A4 4 0 0 1 25.81 3zm-3.63-.86a2.9 2.9 0 0 0 .68-.07 2.86 2.86 0 0 0 .58-.17 4.21 4.21 0 0 0 .56-.38 5 5 0 0 0 .48-.45V4.53a9.49 9.49 0 0 0-1.64.12A5.06 5.06 0 0 0 21.7 5a1.58 1.58 0 0 0-.62.47 1 1 0 0 0-.19.6 1.35 1.35 0 0 0 .1.55 1.14 1.14 0 0 0 .27.37 1.07 1.07 0 0 0 .41.21 1.7 1.7 0 0 0 .51.04zm11.18-5.68a.77.77 0 0 1-.12.13.36.36 0 0 1-.19.05.5.5 0 0 1-.25-.1 3.12 3.12 0 0 0-.35-.22 2.45 2.45 0 0 0-.51-.21 2.35 2.35 0 0 0-.75-.1 2.43 2.43 0 0 0-1 .21 2 2 0 0 0-.75.6 2.7 2.7 0 0 0-.45 1 4.8 4.8 0 0 0-.16 1.25A4.51 4.51 0 0 0 29 5.4a2.75 2.75 0 0 0 .46.94 1.87 1.87 0 0 0 .73.58 2.17 2.17 0 0 0 1 .2A2.49 2.49 0 0 0 32 7a2.35 2.35 0 0 0 .55-.27 3.35 3.35 0 0 0 .36-.27.46.46 0 0 1 .29-.12.27.27 0 0 1 .26.13l.4.51a3 3 0 0 1-1.3.93 4.54 4.54 0 0 1-1.64.3 3.39 3.39 0 0 1-1.39-.28 3.32 3.32 0 0 1-1.11-.79 3.86 3.86 0 0 1-.74-1.29 5.15 5.15 0 0 1-.27-1.73 5.14 5.14 0 0 1 .25-1.65 3.66 3.66 0 0 1 .72-1.3 3.37 3.37 0 0 1 1.13-.85 4 4 0 0 1 1.6-.3 3.79 3.79 0 0 1 1.48.27 3.5 3.5 0 0 1 1.14.76zM22.89 23a13.24 13.24 0 0 1-.83 4.79 10.91 10.91 0 0 1-2.33 3.75A10.35 10.35 0 0 1 16.11 34a12.18 12.18 0 0 1-4.67.87A12.14 12.14 0 0 1 6.77 34a10.41 10.41 0 0 1-3.61-2.43A10.91 10.91 0 0 1 .83 27.8 13.46 13.46 0 0 1 0 23a13.42 13.42 0 0 1 .83-4.79 11 11 0 0 1 2.33-3.76A10.46 10.46 0 0 1 6.77 12a12 12 0 0 1 4.67-.88 12 12 0 0 1 4.67.88 10.4 10.4 0 0 1 3.62 2.45 11 11 0 0 1 2.33 3.76 13.2 13.2 0 0 1 .83 4.79zm-3.22 0a11.73 11.73 0 0 0-.59-3.84 8.06 8.06 0 0 0-1.65-2.88 7.19 7.19 0 0 0-2.59-1.8 8.84 8.84 0 0 0-3.4-.64 8.82 8.82 0 0 0-3.39.64 7.32 7.32 0 0 0-2.6 1.8 8.07 8.07 0 0 0-1.66 2.88A11.74 11.74 0 0 0 3.21 23a11.72 11.72 0 0 0 .58 3.83 8.12 8.12 0 0 0 1.66 2.87 7.17 7.17 0 0 0 2.6 1.79 8.82 8.82 0 0 0 3.39.63 8.84 8.84 0 0 0 3.4-.63 7 7 0 0 0 2.59-1.79 8.1 8.1 0 0 0 1.65-2.87 11.71 11.71 0 0 0 .59-3.83zm19.4-8a1.27 1.27 0 0 1-.3.37.7.7 0 0 1-.42.12 1.07 1.07 0 0 1-.64-.28c-.25-.18-.55-.38-.93-.61a7.34 7.34 0 0 0-1.34-.6 5.66 5.66 0 0 0-1.91-.28 5.87 5.87 0 0 0-1.86.28 4 4 0 0 0-1.35.77 3.2 3.2 0 0 0-.82 1.15 3.65 3.65 0 0 0-.27 1.41A2.63 2.63 0 0 0 29.7 19a4.14 4.14 0 0 0 1.3 1.06 10.13 10.13 0 0 0 1.78.79l2 .68q1.05.36 2 .81a6.89 6.89 0 0 1 1.78 1.12 5.14 5.14 0 0 1 1.27 1.67 5.54 5.54 0 0 1 .47 2.43 7.93 7.93 0 0 1-.51 2.86 6.5 6.5 0 0 1-1.52 2.32 7.1 7.1 0 0 1-2.44 1.56 9 9 0 0 1-3.3.57 10.19 10.19 0 0 1-4.11-.82 9.71 9.71 0 0 1-3.17-2.21l.91-1.49a1.14 1.14 0 0 1 .32-.3.73.73 0 0 1 .41-.12 1.29 1.29 0 0 1 .78.36 12.5 12.5 0 0 0 1.09.8 8.41 8.41 0 0 0 1.59.8 6.12 6.12 0 0 0 2.28.37 5.9 5.9 0 0 0 2-.31 4 4 0 0 0 1.48-.87 3.56 3.56 0 0 0 .93-1.33 4.42 4.42 0 0 0 .37-1.75 2.89 2.89 0 0 0-.48-1.72 4.06 4.06 0 0 0-1.26-1.13 9 9 0 0 0-1.77-.77l-2-.64c-.7-.23-1.38-.48-2-.77a6.69 6.69 0 0 1-1.9-1.13 5.11 5.11 0 0 1-1.25-1.74 6.19 6.19 0 0 1-.48-2.58 6.18 6.18 0 0 1 .48-2.39 6.35 6.35 0 0 1 1.38-2 6.66 6.66 0 0 1 2.25-1.42 8.13 8.13 0 0 1 3.07-.54 9.82 9.82 0 0 1 3.54.62 8.15 8.15 0 0 1 2.81 1.78z" fill="#979797" data-name="Layer 1"/></g></svg>