<svg xmlns="http://www.w3.org/2000/svg" viewBox="0 0 37.19 37.33"><defs><linearGradient id="a" x1="18.5" y1="11.97" x2="18.5" y2="25.28" gradientUnits="userSpaceOnUse"><stop offset="0" stop-color="#96bae3"/><stop offset="1" stop-color="#3f6cae"/></linearGradient></defs><g data-name="Layer 2"><g data-name="Layer 1"><path d="M18.55 0a19 19 0 0 1 16.77 10.53H17.61s-3.34-.11-6.19 4a8.26 8.26 0 0 0-.71 6.9C9.28 19 3.14 8.28 3.14 8.28S7.47.44 18.55 0z" fill="#c4332d"/><path d="M34.75 28a19.05 19.05 0 0 1-17.5 9.26l8.85-15.35s1.77-2.84-.32-7.34a8.28 8.28 0 0 0-5.62-4.07h15.13s4.62 7.67-.54 17.5z" fill="#f2d733"/><path d="M2.42 28.05a19 19 0 0 1 .73-19.79L12 23.6s1.58 2.95 6.52 3.39a8.29 8.29 0 0 0 6.34-2.83c-1.38 2.44-7.57 13.1-7.57 13.1s-8.95.16-14.87-9.21z" fill="#80b254"/><path d="M17.25 37.33l2.49-10.39a8.36 8.36 0 0 0 5-2.73c-1.39 2.5-7.49 13.12-7.49 13.12z" fill="#7ba850"/><path d="M10.21 18.78a8.3 8.3 0 1 1 8.29 8.3 8.29 8.29 0 0 1-8.29-8.3z" fill="#fff"/><path d="M11.59 18.78a6.91 6.91 0 1 1 6.91 6.91 6.92 6.92 0 0 1-6.91-6.91z" fill="url(#a)"/><path d="M35.29 10.5L25 13.51a8.35 8.35 0 0 0-4.87-3z" fill="#e5cc30"/><path d="M10.51 21C9.07 18.51 3.14 8.28 3.14 8.28l7.6 7.52a7.42 7.42 0 0 0-.48 3.9z" fill="#ba332c"/></g></g></svg>