<svg xmlns="http://www.w3.org/2000/svg" viewBox="0 0 70.23 40.4"><defs><style>.cls-1{fill:#69ae8f}</style></defs><g id="Layer_2" data-name="Layer 2"><g id="Layer_1-2" data-name="Layer 1"><path class="cls-1" d="M48.47 40.39l-13.12-7.77-13.12 7.78 3.33-14.88-11.45-10.07 15.18-1.43 6.04-14 6.05 14 15.19 1.41-11.45 10.08 3.35 14.88z"/><path class="cls-1" d="M52.88 3.7l-3.43 7.97 7.17.67-3.74-8.64zm-35.55 0l-3.75 8.71.3-.03 6.92-.65-3.47-8.03zM9.5 15.41L0 16.3l9.36 8.23-2.73 12.15 10.71-6.35 3.58 2.12 1.31-5.85-10.09-8.87-2.64-2.32zm51.71.04l-2.57 2.26-10.08 8.88 1.25 5.57 3.09-1.83 10.72 6.34-2.74-12.15 9.35-8.23-9.02-.84z"/><path class="cls-1" d="M35.38.64L41.2 14.1l.06.14h.15L56 15.61 45 25.3l-.11.1v.15l3.22 14.3-12.58-7.47-.13-.07-.13.07-12.61 7.48 3.21-14.3v-.15l-.12-.1-11-9.68 14.6-1.37h.15l.06-.14L35.38.64m0-.64l-6 14-15.22 1.43L25.62 25.5l-3.34 14.89L35.4 32.6l13.12 7.77-3.35-14.88 11.45-10.08L41.43 14l-6-14z"/></g></g></svg>