<svg xmlns="http://www.w3.org/2000/svg" xmlns:xlink="http://www.w3.org/1999/xlink" viewBox="0 0 96.29 91.58"><defs><linearGradient id="a" x1="18.99" y1="53.17" x2="49.3" y2=".67" gradientUnits="userSpaceOnUse"><stop offset="0" stop-color="#2c4264"/><stop offset=".11" stop-color="#35546d"/><stop offset=".72" stop-color="#68b59b"/><stop offset="1" stop-color="#7cdbae"/></linearGradient><linearGradient id="b" x1="39.13" y1="103.55" x2="83.12" y2="27.37" xlink:href="#a"/></defs><g data-name="Layer 2"><g data-name="Layer 1"><path d="M61.93 29.88L48.14 0 33.86 31 0 35l20.81 19.22C32.75 50.71 47.5 43.7 61.93 29.88z" fill="url(#a)"/><path d="M96.29 35L72 32.09C64.6 46.77 49.9 65.8 20.59 80.52l-2.2 11.06 29.75-16.66L77.9 91.58l-6.65-33.45z" fill="url(#b)"/><path d="M64.84 31.25C50.43 45.32 35.61 52.72 23.36 56.58L25 58.13l-3.66 18.58c23.63-12.38 36.8-27.42 44-38.94 1.3-2.08 2.44-4.1 3.44-6.06z" fill="#666"/></g></g></svg>