<svg xmlns="http://www.w3.org/2000/svg" viewBox="0 0 18.04 21.28"><defs><style>.cls-1{fill:#fff}</style></defs><g id="Layer_2" data-name="Layer 2"><g id="Layer_1-2" data-name="Layer 1"><path class="cls-1" d="M17.35 2.78A13.38 13.38 0 0 1 9.41.12a.68.68 0 0 0-.77 0 13.41 13.41 0 0 1-8 2.66.69.69 0 0 0-.64.69v7.29a10.63 10.63 0 0 0 8.91 10.51h.23A10.62 10.62 0 0 0 18 10.76V3.47a.69.69 0 0 0-.65-.69zM9 16.66a6.25 6.25 0 1 1 6.25-6.25A6.26 6.26 0 0 1 9 16.66z"/><path class="cls-1" d="M9 5.55a4.87 4.87 0 0 0-4.86 4.86 4.8 4.8 0 0 0 1 3 6.09 6.09 0 0 1 2.36-1.19 2.55 2.55 0 1 1 3 0 6.18 6.18 0 0 1 2.33 1.14A4.85 4.85 0 0 0 9 5.55z"/></g></g></svg>