<svg xmlns="http://www.w3.org/2000/svg" viewBox="0 0 32.31 30.37"><defs><style>.cls-1{fill:#69ae8f}</style></defs><g id="Layer_2" data-name="Layer 2"><g id="Layer_1-2" data-name="Layer 1"><path class="cls-1" d="M8.08 20.26a12.8 12.8 0 0 1-5.55-1 1.4 1.4 0 0 1-.53-.41c.34-4.41 1.22-5.16 3-6.65l.45-.38a6.16 6.16 0 0 0 2.61.58 5.89 5.89 0 0 0 1-.1v-2.07a3.94 3.94 0 0 1-1 .15 4.18 4.18 0 1 1 4.18-4.18 3.61 3.61 0 0 1-.12.94h2.05a4.83 4.83 0 0 0 .09-.94 6.2 6.2 0 1 0-10.53 4.43C1.6 12.44.4 13.68 0 18.78A2.56 2.56 0 0 0 1.52 21a15 15 0 0 0 6.56 1.27z"/><path class="cls-1" d="M8.08 4.05a2.14 2.14 0 0 1 2.13 2.13.51.51 0 0 0 .51.51.5.5 0 0 0 .5-.51A3.15 3.15 0 0 0 8.08 3a.5.5 0 0 0-.51.5.51.51 0 0 0 .51.55zm12.06 3.09a4.18 4.18 0 1 1 4.07 3.24 4.07 4.07 0 0 1-1-.12v2.06a6.5 6.5 0 0 0 1 .08 6.27 6.27 0 0 0 2.64-.59l.46.39c1.76 1.49 2.64 2.24 3 6.58 0 .1-.16.29-.51.5a12.8 12.8 0 0 1-5.55 1v2A15 15 0 0 0 30.79 21a2.6 2.6 0 0 0 1.52-2.32c-.4-5-1.6-6.26-3.69-8h-.06A6.2 6.2 0 1 0 18 6.2a5.77 5.77 0 0 0 .08.94z"/><path class="cls-1" d="M27.38 6.18A3.15 3.15 0 0 0 24.23 3a.5.5 0 0 0-.5.5.5.5 0 0 0 .5.51 2.14 2.14 0 0 1 2.14 2.13.5.5 0 0 0 .5.51.51.51 0 0 0 .51-.47zm-.74 8.44c1.5.75 1.5 3.18 1.5 4a.5.5 0 0 0 .5.51.51.51 0 0 0 .51-.51c0-1 0-3.85-2-4.88a.51.51 0 0 0-.68.23.5.5 0 0 0 .17.65zm-10.49-2.49a2.13 2.13 0 0 1 2.14 2.13.5.5 0 0 0 .5.5.5.5 0 0 0 .51-.5 3.15 3.15 0 0 0-3.15-3.14.5.5 0 0 0-.5.5.51.51 0 0 0 .5.51zM19 21.8a.5.5 0 0 0-.68.22.51.51 0 0 0 .23.68c1.49.75 1.49 3.18 1.49 4a.51.51 0 0 0 1 0c.03-.98.03-3.88-2.04-4.9z"/><path class="cls-1" d="M20.54 18.74h-.05a6.19 6.19 0 1 0-8.69 0c-2.09 1.77-3.3 3-3.69 8.11A2.56 2.56 0 0 0 9.6 29.1a14.37 14.37 0 0 0 6.56 1.27 14.35 14.35 0 0 0 6.55-1.27 2.59 2.59 0 0 0 1.52-2.33c-.39-5.01-1.6-6.26-3.69-8.03zm-.22-4.46a4.18 4.18 0 1 1-4.18-4.18 4.19 4.19 0 0 1 4.18 4.18zm-9.71 13.07a1.68 1.68 0 0 1-.52-.42c.35-4.42 1.23-5.16 3-6.65l.45-.38.26.11 1.46 2-1.77 4.06 1.83 2.23a11.16 11.16 0 0 1-4.71-.95zm11.09 0a11.51 11.51 0 0 1-4.74 1l1.83-2.24L17 22l1.47-2 .28-.12.46.39c1.76 1.49 2.64 2.23 3 6.57 0 .16-.16.31-.51.51z"/></g></g></svg>