<svg xmlns="http://www.w3.org/2000/svg" viewBox="0 0 84 84"><defs><style>.cls-1{fill:#77b9eb}.cls-3{fill:#80e18c}.cls-4{fill:#69b9b9}</style></defs><g id="Layer_2" data-name="Layer 2"><g id="Layer_1-2" data-name="Layer 1"><path class="cls-1" d="M51.09 1l.82.19-.82-.19zm-.94-.21l.45.09-.45-.09zm2.09.47l.55.14-.55-.14zm.82.22c.67.18 1.33.37 2 .59-.65-.22-1.31-.41-2-.59zM43 0zm12.14 2.1l.68.23-.68-.23zM44 .05zm1.21.07zm3.13.36l.33.05-.33-.05zM36.1 32.85a7.67 7.67 0 0 1 4.24 1.28l3.6 2.38a2.83 2.83 0 0 0 2.43.32l6.47-2.16 1.08-1a3.1 3.1 0 0 0 1-2.3 3.19 3.19 0 0 0-.77-2l-6.84 2a.69.69 0 0 1-.67-.16L42.07 27a.69.69 0 0 0-.74-.13.72.72 0 0 0-.43.62l.39 3.11a.7.7 0 0 1-1.16.61l-3.81-3.38a3.49 3.49 0 0 0-4 .54l-1.22 3.06a2.79 2.79 0 0 1-.92 1.2l-1.94 1.45L34.75 33a7.7 7.7 0 0 1 1.35-.12z"/><path class="cls-1" d="M55.85 2.34a42.28 42.28 0 0 1 9.44 4.71 42.1 42.1 0 0 1 8 6.88 42.53 42.53 0 0 1 3.52 4.5l.1.16c.43.63.84 1.28 1.23 1.93l.18.3c.29.51.58 1 .86 1.54A41.76 41.76 0 0 1 83.69 37a.76.76 0 0 1-.3 0L69.9 32.65l.63 2.8A2.1 2.1 0 0 0 73.24 37l1.56-.51a.68.68 0 0 1 .63.09.73.73 0 0 1 .29.57v3.81a4.88 4.88 0 0 1-2 3.93l-4 3.22a1.39 1.39 0 0 1-2-.25l-6.47-8.66a5.59 5.59 0 0 0-2.71-2L56 36.4l10.59 13.76a4.91 4.91 0 0 0 3.48 1.12l2-.14a.75.75 0 0 1 .57.24.68.68 0 0 1 .17.59L72 56.48a.66.66 0 0 1-.21.38l-8.2 7.73-6.16 15.49a.71.71 0 0 1-.46.42 8.53 8.53 0 0 1-2.34.33 8.4 8.4 0 0 1-4.1-1.08 8.29 8.29 0 0 1-4-5.07 15.94 15.94 0 0 1-.7-3.49v-5.84l-1-.37a13.29 13.29 0 0 1-5.57-4.05l-2.16-2.69-9.31 1.67a6.07 6.07 0 0 1-1.2.09 42 42 0 0 0 17.32 24H42A42 42 0 0 0 55.85 2.34zM46.16.2h.34-.34zm.96.11h.34-.34z"/><path class="cls-1" d="M54.54 26.27l2.18-1.61a1.57 1.57 0 0 0 .21-.24 1.4 1.4 0 0 0-1.93-2l-1.81 1.34h-3.37a1.4 1.4 0 1 0 0 2.8h3.88a1.41 1.41 0 0 0 .84-.28zM49.25.62l.43.08-.43-.08zm12.91 24.32a1.41 1.41 0 0 0 .82-.27l.11-.09a1.45 1.45 0 0 0 .43-.78 1.43 1.43 0 0 0-.24-1.09L59.7 17.8a1.4 1.4 0 1 0-2.26 1.65L61 24.36a1.4 1.4 0 0 0 1.14.58z"/><path d="M26.66 60a6.15 6.15 0 0 1-2-.36 6.29 6.29 0 0 1-2.06-1.2l-.1-.1a1.29 1.29 0 0 1-.17-.16l-.15-.18-.13-.14-.18-.21-.09-.12-.26-.34-1-1.52a10.46 10.46 0 0 1-1.64-7.58v-.45c0-.07 0 0 0 0a10.13 10.13 0 0 1 .63-2c.1-.21.2-.43.31-.64l2.15-4.14v-1.45a4.89 4.89 0 0 1 3.46-4.79l-1.9-.53A3.49 3.49 0 0 1 21 30.93l-.1-1.87a3.5 3.5 0 0 1 3.1-3.67l1.86-.2v-3.31a.7.7 0 0 1 .28-.56l5.57-4.2a3.44 3.44 0 0 0 .92-1.05l1-1.67-6.22 1.22a.68.68 0 0 1-.58-.15.7.7 0 0 1-.26-.54V13a6.27 6.27 0 0 1 2.35-4.9L37.68 1a.69.69 0 0 1 .79 0l6.14 3.53a.69.69 0 0 0 .54.07.68.68 0 0 0 .42-.34L47.92.43a41.82 41.82 0 0 1 17.36 6.62 42.28 42.28 0 0 0-9.44-4.71l-.68-.23h-.1c-.65-.22-1.31-.41-2-.59l-.27-.08-.55-.14-.33-.08-.82-.22-.49-.12-.45-.09-.47-.09-.43-.08-.58-.09-.33-.05-.88-.13h-.34l-.63-.11h-.34l-.8-.07h-.14l-.94-.11H42a42 42 0 0 0 0 84h1.91A42 42 0 0 1 26.66 60zm-6.85-44.61a1.39 1.39 0 0 1 1.92-.46L24 16.3a1.41 1.41 0 0 1 .63 1.5l-1 4.46a1.41 1.41 0 0 1-1.37 1.09h-.31a1.4 1.4 0 0 1-1.06-1.67l.78-3.48-1.39-.85a1.4 1.4 0 0 1-.46-1.93z" fill="#5492d3"/><path class="cls-3" d="M63.09 24.58l-.11.09.11-.09zM43.94 36.51l1.14.75 1.29-.43a2.83 2.83 0 0 1-2.43-.32zm9.76-9.96a1.41 1.41 0 0 0 .84-.28l2.18-1.61-2.18 1.61a1.41 1.41 0 0 1-.84.28zm24.02 5.54l.89 3.33-8.71-2.77 13.49 4.29a.76.76 0 0 0 .3 0 41.76 41.76 0 0 0-4.57-14.6l-1.32 4.39a9.86 9.86 0 0 0-.08 5.36zm-19.9 18.39l-.16.23A5.58 5.58 0 0 1 53 53.2H36.6a5.61 5.61 0 0 0-4.66 2.49l-2.64 4-1.44.26a6.3 6.3 0 0 1-3.2-.27 6.15 6.15 0 0 0 2 .36 6.07 6.07 0 0 0 1.2-.09l9.31-1.66 2.16 2.68A13.29 13.29 0 0 0 44.9 65l1 .37v5.84a15.94 15.94 0 0 0 .7 3.49 8.29 8.29 0 0 0 4 5.07 8.4 8.4 0 0 0 4.1 1.08 8.53 8.53 0 0 0 2.3-.35.71.71 0 0 0 .46-.42l6.13-15.49 8.2-7.73a.66.66 0 0 0 .21-.38l.79-4.48a.68.68 0 0 0-.17-.59.71.71 0 0 0-.57-.23l-2 .13a4.91 4.91 0 0 1-3.48-1.12l-6-.9a2.8 2.8 0 0 0-2.74 1.22zm20.26-29.97l.18.3-.18-.3zm-1.33-2.09l.1.16-.1-.16z"/><path class="cls-3" d="M47.92.43H48A41.25 41.25 0 0 1 54.67 2l.46.16c.88.29 1.76.6 2.61.95l.85.37c.72.31 1.43.63 2.12 1a44.637 44.637 0 0 1 2.86 1.57l.95.58c.24.15.47.32.71.48a42.05 42.05 0 0 0-37.34 27.07l.34-.06 1.94-1.45a2.79 2.79 0 0 0 .92-1.2l1.22-3.06a3.51 3.51 0 0 1 4-.54l3.81 3.38a.7.7 0 0 0 .79.1.71.71 0 0 0 .36-.71l-.39-3.11a.72.72 0 0 1 .43-.62.69.69 0 0 1 .74.13l4.59 4.2a.69.69 0 0 0 .67.16l6.84-2-3.75 1.09-.4-.63a2.71 2.71 0 0 1 .52-3.31h-.74a1.4 1.4 0 1 1 0-2.8h3.42l1.81-1.34a1.4 1.4 0 0 1 1.93 2l1.82-.61h1.82l.4.56-3.58-4.91a1.4 1.4 0 0 1 2.26-1.66l3.59 4.92a1.43 1.43 0 0 1 .24 1.09l2.82-.8a5.61 5.61 0 0 0 3.43-2.71l3.49-6.39A42 42 0 0 0 47.92.42z"/><path class="cls-4" d="M20.27 17.32l1.39.85-.78 3.48a1.4 1.4 0 0 0 1.06 1.67h.31a1.41 1.41 0 0 0 1.37-1.09l1-4.46A1.41 1.41 0 0 0 24 16.3l-2.24-1.37a1.4 1.4 0 0 0-1.46 2.39z"/><path class="cls-4" d="M27.89 34.18A42.05 42.05 0 0 1 65.23 7.05l-.71-.48-.95-.57c-.63-.38-1.26-.73-1.91-1.08-.31-.17-.63-.33-.95-.49-.69-.35-1.4-.67-2.12-1l-.85-.37a38.6 38.6 0 0 0-2.61-.95L54.67 2A41.25 41.25 0 0 0 48 .44h-.07l-2.36 3.8a.68.68 0 0 1-.42.34.69.69 0 0 1-.54-.07L38.47 1a.69.69 0 0 0-.79.06l-8.76 7.05A6.27 6.27 0 0 0 26.57 13v1.92a.7.7 0 0 0 .26.54.68.68 0 0 0 .58.15l6.22-1.22-1 1.67a3.31 3.31 0 0 1-.92 1.05l-5.57 4.2a.7.7 0 0 0-.28.56v3.31l-1.86.2a3.5 3.5 0 0 0-3.13 3.67l.1 1.87a3.49 3.49 0 0 0 2.56 3.18l1.9.53zm-9.02 17.41a10.36 10.36 0 0 1 0-3.47 10.46 10.46 0 0 0 1.64 7.58l-.2-.3a10.53 10.53 0 0 1-1.44-3.81zm.01-3.59v-.12.12zm.12-.33z"/><path d="M21.52 57.22l-1-1.52zm-1.93-11.56c.1-.21.2-.43.31-.64-.11.21-.21.43-.31.64zm.31-.66l2.15-4.14zm46.41-22l-2.78.77a1.45 1.45 0 0 1-.43.78l-.11.09a1.4 1.4 0 0 1-2-.31l-.4-.56H58.8l-1.8.64a1.57 1.57 0 0 1-.21.24l-2.18 1.61a1.41 1.41 0 0 1-.83.28h-3.22a2.72 2.72 0 0 0-.56 3.32l.36.63 3.77-1.12a3.13 3.13 0 0 1 .77 2 3.1 3.1 0 0 1-1 2.3l-1.08 1-6.47 2.16-1.29.43-1.14-.75-3.6-2.38a7.67 7.67 0 0 0-4.24-1.28 7.5 7.5 0 0 0-1.34.12l-6.53 1.15-.34.06-2.42.46 2.43-.46A41.94 41.94 0 0 0 26.67 60a6.32 6.32 0 0 1-4.07-1.55 6.37 6.37 0 0 0 5.26 1.47l1.44-.26 2.64-4a5.61 5.61 0 0 1 4.66-2.46H53a5.62 5.62 0 0 0 4.66-2.49l.15-.23a2.82 2.82 0 0 1 2.75-1.22l6 .9L56 36.4l2.54.85a5.59 5.59 0 0 1 2.71 2l6.48 8.64a1.4 1.4 0 0 0 2 .25l4-3.22a4.88 4.88 0 0 0 2-3.93v-3.86a.72.72 0 0 0-.29-.57.68.68 0 0 0-.63-.09l-1.57.53a2.1 2.1 0 0 1-2.71-1.53l-.63-2.8 8.71 2.77-.89-3.33a9.86 9.86 0 0 1 .08-5.36l1.32-4.37c-.28-.52-.57-1-.86-1.54l-.18-.3c-.39-.65-.8-1.3-1.23-1.93l-.1-.16a42.53 42.53 0 0 0-3.52-4.5l-3.49 6.39A5.61 5.61 0 0 1 66.31 23zM22.33 58.18l.16.16-.16-.16zm-.55-.62l.09.12-.09-.12zm.27.33l.13.14-.13-.14zm-3.18-6.3a10.53 10.53 0 0 0 1.44 3.81 10.53 10.53 0 0 1-1.44-3.81z" fill="#f9ebb9"/><path d="M26.67 60a41.94 41.94 0 0 1 1.23-25.82l-2.43.46A4.89 4.89 0 0 0 22 39.43v1.45L19.9 45c-.11.21-.21.43-.31.64a10.13 10.13 0 0 0-.63 2v.45a10.36 10.36 0 0 0 0 3.47 10.72 10.72 0 0 0 1.44 3.81l.2.3 1 1.52.26.34.09.12.18.21.13.14.15.15a1.29 1.29 0 0 0 .17.16l.1.1A6.32 6.32 0 0 0 26.67 60z" fill="#f3d388"/></g></g></svg>