<svg xmlns="http://www.w3.org/2000/svg" viewBox="0 0 83.24 53.35"><defs><style>.cls-1{fill:#b0b0b0}</style></defs><g id="Layer_2" data-name="Layer 2"><g id="Layer_1-2" data-name="Layer 1"><path id="path3228" class="cls-1" d="M0 50.37v-10h5A3.32 3.32 0 1 1 5 47H2.59v3.36zm5.85-6.68c0-.68-.48-1.07-1.21-1.07h-2.1v2.14h2.1c.73 0 1.21-.39 1.21-1.07zm7.42 6.68v-.73a3 3 0 0 1-2.24.88 2.37 2.37 0 0 1-2.49-2.39A2.27 2.27 0 0 1 11 45.79a2.86 2.86 0 0 1 2.24.83v-.88c0-.64-.54-1-1.46-1a3.29 3.29 0 0 0-2.05.78L8.93 44a5.21 5.21 0 0 1 3.27-1.12c1.75 0 3.36.63 3.36 2.88v4.58zm0-1.9v-.63a1.59 1.59 0 0 0-1.27-.49c-.63 0-1.17.29-1.17.83s.54.82 1.17.82a1.47 1.47 0 0 0 1.27-.53zm3.42 2.64a1.21 1.21 0 0 0 .58.14c.54 0 .88-.1 1-.39l.14-.39-2.87-7.32H18l1.61 4.59 1.66-4.59h2.44l-3.27 8.3c-.58 1.51-1.65 1.85-3.07 1.9a7.4 7.4 0 0 1-1-.1zm16.54-.74V46a.9.9 0 0 0-1-1 1.77 1.77 0 0 0-1.32.68v4.68h-2.27V46a.87.87 0 0 0-1-1 1.62 1.62 0 0 0-1.26.68v4.68H24.1V43.1h2.3v.9a3.06 3.06 0 0 1 2.39-1.07 2 2 0 0 1 2.05 1.27 3.07 3.07 0 0 1 2.48-1.27 2 2 0 0 1 2.2 2.19v5.27zm3-3.66a3.76 3.76 0 0 1 3.86-3.8c2.14 0 3.7 1.56 3.7 4.05v.49h-5.15a1.71 1.71 0 0 0 1.81 1.26 3.12 3.12 0 0 0 1.8-.63l1 1.42a4.8 4.8 0 0 1-3 1 3.66 3.66 0 0 1-4-3.76zm3.86-2a1.38 1.38 0 0 0-1.47 1.22h3a1.4 1.4 0 0 0-1.51-1.22zm9.31 5.66v-4.19A1.07 1.07 0 0 0 48.25 45a2 2 0 0 0-1.41.68v4.73h-2.29V43.1h2.29v.9a3.31 3.31 0 0 1 2.49-1.07 2.13 2.13 0 0 1 2.39 2.29v5.17zm3.91-1.95v-3.27h-1.2v-2h1.22v-2h2.29v2h1.46v2h-1.46v2.64a.64.64 0 0 0 .64.73.91.91 0 0 0 .58-.2l.44 1.76a2.47 2.47 0 0 1-1.71.49 2 2 0 0 1-2.24-2.15zm11.46 1.95l-1.36-4.48-1.37 4.48h-2.47l-2.14-7.22h2.39L61 47.59l1.41-4.44h2.05l1.42 4.44L67 43.15h2.39l-2.15 7.22zm9.27 0v-.73a2.94 2.94 0 0 1-2.24.88 2.37 2.37 0 0 1-2.49-2.39 2.27 2.27 0 0 1 2.49-2.34 2.86 2.86 0 0 1 2.24.83v-.88c0-.64-.53-1-1.46-1a3.31 3.31 0 0 0-2 .78L69.72 44A5.23 5.23 0 0 1 73 42.91c1.76 0 3.37.63 3.37 2.88v4.58zm0-1.9v-.63a1.59 1.59 0 0 0-1.27-.49c-.63 0-1.17.29-1.17.83s.54.83 1.17.83a1.47 1.47 0 0 0 1.29-.54zm3.52 1.9v-10h2.29v10zm3.36 0v-10h2.3v10z"/><g id="g3236"><path id="path3230" class="cls-1" d="M52.77 32.91l3.61-9.72H69.7l3.6 9.72zm-21.15 0l3.6-9.72h13.32l3.61 9.72zm10.65-11.6l3.45-9.71H59l3.61 9.71zm-21.47 0l3.61-9.71h13.32l3.45 9.71zm-10.65 11.6l3.6-9.72h13.32l3.61 9.72z"/><g id="g3234"><path id="path3232" class="cls-1" d="M31.62 9.87L35.22 0h13.17L52 9.87z"/></g></g></g></g></svg>