<svg xmlns="http://www.w3.org/2000/svg" viewBox="0 0 39.6 47.31"><defs><style>.cls-1{fill:#b0b0b0}</style></defs><g id="Layer_2" data-name="Layer 2"><g id="Layer_1-2" data-name="Layer 1"><path class="cls-1" d="M34 3.84C31.93 1.28 28.09 0 22.77 0H8c-.9 0-1.79 1-2.09 1.92L0 43.87c0 1 .59 1.6 1.18 1.6h9.17l2.36-15.69v.64c.3-1 1.19-1.92 2.07-1.92h4.44c8.57 0 15.08-3.84 17.15-14.41v-1C36.66 9 36.07 6.4 34 3.84"/><path class="cls-1" d="M36.07 12.12V13C34 23 27.5 26.3 18.92 26.3h-4.43a2.53 2.53 0 0 0-2.07 1.78l-3 18a1.09 1.09 0 0 0 1.18 1.19h7.69a1.66 1.66 0 0 0 1.78-1.48v-.3l1.47-9.16v-.59a1.66 1.66 0 0 1 1.78-1.48h1.18c7.39 0 13.31-3 14.78-11.83.6-3.55.3-6.8-1.47-8.87a3.07 3.07 0 0 0-1.78-1.48"/><path d="M34 11.24c-.29 0-.59-.3-.88-.3a1.07 1.07 0 0 1-.89-.3 16 16 0 0 0-3.85-.29H16.85a1.09 1.09 0 0 0-.88.29 1.62 1.62 0 0 0-.89 1.48L12.71 27.5v.59a2.55 2.55 0 0 1 2.07-1.78h4.44c8.57 0 15.08-3.54 17.15-13.3a1.11 1.11 0 0 1 .29-.89c-.59-.29-.88-.59-1.48-.59-.88-.29-.88-.29-1.18-.29" fill="#8a8a8a"/></g></g></svg>