<svg xmlns="http://www.w3.org/2000/svg" viewBox="0 0 30.76 36.93"><defs><style>.cls-2{fill:#f9f9f9}</style></defs><g id="Layer_2" data-name="Layer 2"><g id="Layer_1-2" data-name="Layer 1"><path d="M2.31 12.31A2.31 2.31 0 0 0 0 14.62v10.77a2.31 2.31 0 1 0 4.61 0V14.62a2.31 2.31 0 0 0-2.3-2.31zm26.15 0a2.31 2.31 0 0 0-2.31 2.31v10.77a2.31 2.31 0 1 0 4.61 0V14.62a2.31 2.31 0 0 0-2.3-2.31zm-4.62 0H6.92a.78.78 0 0 0-.77.77v12.31a3.85 3.85 0 0 0 3.08 3.77v5.46a2.31 2.31 0 1 0 4.61 0v-5.39h3.08v5.39a2.31 2.31 0 1 0 4.61 0v-5.46a3.84 3.84 0 0 0 3.08-3.77V13.08a.77.77 0 0 0-.77-.77zM21 3.2l1.88-1.88a.78.78 0 0 0 0-1.09.77.77 0 0 0-1.09 0l-2.21 2.19a10.55 10.55 0 0 0-8.39 0L9 .23a.77.77 0 0 0-1.08 1.09L9.79 3.2A8.13 8.13 0 0 0 6.15 10a.78.78 0 0 0 .77.77h16.92a.77.77 0 0 0 .77-.77A8.09 8.09 0 0 0 21 3.2z" fill="#73ac57"/><circle class="cls-2" cx="11.54" cy="6.93" r=".77"/><circle class="cls-2" cx="19.23" cy="6.93" r=".77"/></g></g></svg>