<svg xmlns="http://www.w3.org/2000/svg" viewBox="0 0 72.37 46.9"><defs><style>.cls-1{fill:#69ae8f}</style></defs><g id="Layer_2" data-name="Layer 2"><g id="Layer_1-2" data-name="Layer 1"><path class="cls-1" d="M30.28 28.98h-.03l-1.32 4.06h2.62l-1.27-4.06zm-9.47-.54h-2.46v2.24h2.52c.84 0 1.51-.33 1.51-1.14s-.6-1.1-1.57-1.1zm.27 3.97h-2.73v2.75H21c1 0 1.64-.46 1.64-1.51-.02-.9-.79-1.24-1.56-1.24z"/><path class="cls-1" d="M70.51 0H1.86A1.86 1.86 0 0 0 0 1.86V45a1.86 1.86 0 0 0 1.86 1.9h68.65a1.86 1.86 0 0 0 1.86-1.9V1.86A1.86 1.86 0 0 0 70.51 0zM27.23 15.72a6 6 0 0 1 .25-1.31A6.89 6.89 0 0 1 28 13c.11-.24.22-.49.34-.74a7.56 7.56 0 0 1 .44-.71 9.06 9.06 0 0 1 1-1.35A14.22 14.22 0 0 1 31.07 9c.46-.33.89-.7 1.36-1s.92-.55 1.37-.77.88-.4 1.29-.58c.62-.24 1.17-.42 1.62-.56a9.36 9.36 0 0 1-.47-1.47A8.09 8.09 0 0 1 36 3a7.57 7.57 0 0 1 1.58.66 9 9 0 0 1 1.34.85 13.11 13.11 0 0 1 2.18 2.03 1.74 1.74 0 0 1 .16 2l-.07.12A13.07 13.07 0 0 1 39 11.39a10 10 0 0 1-1.4 1.15q-.39.27-.81.51a7.26 7.26 0 0 1-.93.43 8.59 8.59 0 0 1 0-1c0-.32.08-.64.13-1a9.78 9.78 0 0 1 .47-1.75l.06-.18-.52.12a11.12 11.12 0 0 0-1.14.24 10.36 10.36 0 0 0-1.25.37c-.44.13-.84.36-1.29.54a10.28 10.28 0 0 0-1.23.74 8.38 8.38 0 0 0-1.12.93c-.16.17-.35.33-.5.51l-.43.56a6.13 6.13 0 0 0-.71 1.16 5.23 5.23 0 0 0-.49 1.13 7.79 7.79 0 0 0-.32 1c-.06.31-.12.59-.16.81-.08.46-.13.72-.13.72v-1.57a7.73 7.73 0 0 1 0-1.09zm1.82 10.94h2.47l3.62 10.27h-2.33l-.66-2.12h-3.79l-.71 2.12h-2.26zm-8.48 12.83H19v4.32h-1.12v-4.32h-1.59v-.93h4.28zm-4.28-2.56V26.66h5c2.52 0 3.16 1.58 3.16 2.64a2.06 2.06 0 0 1-1.26 2.1 2.39 2.39 0 0 1 1.59 2.48 3 3 0 0 1-.9 2.12c-.58.57-1.14.93-3.24.93zm8.12 6.89a3.67 3.67 0 0 1-.11-1.06c0-.72-.05-1-.86-1H22.3v2.06h-1.08v-5.26h2.66A1.48 1.48 0 0 1 25.54 40a1.27 1.27 0 0 1-.82 1.26c.44.19.67.35.67 1.33 0 .77 0 1 .24 1v.14zm5.35 0l-.34-1.08h-1.94l-.36 1.08H26l1.88-5.25h1.22l1.9 5.24zm6.14 0h-1.1l-2.15-3.75v3.75h-1v-5.26h1.16l2.09 3.66v-3.66h1zM34.62 22a10.46 10.46 0 0 1 .52 1.46 8.65 8.65 0 0 1 .29 1.68 7.94 7.94 0 0 1-1.6-.61 10.61 10.61 0 0 1-1.36-.81 13.19 13.19 0 0 1-2.25-2 1.71 1.71 0 0 1-.22-2l.07-.13a12.66 12.66 0 0 1 2.06-2.79 10.51 10.51 0 0 1 1.36-1.2c.26-.18.52-.36.8-.53a7 7 0 0 1 .91-.45 5.83 5.83 0 0 1 0 1c0 .32 0 .63-.09.95a9.83 9.83 0 0 1-.42 1.76l-.06.18.62-.1c.35-.09.74-.15 1.13-.28a9 9 0 0 0 1.24-.41c.44-.14.83-.38 1.27-.57a11.86 11.86 0 0 0 1.21-.78 7.2 7.2 0 0 0 1.09-1c.16-.18.35-.34.49-.53l.41-.57a5.83 5.83 0 0 0 .67-1.18 5.21 5.21 0 0 0 .48-1.09 9.06 9.06 0 0 0 .29-1c0-.32.1-.6.13-.82.08-.46.12-.73.12-.73v1.58a7.5 7.5 0 0 1-.07 1.11 5.32 5.32 0 0 1-.21 1.31 6.28 6.28 0 0 1-.45 1.44c-.1.25-.21.5-.32.75s-.28.47-.42.72a9.65 9.65 0 0 1-1 1.39A14.16 14.16 0 0 1 40.17 19c-.45.34-.88.73-1.34 1a12.78 12.78 0 0 1-1.34.8c-.44.26-.87.43-1.27.62-.61.27-1.15.47-1.6.58zm1.8 4.62h2.26l4.07 7.15v-7.11h2v10.27h-2.11l-4.19-7.32v7.32h-2zM38.94 44c-1.92 0-2.25-1.11-2.25-1.76h1.05c0 .29.16.85 1.12.85.51 0 1.1-.13 1.1-.68s-.4-.52-1-.66l-.56-.13c-.85-.19-1.67-.38-1.67-1.54 0-.59.31-1.62 2-1.62s2 1 2.05 1.7h-.99c0-.24-.12-.79-1.08-.79-.42 0-.92.15-.92.63s.34.5.56.55l1.28.31c.72.17 1.38.47 1.38 1.42C41 43.81 39.4 44 38.94 44zm6.65-4.47H43v1.18h2.31v.93H43v2.22h-1.1v-5.3h3.74zm4.73 4.32h-4v-5.29h3.88v.93h-2.79v1.1H50v.93h-2.59v1.37h2.91zm5.3 0h-1.21a3.28 3.28 0 0 1-.12-1.06c0-.72 0-1-.86-1H52.3v2.06h-1.08v-5.29h2.66A1.47 1.47 0 0 1 55.53 40a1.26 1.26 0 0 1-.81 1.26c.43.19.67.35.67 1.33 0 .77 0 1 .23 1zm.46-6.89h-2.76l-3.17-4.5-1 1v3.48H47V26.66h2.15v4.18l3.92-4.18h2.77l-4.19 4.21 4.43 6.06z"/><path class="cls-1" d="M53.67 39.46H52.3v1.41h1.29c.57 0 .85-.2.85-.72 0-.28-.13-.69-.77-.69zm-25.21.28h-.01l-.67 2.08h1.34l-.66-2.08zm-4.79-.28H22.3v1.41h1.29c.57 0 .85-.2.85-.72 0-.28-.13-.69-.77-.69z"/></g></g></svg>