<svg xmlns="http://www.w3.org/2000/svg" viewBox="0 0 48.79 48.79"><defs><radialGradient id="a" cx="37.8" cy="9.38" r="34.94" gradientUnits="userSpaceOnUse"><stop offset=".07" stop-color="#7bbeb6"/><stop offset=".28" stop-color="#76b7b5"/><stop offset=".57" stop-color="#66a5b3"/><stop offset=".91" stop-color="#4d86af"/><stop offset=".93" stop-color="#4c85af"/></radialGradient></defs><g data-name="Layer 2"><g data-name="Layer 1"><circle cx="24.39" cy="24.39" r="24.39" transform="rotate(-78.61 24.392 24.396)" fill="#e4e4e4"/><path d="M46.91 24.39a22.5 22.5 0 1 1-2-9.24 22.52 22.52 0 0 1 2 9.24z" fill="url(#a)"/><ellipse cx="24.39" cy="15.15" rx="20.54" ry="13.27" style="mix-blend-mode:screen" opacity=".1" fill="#fff"/><path d="M33.68 18.81s1.84-1.48 2-2.7a7.88 7.88 0 0 1-3.11 1.19 4.92 4.92 0 0 0-4.91-1.37c-3.2.76-3.87 4.33-3.49 5.76a14.24 14.24 0 0 1-10.09-5.06 4.92 4.92 0 0 0 1.6 6.54s-1.83-.11-2.24-.58a4.85 4.85 0 0 0 4 4.83 5.54 5.54 0 0 1-2.27.2 5.08 5.08 0 0 0 4.6 3.29A10.31 10.31 0 0 1 12.4 33a13.66 13.66 0 0 0 10.29 1.94c.29-.06.57-.13.86-.21a14.47 14.47 0 0 0 8.83-7.13c.12-.23.23-.47.34-.72A13.47 13.47 0 0 0 34 20.53a9.29 9.29 0 0 0 2.44-2.48 10.19 10.19 0 0 1-2.76.76z" fill="#fff"/></g></g></svg>