<svg xmlns="http://www.w3.org/2000/svg" viewBox="0 0 44 47.65"><g data-name="Layer 2"><path d="M12.94 20.07a2.84 2.84 0 0 1-1.67.59v-3.93a6.42 6.42 0 0 1 1.82.87 1.81 1.81 0 0 1 .51 1.24 1.83 1.83 0 0 1-.66 1.23zM9.82 9.82a2.88 2.88 0 0 0-1.54.58 1.82 1.82 0 0 0-.58 1.24 1.51 1.51 0 0 0 .44 1.16 4.87 4.87 0 0 0 1.68.87zM44 18.11v24.15a5.37 5.37 0 0 1-5.38 5.39H5.38A5.37 5.37 0 0 1 0 42.26V5.38A5.37 5.37 0 0 1 5.38 0h20.8a5.25 5.25 0 0 1 4.44 2L42 13.45a5.35 5.35 0 0 1 2 4.66zm-23.93-5.38h8a1.64 1.64 0 0 0 1.68-1.61V9.89a1.64 1.64 0 0 0-1.68-1.61h-8zM9.82 16.37v4.29A7.44 7.44 0 0 1 6 18.77l-1.57 1.89a9.88 9.88 0 0 0 5.39 2.4v1.59h1.38v-1.6a5.88 5.88 0 0 0 3.63-1.31 4.19 4.19 0 0 0 1.38-3.13 3.52 3.52 0 0 0-1.16-2.91 8.88 8.88 0 0 0-3.71-1.6h-.07V10a6.87 6.87 0 0 1 3.12 1.31l1.45-2a9.07 9.07 0 0 0-4.58-1.6V6.38H9.88v1.1a5.42 5.42 0 0 0-3.43 1.3 4.22 4.22 0 0 0-1.37 3.13 4 4 0 0 0 1.16 2.91 8.6 8.6 0 0 0 3.58 1.55zm29.89 23.57A1.64 1.64 0 0 0 38 38.33H5.81a1.57 1.57 0 0 0-1.6 1.61v1.23a1.62 1.62 0 0 0 1.6 1.61H38a1.69 1.69 0 0 0 1.68-1.61zm0-10A1.64 1.64 0 0 0 38 28.29H5.81a1.56 1.56 0 0 0-1.6 1.6v1.24a1.61 1.61 0 0 0 1.6 1.6H38a1.68 1.68 0 0 0 1.68-1.6zm0-10a1.64 1.64 0 0 0-1.71-1.7H20v4.44h18a1.69 1.69 0 0 0 1.67-1.61v-1.22z" fill="#29b190" data-name="Layer 1"/></g></svg>