<svg xmlns="http://www.w3.org/2000/svg" viewBox="0 0 47.36 29.63"><defs><style>.cls-2{fill:#69ae8f}.cls-3{mix-blend-mode:multiply}</style></defs><g style="isolation:isolate"><g id="Layer_2" data-name="Layer 2"><g id="Layer_1-2" data-name="Layer 1"><path class="cls-2" d="M16.56 11.45h28.93a1.87 1.87 0 0 0 0-3.74H16.56a1.87 1.87 0 1 0 0 3.74zm5.88 11.22h19a1.87 1.87 0 0 0 0-3.74h-19a1.87 1.87 0 0 0 0 3.74zm-2.71-5.77H43.5a1.87 1.87 0 0 0 0-3.74H19.73a1.87 1.87 0 0 0 0 3.74z"/><g class="cls-3"><path class="cls-2" d="M16.24 11.42l27 5.44a1.87 1.87 0 1 0 .63-3.68l-27-5.44a1.87 1.87 0 0 0-.63 3.68z"/></g><g class="cls-3"><path class="cls-2" d="M19.43 16.87l21.75 5.75a1.87 1.87 0 0 0 .63-3.68l-21.75-5.75a1.87 1.87 0 1 0-.63 3.68z"/></g><path class="cls-2" d="M1.87 3.74h11.89a1.87 1.87 0 1 0 0-3.74H1.87a1.87 1.87 0 0 0 0 3.74z"/><path class="cls-2" d="M12.52 3.1l2.23 2.6a1.86 1.86 0 1 0 2.81-2.45L15.33.64a1.87 1.87 0 1 0-2.81 2.46z"/><circle class="cls-2" cx="26.88" cy="26.65" r="2.99"/><circle class="cls-2" cx="37.26" cy="26.65" r="2.99"/></g></g></g></svg>