<svg xmlns="http://www.w3.org/2000/svg" viewBox="0 0 48.79 48.79"><defs><radialGradient id="a" cx="37.8" cy="9.38" r="34.95" gradientUnits="userSpaceOnUse"><stop offset="0" stop-color="#da0100"/><stop offset=".84" stop-color="#7a1010"/></radialGradient></defs><g data-name="Layer 2"><g opacity=".8" data-name="Layer 1"><circle cx="24.39" cy="24.39" r="24.39" fill="#e4e4e4"/><path d="M46.91 24.39a22.5 22.5 0 1 1-2-9.24 22.52 22.52 0 0 1 2 9.24z" fill="url(#a)"/><path d="M44.93 15.15a22.52 22.52 0 0 1-41.07 0 22.52 22.52 0 0 1 41.07 0z" style="mix-blend-mode:screen" opacity=".1" fill="#fff"/><path d="M32.73 16.17H16.06a3.46 3.46 0 0 0-3.45 3.45v9.55a3.46 3.46 0 0 0 3.45 3.45h16.67a3.45 3.45 0 0 0 3.44-3.45v-9.55a3.45 3.45 0 0 0-3.44-3.45zM22 27.49v-6.67l6.39 3.33z" fill="#fff"/></g></g></svg>