<svg xmlns="http://www.w3.org/2000/svg" viewBox="0 0 21.64 25.33"><g data-name="Layer 2"><path d="M21 20.34c-.74-.3-1.06-.71-1-1.31a2 2 0 0 0-.55-1.42 6.22 6.22 0 0 0 0-3.27 28.59 28.59 0 0 0-3.47-5.66 4.78 4.78 0 0 1-.69-2.9 8.77 8.77 0 0 0-.65-3.53A3.65 3.65 0 0 0 11.1 0a4.8 4.8 0 0 0-2.65.8C6.94 1.85 7.14 4.14 7.27 5.65c0 .2 0 .4.05.57a7.87 7.87 0 0 1-.1 2.49 8.8 8.8 0 0 1-.76 1.06c-.37.49-.78 1-1.12 1.54a11.81 11.81 0 0 0-1 2.46 13.3 13.3 0 0 1-.67 1.67 2.3 2.3 0 0 0-.22 1.7 1.87 1.87 0 0 0-.56.71c-.23.48-.68.74-1.64.93a1.25 1.25 0 0 0-.89.54 1.53 1.53 0 0 0 0 1.24A2 2 0 0 1 .19 22q-.07.2-.15.45a.8.8 0 0 0 .09.71c.36.55 1.41.74 2.49.87a9.81 9.81 0 0 1 2 .59 10 10 0 0 0 2 .57h.29a1.65 1.65 0 0 0 1.51-.89 16.91 16.91 0 0 1 2.75-.3 11.9 11.9 0 0 1 2.71.27 2.27 2.27 0 0 0 .82.9 2 2 0 0 0 .92.2 2.21 2.21 0 0 0 1.62-.66 14.57 14.57 0 0 1 2.93-1.88l.62-.34a1.38 1.38 0 0 0 .84-1.22 1 1 0 0 0-.63-.93zM11.82 3.66a1.16 1.16 0 0 1 1 1.26 1.49 1.49 0 0 1-.22.79 1.16 1.16 0 0 0 .06-.38.94.94 0 0 0-.85-1 .94.94 0 0 0-.83 1v.12h-.07a1.64 1.64 0 0 1-.08-.5 1.16 1.16 0 0 1 .99-1.29zm-1.68 2.53a9.54 9.54 0 0 1 1.1.39l.43.17a1.11 1.11 0 0 1 .53.32l-.22.14c-.22.14-.21.11-.35.2l-.1.06A8.65 8.65 0 0 1 10 8.3c-.17 0-.27 0-.51-.2l-.2-.1a2 2 0 0 1-.72-.7c.13-.11.48-.38.65-.54a1.94 1.94 0 0 1 .89-.55zM8.74 3.9c.41 0 .75.54.75 1.18a2.29 2.29 0 0 1 0 .25h-.07v-.16c-.09-.5-.42-.86-.78-.86h-.13a.65.65 0 0 0-.51.47c.11-.51.4-.88.74-.88zM7.52 23.21a1.58 1.58 0 0 1-.66.81h-.15a9.4 9.4 0 0 1-2.55-.81h-.1a7.64 7.64 0 0 0-1.58-.35 4.9 4.9 0 0 1-1.22-.28c-.09-.1 0-.41.1-.69a4.15 4.15 0 0 0 .16-.63 2.08 2.08 0 0 0-.05-.85 1.06 1.06 0 0 1 0-.49c0-.11.56-.23.79-.28a3.08 3.08 0 0 0 .87-.27 1.75 1.75 0 0 0 .6-.8 1.27 1.27 0 0 1 .33-.5c.24 0 .73.5 1 .94.07.11.21.33.36.59a18.37 18.37 0 0 0 1.43 2.18c.3.29.78.91.67 1.43zm6.85-5.4a20.22 20.22 0 0 0-.12 2.5 5 5 0 0 1-2.88 1.8 13 13 0 0 1-1.78.14 7.86 7.86 0 0 1-.87-.05l-.79-.91a1 1 0 0 0 .54-1.06c-.07-.5-.71-1-1.45-1.56a5.15 5.15 0 0 1-1.47-1.43A4.33 4.33 0 0 1 6 13.86a8.74 8.74 0 0 0 .69-1.66 5.83 5.83 0 0 1 .72-1.64 4.27 4.27 0 0 0 .86-2.09 2.61 2.61 0 0 0 1.54.83 1 1 0 0 0 .25 0 8.39 8.39 0 0 0 1.47-.74 6.25 6.25 0 0 1 1.26-.63 34.87 34.87 0 0 1 2.74 6.81 7.08 7.08 0 0 1-.11 2.6h-.25c-.6-.05-.76.28-.8.47zm6 3.55a7.32 7.32 0 0 1-1 .55 9.27 9.27 0 0 0-2 1.23 2.74 2.74 0 0 1-1.52 1h-.12c-.41-.13-.74-.71-.56-1.53a12.53 12.53 0 0 0 .37-2.68v-.48a4.62 4.62 0 0 1 0-.89 1.49 1.49 0 0 0 .7 1.43 1.57 1.57 0 0 0 .63.12 2.53 2.53 0 0 0 1.58-.58 3 3 0 0 0 .41-.53.81.81 0 0 1 0 .25 1.78 1.78 0 0 0 .77 1.61h.07c.19.1.69.36.7.49z" fill="#69ae8f" data-name="Layer 1"/></g></svg>