<svg xmlns="http://www.w3.org/2000/svg" viewBox="0 0 44.3 34.75"><defs><style>.cls-1{fill:#69ae8f}</style></defs><g id="Layer_2" data-name="Layer 2"><g id="Layer_1-2" data-name="Layer 1"><path class="cls-1" d="M4.87 17.4h5.14v13.38H4.87zM31.3 4.02h5.14v26.76H31.3zm-8.81 4.92h5.14v21.84h-5.14zm-8.81 4.51h5.14v17.33h-5.14z"/><path class="cls-1" d="M41.83 33.53H1.22v-31A.52.52 0 0 1 1.63 2a.49.49 0 0 1 .57.48v30.07h39.61a.51.51 0 0 1 .51.4.5.5 0 0 1-.49.58z"/><path class="cls-1" d="M41.33 31.32l2.97 1.72-2.97 1.71v-3.43zM3.42 2.97L1.71 0 0 2.97h3.42z"/></g></g></svg>