<svg xmlns="http://www.w3.org/2000/svg" viewBox="0 0 28.17 24.34"><g data-name="Layer 2"><path d="M4.94 5.65V.1h.58a.25.25 0 0 1 .26.2l.07.57a3.08 3.08 0 0 1 .69-.62A1.62 1.62 0 0 1 7.43 0a1.35 1.35 0 0 1 .91.31 1.75 1.75 0 0 1 .5.85 1.67 1.67 0 0 1 .31-.51 1.44 1.44 0 0 1 .42-.36 1.57 1.57 0 0 1 .5-.21 2 2 0 0 1 .54-.08 2.09 2.09 0 0 1 .78.14 1.43 1.43 0 0 1 .61.42 1.77 1.77 0 0 1 .37.66 3 3 0 0 1 .13.9v3.53h-1V2.12a1.48 1.48 0 0 0-.29-1 1 1 0 0 0-.82-.34 1.18 1.18 0 0 0-.46.09 1 1 0 0 0-.38.24 1.11 1.11 0 0 0-.26.42 1.5 1.5 0 0 0-.1.58v3.54h-1V2.12a1.55 1.55 0 0 0-.27-1 1 1 0 0 0-.77-.33 1.24 1.24 0 0 0-.67.21 2.18 2.18 0 0 0-.57.53v4.12zm13.06 0h-.43a.5.5 0 0 1-.23 0 .25.25 0 0 1-.12-.19l-.11-.51c-.14.13-.29.25-.42.35a2.89 2.89 0 0 1-.44.27 2.81 2.81 0 0 1-.49.16 3.48 3.48 0 0 1-.58 0 2 2 0 0 1-.61-.09 1.37 1.37 0 0 1-.49-.27 1.29 1.29 0 0 1-.33-.46 1.69 1.69 0 0 1-.12-.66 1.21 1.21 0 0 1 .18-.63 1.55 1.55 0 0 1 .58-.55 4 4 0 0 1 1.06-.38 6.55 6.55 0 0 1 1.59-.16v-.42a1.56 1.56 0 0 0-.27-1A1 1 0 0 0 16 .79a1.8 1.8 0 0 0-.6.09 2.75 2.75 0 0 0-.42.2l-.31.21a.43.43 0 0 1-.25.09.25.25 0 0 1-.17-.06.34.34 0 0 1-.12-.12l-.22-.32a3.34 3.34 0 0 1 1-.66A3 3 0 0 1 16.09 0a2.1 2.1 0 0 1 .82.15 1.72 1.72 0 0 1 .61.43 1.87 1.87 0 0 1 .38.66 2.93 2.93 0 0 1 .1.86zm-2.53-.59a2.14 2.14 0 0 0 .87-.2 2.25 2.25 0 0 0 .36-.24 2.45 2.45 0 0 0 .34-.31V3.16a6.12 6.12 0 0 0-1.14.09 3.28 3.28 0 0 0-.77.22 1 1 0 0 0-.43.33.68.68 0 0 0-.14.42 1.07 1.07 0 0 0 .07.38.75.75 0 0 0 .2.26.69.69 0 0 0 .28.15 1.36 1.36 0 0 0 .38.05zm7.82-3.97a.38.38 0 0 1-.09.09.21.21 0 0 1-.12 0 .27.27 0 0 1-.18-.07L22.66 1 22.3.84a1.92 1.92 0 0 0-.52-.07 1.66 1.66 0 0 0-.72.15 1.42 1.42 0 0 0-.52.42 1.7 1.7 0 0 0-.32.66 3.34 3.34 0 0 0-.11.87 3.06 3.06 0 0 0 .12.9 1.85 1.85 0 0 0 .32.66 1.32 1.32 0 0 0 .51.4 1.46 1.46 0 0 0 .67.14 1.68 1.68 0 0 0 .59-.08 1.92 1.92 0 0 0 .38-.19 2 2 0 0 0 .3-.19.29.29 0 0 1 .2-.08.2.2 0 0 1 .18.09l.28.36a2.15 2.15 0 0 1-.91.65 3.33 3.33 0 0 1-1.14.2 2.4 2.4 0 0 1-1-.19 2.29 2.29 0 0 1-.8-.54 2.5 2.5 0 0 1-.51-.89 3.55 3.55 0 0 1-.19-1.22 3.78 3.78 0 0 1 .17-1.14 2.51 2.51 0 0 1 .5-.91 2.6 2.6 0 0 1 .82-.6A2.83 2.83 0 0 1 21.72 0a2.51 2.51 0 0 1 1.83.72zM16 16.06a9.28 9.28 0 0 1-.58 3.35A7.57 7.57 0 0 1 13.78 22a7.4 7.4 0 0 1-2.53 1.71 8.6 8.6 0 0 1-3.26.6 8.53 8.53 0 0 1-3.26-.6A7.26 7.26 0 0 1 2.21 22a7.45 7.45 0 0 1-1.63-2.59A9.28 9.28 0 0 1 0 16.06a9.26 9.26 0 0 1 .58-3.34 7.49 7.49 0 0 1 1.63-2.62 7.29 7.29 0 0 1 2.52-1.72A8.53 8.53 0 0 1 8 7.77a8.6 8.6 0 0 1 3.26.61 7.42 7.42 0 0 1 2.53 1.72 7.62 7.62 0 0 1 1.62 2.62 9.26 9.26 0 0 1 .59 3.34zm-2.25 0a8.29 8.29 0 0 0-.41-2.68 5.53 5.53 0 0 0-1.15-2 5.07 5.07 0 0 0-1.81-1.27A6.21 6.21 0 0 0 8 9.67a6.21 6.21 0 0 0-2.37.44 5.07 5.07 0 0 0-1.81 1.27 5.41 5.41 0 0 0-1.16 2 8.29 8.29 0 0 0-.41 2.68 8.24 8.24 0 0 0 .41 2.68 5.49 5.49 0 0 0 1.16 2A4.93 4.93 0 0 0 5.62 22a6.21 6.21 0 0 0 2.38.43 6.21 6.21 0 0 0 2.36-.43 4.93 4.93 0 0 0 1.81-1.26 5.62 5.62 0 0 0 1.15-2 8.24 8.24 0 0 0 .41-2.68zm13.53-5.57a.92.92 0 0 1-.21.25.49.49 0 0 1-.3.09.77.77 0 0 1-.44-.2c-.17-.12-.39-.26-.65-.42a4.88 4.88 0 0 0-.94-.42 4.42 4.42 0 0 0-2.63 0 2.61 2.61 0 0 0-.94.54 2.06 2.06 0 0 0-.57.8 2.47 2.47 0 0 0-.2 1 1.78 1.78 0 0 0 .34 1.12 2.89 2.89 0 0 0 .88.77 6.71 6.71 0 0 0 1.24.54l1.43.48c.49.17 1 .36 1.42.56a5 5 0 0 1 1.25.79 3.75 3.75 0 0 1 .88 1.16 4 4 0 0 1 .33 1.7 5.5 5.5 0 0 1-.36 2 4.51 4.51 0 0 1-1.06 1.62 5 5 0 0 1-1.7 1.13 6.41 6.41 0 0 1-2.3.39 7 7 0 0 1-2.87-.57 6.6 6.6 0 0 1-2.21-1.54l.63-1a.73.73 0 0 1 .22-.21.5.5 0 0 1 .29-.09.89.89 0 0 1 .54.26c.21.17.46.35.77.56a5.92 5.92 0 0 0 1.1.56 4.42 4.42 0 0 0 1.59.25 4.23 4.23 0 0 0 1.39-.21 3 3 0 0 0 1-.61 2.65 2.65 0 0 0 .65-.93 3.14 3.14 0 0 0 .23-1.21 2.08 2.08 0 0 0-.34-1.21 2.74 2.74 0 0 0-.87-.78 6.71 6.71 0 0 0-1.2-.66l-1.43-.45c-.48-.16-1-.34-1.42-.54a4.52 4.52 0 0 1-1.24-.79A3.58 3.58 0 0 1 18.7 14a4.32 4.32 0 0 1-.33-1.8 4.31 4.31 0 0 1 1.3-3.09 4.53 4.53 0 0 1 1.57-1 5.68 5.68 0 0 1 2.14-.38 7.05 7.05 0 0 1 2.48.43 5.72 5.72 0 0 1 1.95 1.25z" fill="#69ae8f" data-name="Layer 1"/></g></svg>