<svg xmlns="http://www.w3.org/2000/svg" viewBox="0 0 50 50"><defs><style>.cls-1{fill:#b0b0b0}</style></defs><g id="Layer_2" data-name="Layer 2"><g id="Layer_1-2" data-name="Layer 1"><path class="cls-1" d="M17.38 50a1 1 0 0 1-.69-.29l-4-4H6.84A6.84 6.84 0 0 1 0 38.87v-15A6.85 6.85 0 0 1 6.84 17h9.86a1 1 0 0 1 0 2H6.84A4.89 4.89 0 0 0 2 23.83v15a4.89 4.89 0 0 0 4.89 4.88h6.34a1 1 0 0 1 .9.59l2.33 2.33v-1.9a1 1 0 0 1 1-1h10.47a4.89 4.89 0 0 0 4.88-4.88v-6.72a1 1 0 0 1 2 0v6.74a6.84 6.84 0 0 1-6.84 6.83h-9.61V49a1 1 0 0 1-.6.91 1 1 0 0 1-.38.09z"/><path class="cls-1" d="M43.75 31.86a1 1 0 0 1-.69-.28l-3.65-3.65a14.5 14.5 0 0 1-3.6.46h-2.48a14.2 14.2 0 0 1 0-28.39h2.48A14.21 14.21 0 0 1 50 14.19a14.05 14.05 0 0 1-1.54 6.44 14.33 14.33 0 0 1-3.73 4.6v5.65a1 1 0 0 1-.61.91.94.94 0 0 1-.37.07zm-4.06-6a.94.94 0 0 1 .69.29l2.39 2.39v-3.78a1 1 0 0 1 .39-.78A12.24 12.24 0 0 0 35.81 2h-2.48a12.24 12.24 0 0 0 0 24.48h2.48a12.55 12.55 0 0 0 3.6-.53.92.92 0 0 1 .28-.1z"/><path class="cls-1" d="M34.84 18.24a1 1 0 0 1-1-1v-2.32a1.84 1.84 0 0 1 1.45-1.81A2.18 2.18 0 0 0 35 8.8a2.15 2.15 0 0 0-1.64.58 2.17 2.17 0 0 0-.7 1.6 1 1 0 0 1-1.95 0A4.18 4.18 0 0 1 32 8a4.14 4.14 0 1 1 3.8 7v2.27a1 1 0 0 1-.96.97zm0 3.86a1 1 0 0 1-1-1 1 1 0 0 1 .28-.69 1 1 0 0 1 .69-.29 1 1 0 0 1 1 1 1 1 0 0 1-1 1zm-7.98 10.13H6.25a1 1 0 1 1 0-2h20.61a1 1 0 0 1 0 2zm0 5.47a1 1 0 0 1-.69-.29 1 1 0 0 1 0-1.38 1 1 0 0 1 .69-.29 1 1 0 0 1 .69.29 1 1 0 0 1 0 1.38 1 1 0 0 1-.69.29zm-3.86 0H6.25a1 1 0 0 1 0-2H23a1 1 0 0 1 0 2zm-2.49-10.94H6.25a1 1 0 0 1 0-2h14.26a1 1 0 0 1 0 2z"/></g></g></svg>