<svg xmlns="http://www.w3.org/2000/svg" viewBox="0 0 16 21.33"><defs><style>.cls-1{fill:#fff}</style></defs><g id="Layer_2" data-name="Layer 2"><g id="Layer_1-2" data-name="Layer 1"><path class="cls-1" d="M10.67 0v5.33H16L10.67 0z"/><path class="cls-1" d="M9.33 5.33V0h-8A1.34 1.34 0 0 0 0 1.33V20a1.33 1.33 0 0 0 1.33 1.33h13.34A1.33 1.33 0 0 0 16 20V6.67h-5.33a1.34 1.34 0 0 1-1.34-1.34zM4.67 4.08v-.75a.67.67 0 0 1 1.33 0v.75a2.7 2.7 0 0 1 1.13.54.66.66 0 0 1-.84 1 1.56 1.56 0 0 0-1-.32c-.72 0-1.33.46-1.33 1s.61 1 1.33 1A2.53 2.53 0 0 1 8 9.67a2.41 2.41 0 0 1-2 2.25v.75a.67.67 0 0 1-1.33 0v-.75a2.7 2.7 0 0 1-1.13-.54.66.66 0 0 1-.1-.93.67.67 0 0 1 .94-.1 1.53 1.53 0 0 0 1 .32c.73 0 1.34-.46 1.34-1s-.61-1-1.34-1a2.52 2.52 0 0 1-2.71-2.34 2.41 2.41 0 0 1 2-2.25zm8 14.59H3.33a.67.67 0 0 1 0-1.34h9.34a.67.67 0 0 1 0 1.34zm0-2.67H3.33a.67.67 0 0 1 0-1.33h9.34a.67.67 0 0 1 0 1.33zm0-2.67H10A.67.67 0 1 1 10 12h2.67a.67.67 0 0 1 0 1.33zm.66-3.33a.67.67 0 0 1-.66.67H10a.67.67 0 0 1 0-1.34h2.67a.67.67 0 0 1 .66.67z"/></g></g></svg>