<svg xmlns="http://www.w3.org/2000/svg" viewBox="0 0 58.75 47"><defs><style>.cls-1{fill:#69ae8f}</style></defs><g id="Layer_2" data-name="Layer 2"><g id="Layer_1-2" data-name="Layer 1"><path class="cls-1" d="M57.31 1.44A4.71 4.71 0 0 0 53.85 0H4.9a4.71 4.71 0 0 0-3.46 1.44A4.71 4.71 0 0 0 0 4.9v37.2a4.71 4.71 0 0 0 1.44 3.46A4.71 4.71 0 0 0 4.9 47h49a4.92 4.92 0 0 0 4.9-4.9V4.9a4.71 4.71 0 0 0-1.44-3.46zm-2.48 40.67a1 1 0 0 1-1 1H4.9a1 1 0 0 1-1-1V23.5h50.93zm0-30.36H3.92V4.89a.9.9 0 0 1 .29-.68.91.91 0 0 1 .69-.29h49a1 1 0 0 1 1 1z"/><path class="cls-1" d="M7.83 35.25h7.83v3.92H7.83zm11.75 0h11.75v3.92H19.58z"/></g></g></svg>