<svg xmlns="http://www.w3.org/2000/svg" viewBox="0 0 30 30"><defs><style>.cls-2{fill:#303236}</style></defs><g id="Layer_2" data-name="Layer 2"><g id="Layer_1-2" data-name="Layer 1"><path d="M16.76 10.78H4.1A3.52 3.52 0 0 0 .59 14.3v9a3.52 3.52 0 0 0 3.51 3.54h3.76l2.57 2.57v-2.57h6.33a3.52 3.52 0 0 0 3.51-3.52v-9a3.52 3.52 0 0 0-3.51-3.54z" fill="#7cdbae"/><path class="cls-2" d="M10.43 30a.58.58 0 0 1-.41-.17l-2.41-2.41H4.1a4.11 4.11 0 0 1-4.1-4.1v-9a4.11 4.11 0 0 1 4.1-4.1H10a.59.59 0 0 1 .59.58.6.6 0 0 1-.59.59H4.1a2.93 2.93 0 0 0-2.93 2.91v9a2.93 2.93 0 0 0 2.93 2.95h3.81a.58.58 0 0 1 .54.35L9.84 28v-1.16a.58.58 0 0 1 .58-.59h6.33a2.93 2.93 0 0 0 2.93-2.93v-4a.59.59 0 1 1 1.17 0v4a4.11 4.11 0 0 1-4.1 4.1H11v2a.61.61 0 0 1-.37.55.54.54 0 0 1-.2.03z"/><path d="M21.48.59H20a7.93 7.93 0 0 0-7.93 7.93A7.93 7.93 0 0 0 20 16.45h1.48a8.18 8.18 0 0 0 2.34-.35l2.43 2.43v-3.68a7.89 7.89 0 0 0 3.16-6.33A7.93 7.93 0 0 0 21.48.59z" fill="#fff"/><path class="cls-2" d="M26.25 19.12a.58.58 0 0 1-.41-.17l-2.19-2.19a8.78 8.78 0 0 1-2.17.27H20A8.52 8.52 0 1 1 20 0h1.48A8.53 8.53 0 0 1 30 8.52a8.33 8.33 0 0 1-.93 3.86 8.65 8.65 0 0 1-2.23 2.76v3.39a.59.59 0 0 1-.37.54.54.54 0 0 1-.22.05zm-2.43-3.61a.58.58 0 0 1 .41.17l1.43 1.44v-2.27a.57.57 0 0 1 .24-.46 7.35 7.35 0 0 0-4.42-13.22H20a7.35 7.35 0 0 0 0 14.69h1.48a7.43 7.43 0 0 0 2.16-.32z"/><path d="M20.91 10.94a.58.58 0 0 1-.59-.58V9a1.12 1.12 0 0 1 .87-1.09 1.29 1.29 0 0 0 1-1.37A1.31 1.31 0 0 0 21 5.28a1.3 1.3 0 0 0-1.4 1.31.59.59 0 0 1-.59.58.58.58 0 0 1-.58-.58A2.48 2.48 0 1 1 21.49 9v1.36a.58.58 0 0 1-.58.58zm0 2.32a.59.59 0 0 1-.42-.17.58.58 0 0 1-.17-.41.58.58 0 0 1 .59-.59.58.58 0 0 1 .41.17.59.59 0 0 1 .17.42.58.58 0 0 1-.58.58z"/><path class="cls-2" d="M16.11 19.34H3.75a.59.59 0 0 1 0-1.18h12.36a.59.59 0 0 1 0 1.18zm0 3.28a.63.63 0 0 1-.41-.17.59.59 0 0 1-.17-.42.58.58 0 0 1 .58-.58.59.59 0 0 1 .42.17.58.58 0 0 1 .17.41.59.59 0 0 1-.17.42.63.63 0 0 1-.42.17zm-2.3 0H3.75a.6.6 0 0 1-.59-.62.59.59 0 0 1 .59-.58h10.06a.58.58 0 0 1 .58.58.59.59 0 0 1-.58.62zm-1.51-6.57H3.75a.59.59 0 0 1-.59-.58.6.6 0 0 1 .59-.59h8.55a.59.59 0 0 1 .59.59.58.58 0 0 1-.59.58z"/></g></g></svg>