<svg xmlns="http://www.w3.org/2000/svg" viewBox="0 0 42.15 37.2"><g data-name="Layer 2"><path d="M39.7 1.5a1.07 1.07 0 0 1 .95 1.07 1 1 0 0 1-.1.46l-.09.16-9.21 15.94-9.2 16v.07l-.05.09a1.06 1.06 0 0 1-1.79-.08v-.06l-9.21-16-9.26-16a1.06 1.06 0 0 1-.12-.5 1.07 1.07 0 0 1 1-1.07h30.66l-15.34 20.5c.37-1.25 2.43-5.35 2.29-6.42-.17-1.36-3.85-7.2-3.85-7.2H12.2a1.05 1.05 0 0 0-.87 1 1 1 0 0 0 .12.48v.17L18 22.38h6L36.21 1.5h3.49m.08-1.5H2.3a2.57 2.57 0 0 0-2 3.74v.12l9.25 16 4.93 8.53-.37 1.25.61-.82 4 7 .05.08.1.16a2.57 2.57 0 0 0 2.1 1.1 2.54 2.54 0 0 0 2.1-1.1l.12-.13.07-.2 9.13-15.82 9.37-15.97.09-.17a2.57 2.57 0 0 0 .26-1.13A2.55 2.55 0 0 0 39.86 0zM20.71 20.88l11.21-15-8.83 15zM13.07 10h2.48a42.89 42.89 0 0 1 3.18 5.85 16 16 0 0 1-1 2.81L13.07 10z" fill="#fff" data-name="Layer 1"/></g></svg>