<svg xmlns="http://www.w3.org/2000/svg" viewBox="0 0 182.82 42.1"><g data-name="Layer 2"><path d="M39.7 1.5a1.07 1.07 0 0 1 .95 1.07 1 1 0 0 1-.1.46l-.09.16-9.21 15.94-9.2 16v.07l-.05.09a1.06 1.06 0 0 1-1.79-.08v-.06l-9.21-16-9.26-16a1.06 1.06 0 0 1-.12-.5 1.07 1.07 0 0 1 1-1.07h30.66l-15.34 20.5c.37-1.25 2.43-5.35 2.29-6.42-.17-1.36-3.85-7.2-3.85-7.2H12.2a1.05 1.05 0 0 0-.87 1 1 1 0 0 0 .12.48v.17L18 22.38h6L36.21 1.5h3.49m.08-1.5H2.3a2.57 2.57 0 0 0-2 3.74v.12l9.25 16 4.93 8.53-.37 1.25.61-.82 4 7 .05.08.1.16a2.57 2.57 0 0 0 2.1 1.1 2.54 2.54 0 0 0 2.1-1.1l.12-.13.07-.2 9.13-15.82 9.37-15.97.09-.17a2.57 2.57 0 0 0 .26-1.13A2.55 2.55 0 0 0 39.86 0zM20.71 20.88l11.21-15-8.83 15zM13.07 10h2.48a42.89 42.89 0 0 1 3.18 5.85 16 16 0 0 1-1 2.81L13.07 10zM60 5.59v26.66c0 .57-.72 1.14-1.6 1.14s-1.56-.57-1.56-1.14V5.59c0-.65.65-1.11 1.56-1.11s1.6.46 1.6 1.11zm10.42 3a2 2 0 0 1-3.92 0 2 2 0 0 1 3.92 0zm-.34 7.88v15.78c0 .57-.72 1.14-1.6 1.14s-1.56-.57-1.56-1.14V16.47c0-.65.69-1.11 1.56-1.11s1.6.46 1.6 1.11zm17.76 5.89a4.11 4.11 0 0 0-4-4.37 4.17 4.17 0 0 0-4.07 4.45v9.81c0 .57-.73 1.14-1.6 1.14s-1.56-.57-1.56-1.14V16.47c0-.65.65-1.11 1.56-1.11s1.45.46 1.45 1.11V18a5.64 5.64 0 0 1 10.27.91 6.5 6.5 0 0 1 5.78-3.81c3.34 0 6.5 2.67 6.5 7.31v9.81c0 .57-.72 1.14-1.6 1.14s-1.56-.57-1.56-1.14v-9.78a4.11 4.11 0 0 0-4-4.45A4.18 4.18 0 0 0 91 22.32v10c0 .76-.8 1.1-1.6 1.1s-1.56-.34-1.56-1.1zm35-.23c0 3.05-1.68 3.16-3.39 3.16h-8.33v1.14c0 2.82 2.25 4.6 5.4 4.6 2.86 0 3.66-1.48 4.61-1.48a1.5 1.5 0 0 1 1.29 1.45c0 1-2.32 2.7-6 2.7-5 0-8.44-3-8.44-7.38v-4a7.44 7.44 0 0 1 7.56-7.19 7.13 7.13 0 0 1 7.3 7zm-4.68 1c1.33 0 1.67-.23 1.67-1.22a4.32 4.32 0 0 0-4.33-4.29 4.26 4.26 0 0 0-4.38 4.14v1.37zm8.63-5.87a2.62 2.62 0 0 1-.15-.6c0-.76 1.18-1.37 2-1.37a1 1 0 0 1 1 .61l4.84 12.93 4.75-12.78a1 1 0 0 1 1-.76c.72 0 2 .61 2 1.37a1.36 1.36 0 0 1-.15.6L136 33.05a1.62 1.62 0 0 1-1.44.69 1.53 1.53 0 0 1-1.49-.69zm23.4-.79V18a5.79 5.79 0 0 1 5.09-2.9 7.1 7.1 0 0 1 6.85 7.31v3.88c0 3.84-3.12 7.38-6.69 7.38a5.87 5.87 0 0 1-5.1-3V41c0 .57-.72 1.14-1.6 1.14s-1.56-.57-1.56-1.14V16.47c0-.65.65-1.11 1.52-1.11s1.49.46 1.49 1.11zm8.78 6a4.57 4.57 0 0 0-4.41-4.47 4.29 4.29 0 0 0-4.22 4.45v4.9c0 1 1.83 3.5 4.3 3.5a4.63 4.63 0 0 0 4.36-4.53zm12.21 9.78c0 .57-.76 1.14-1.59 1.14s-1.59-.57-1.59-1.14V16.47c0-.65.64-1.11 1.56-1.11.76 0 1.44.46 1.44 1.11V18a5.62 5.62 0 0 1 5.1-2.9c3.61 0 6.69 3.31 6.69 7.31v9.81c0 .76-.8 1.14-1.59 1.14s-1.56-.38-1.56-1.14v-9.78a4.56 4.56 0 0 0-4.31-4.44 4.26 4.26 0 0 0-4.15 4.45z" fill="#fff" data-name="Layer 1"/></g></svg>