<svg xmlns="http://www.w3.org/2000/svg" viewBox="0 0 313 124.5"><g data-name="Layer 2"><g data-name="Layer 1"><rect width="313" height="124.5" rx="3.44" ry="3.44" fill="#525453"/><path d="M99.53 33.88a1.82 1.82 0 0 1-.19.81l-.16.28L83 63.08 66.73 91.19l-.07.11-.09.16a1.86 1.86 0 0 1-3.15-.14l-.07-.1-16.28-28.14L30.74 34.8a1.85 1.85 0 0 1-.22-.88A1.89 1.89 0 0 1 32.19 32h54.89L59.65 68.8c.65-2.23 4.34-9.57 4.09-11.49-.3-2.42-6.88-12.87-6.89-12.87h-7.46a1.86 1.86 0 0 0-1.56 1.83 1.81 1.81 0 0 0 .22.87l11.6 21.66h10.42L91.68 32h6.16a1.89 1.89 0 0 1 1.69 1.88z" fill="#69ae8f"/><path d="M119.58 40.68v35.51c0 .76-1 1.52-2.13 1.52s-2.07-.76-2.07-1.52V40.68c0-.86.86-1.47 2.07-1.47s2.13.61 2.13 1.47zm13.88 4a2.62 2.62 0 1 1-2.58-2.38 2.53 2.53 0 0 1 2.58 2.38zM133 55.17v21c0 .76-1 1.52-2.12 1.52s-2.08-.76-2.08-1.52v-21c0-.86.91-1.47 2.08-1.47s2.12.61 2.12 1.47zM156.66 63c0-3.44-2.43-5.83-5.27-5.83a5.56 5.56 0 0 0-5.39 5.95v13.07c0 .76-1 1.52-2.13 1.52s-2.07-.76-2.07-1.52v-21c0-.86.86-1.47 2.07-1.47s1.93.61 1.93 1.47v2.08a7.57 7.57 0 0 1 6.74-3.85 7.47 7.47 0 0 1 6.93 5.06 8.69 8.69 0 0 1 7.7-5.06c4.46 0 8.67 3.54 8.67 9.72v13.05c0 .76-1 1.52-2.13 1.52s-2.08-.76-2.08-1.52V63.12c0-3.9-2.73-5.93-5.32-5.93a5.58 5.58 0 0 0-5.45 5.81v13.24c0 1-1.06 1.47-2.12 1.47s-2.08-.46-2.08-1.47zm46.6-.28c0 4-2.23 4.2-4.51 4.2h-11.09v1.52c0 3.75 3 6.13 7.19 6.13 3.8 0 4.86-2 6.13-2a2 2 0 0 1 1.72 1.93c0 1.32-3.09 3.6-8 3.6-6.59 0-11.25-4-11.25-9.83V63a9.91 9.91 0 0 1 10.08-9.57 9.48 9.48 0 0 1 9.73 9.29zM197 64.08c1.77 0 2.23-.3 2.23-1.62a5.76 5.76 0 0 0-5.78-5.72 5.66 5.66 0 0 0-5.82 5.52v1.82zm11.53-7.85a3.09 3.09 0 0 1-.2-.81c0-1 1.57-1.82 2.68-1.82a1.35 1.35 0 0 1 1.37.81l6.43 17.22 6.33-17a1.37 1.37 0 0 1 1.37-1c1 0 2.74.81 2.74 1.82a1.89 1.89 0 0 1-.21.81l-8.3 21a2.18 2.18 0 0 1-1.93.92 2 2 0 0 1-2-.92zm31.15-1.06v2.08a7.73 7.73 0 0 1 6.79-3.85c5.06 0 9.12 4.4 9.12 9.72v5.17c0 5.11-4.16 9.83-8.92 9.83a7.82 7.82 0 0 1-6.79-4v13.67c0 .76-1 1.52-2.12 1.52s-2.08-.76-2.08-1.52V55.17c0-.86.86-1.47 2-1.47s2 .61 2 1.47zm11.7 7.95a6.09 6.09 0 0 0-5.87-5.93 5.72 5.72 0 0 0-5.63 5.93v6.54c0 1.36 2.43 4.66 5.73 4.66a6.17 6.17 0 0 0 5.77-6zm16.26 13.07c0 .76-1 1.52-2.13 1.52s-2.07-.76-2.07-1.52v-21c0-.86.86-1.47 2.07-1.47 1 0 1.93.61 1.93 1.47v2.08a7.48 7.48 0 0 1 6.79-3.85c4.81 0 8.91 4.4 8.91 9.72v13.05c0 1-1.06 1.52-2.13 1.52s-2.07-.51-2.07-1.52V63.12a6.08 6.08 0 0 0-5.78-5.93 5.67 5.67 0 0 0-5.52 5.93z" fill="#fff"/></g></g></svg>