<svg xmlns="http://www.w3.org/2000/svg" viewBox="0 0 314 125.5"><g data-name="Layer 2"><g data-name="Layer 1"><rect x=".5" y=".5" width="313" height="124.5" rx="3.44" ry="3.44" fill="#fff" stroke="#69ae8f" stroke-miterlimit="10"/><path d="M103 33.38a1.82 1.82 0 0 1-.19.81l-.16.28-16.2 28.11-16.22 28.11-.07.11-.09.16a1.86 1.86 0 0 1-3.15-.14l-.07-.1-16.28-28.14L34.24 34.3a1.85 1.85 0 0 1-.22-.88 1.89 1.89 0 0 1 1.69-1.88h54.87L63.15 68.3c.65-2.23 4.34-9.57 4.09-11.49-.3-2.42-6.88-12.87-6.89-12.87h-7.46a1.86 1.86 0 0 0-1.56 1.83 1.81 1.81 0 0 0 .22.87l11.6 21.66h10.42l21.61-36.8h6.16a1.89 1.89 0 0 1 1.66 1.88z" fill="#69ae8f"/><path d="M123.08 40.18v35.51c0 .76-1 1.52-2.13 1.52s-2.07-.76-2.07-1.52V40.18c0-.86.86-1.47 2.07-1.47s2.13.61 2.13 1.47zm13.92 4a2.62 2.62 0 1 1-2.58-2.38 2.53 2.53 0 0 1 2.58 2.38zm-.46 10.49v21c0 .76-1 1.52-2.12 1.52s-2.08-.76-2.08-1.52v-21c0-.86.91-1.47 2.08-1.47s2.08.61 2.08 1.47zm23.62 7.85c0-3.44-2.43-5.83-5.27-5.83a5.56 5.56 0 0 0-5.42 5.93v13.07c0 .76-1 1.52-2.13 1.52s-2.07-.76-2.07-1.52v-21c0-.86.86-1.47 2.07-1.47s1.93.61 1.93 1.47v2.08A7.57 7.57 0 0 1 156 52.9a7.47 7.47 0 0 1 6.94 5.1 8.69 8.69 0 0 1 7.7-5.06c4.46 0 8.67 3.54 8.67 9.72v13.03c0 .76-1 1.52-2.13 1.52s-2.08-.76-2.08-1.52V62.62c0-3.9-2.73-5.93-5.32-5.93a5.58 5.58 0 0 0-5.42 5.78v13.27c0 1-1.06 1.47-2.12 1.47s-2.08-.46-2.08-1.47zm46.6-.3c0 4-2.23 4.2-4.51 4.2h-11.09v1.52c0 3.75 3 6.13 7.19 6.13 3.8 0 4.86-2 6.13-2A2 2 0 0 1 206.2 74c0 1.32-3.09 3.6-8 3.6-6.59 0-11.25-4-11.25-9.83v-5.3A9.91 9.91 0 0 1 197 52.9a9.48 9.48 0 0 1 9.76 9.32zm-6.23 1.36c1.77 0 2.23-.3 2.23-1.62a5.76 5.76 0 0 0-5.76-5.72 5.66 5.66 0 0 0-5.82 5.52v1.82zM212 55.73a3.09 3.09 0 0 1-.2-.81c0-1 1.57-1.82 2.68-1.82a1.35 1.35 0 0 1 1.37.81l6.43 17.22 6.33-17a1.37 1.37 0 0 1 1.37-1c1 0 2.74.81 2.74 1.82a1.89 1.89 0 0 1-.21.81l-8.3 21a2.18 2.18 0 0 1-1.93.92 2 2 0 0 1-2-.92zm31.18-1.06v2.08A7.73 7.73 0 0 1 250 52.9c5.06 0 9.12 4.4 9.12 9.72v5.17c0 5.11-4.16 9.83-8.92 9.83a7.82 7.82 0 0 1-6.79-4v13.67c0 .76-1 1.52-2.12 1.52s-2.08-.76-2.08-1.52V54.67c0-.86.86-1.47 2-1.47s1.97.61 1.97 1.47zm11.7 7.95a6.09 6.09 0 0 0-5.88-5.93 5.72 5.72 0 0 0-5.63 5.93v6.54c0 1.36 2.43 4.66 5.73 4.66a6.17 6.17 0 0 0 5.77-6zm16.26 13.07c0 .76-1 1.52-2.13 1.52s-2.07-.76-2.07-1.52v-21c0-.86.86-1.47 2.07-1.47 1 0 1.93.61 1.93 1.47v2.08a7.48 7.48 0 0 1 6.79-3.85c4.81 0 8.91 4.4 8.91 9.72v13.05c0 1-1.06 1.52-2.13 1.52s-2.07-.51-2.07-1.52V62.62a6.08 6.08 0 0 0-5.78-5.93 5.67 5.67 0 0 0-5.52 5.93z" fill="#525453"/></g></g></svg>