<svg xmlns="http://www.w3.org/2000/svg" viewBox="0 0 47 47"><defs><style>.cls-1{fill:#29B190;}</style></defs><title>Asset 2</title><g id="Layer_2" data-name="Layer 2"><g id="Layer_1-2" data-name="Layer 1"><path class="cls-1" d="M23.5,0A23.5,23.5,0,1,0,47,23.5,23.49,23.49,0,0,0,23.5,0Zm0,44.24A20.9,20.9,0,0,1,2.76,23.5,20.9,20.9,0,0,1,23.5,2.76,20.9,20.9,0,0,1,44.24,23.5,20.9,20.9,0,0,1,23.5,44.24Z"/><path class="cls-1" d="M30.41,22.12H24.88V16.59a1.38,1.38,0,1,0-2.76,0v5.53H16.59a1.38,1.38,0,1,0,0,2.76h5.53v5.53a1.38,1.38,0,1,0,2.76,0V24.88h5.53a1.38,1.38,0,1,0,0-2.76Z"/></g></g></svg>