<svg xmlns="http://www.w3.org/2000/svg" viewBox="0 0 47.36 29.63"><defs><style>.cls-1{isolation:isolate;}.cls-2{fill:#69ae8f;}.cls-3{mix-blend-mode:multiply;}</style></defs><title>Asset 10</title><g class="cls-1"><g id="Layer_2" data-name="Layer 2"><g id="Layer_1-2" data-name="Layer 1"><path class="cls-2" d="M16.56,11.45H45.49a1.87,1.87,0,0,0,0-3.74H16.56a1.87,1.87,0,1,0,0,3.74Z"/><path class="cls-2" d="M22.44,22.67h19a1.87,1.87,0,0,0,0-3.74H22.44a1.87,1.87,0,0,0,0,3.74Z"/><path class="cls-2" d="M19.73,16.9H43.5a1.87,1.87,0,0,0,0-3.74H19.73a1.87,1.87,0,0,0,0,3.74Z"/><g class="cls-3"><path class="cls-2" d="M16.24,11.42l27,5.44a1.87,1.87,0,1,0,.63-3.68l-27-5.44a1.87,1.87,0,0,0-.63,3.68Z"/></g><g class="cls-3"><path class="cls-2" d="M19.43,16.87l21.75,5.75a1.87,1.87,0,0,0,.63-3.68L20.06,13.19a1.87,1.87,0,1,0-.63,3.68Z"/></g><path class="cls-2" d="M1.87,3.74H13.76a1.87,1.87,0,1,0,0-3.74H1.87a1.87,1.87,0,0,0,0,3.74Z"/><path class="cls-2" d="M12.52,3.1l2.23,2.6a1.86,1.86,0,1,0,2.81-2.45L15.33.64A1.87,1.87,0,1,0,12.52,3.1Z"/><circle class="cls-2" cx="26.88" cy="26.65" r="2.99"/><circle class="cls-2" cx="37.26" cy="26.65" r="2.99"/></g></g></g></svg>