<svg xmlns="http://www.w3.org/2000/svg" viewBox="0 0 16 21.33"><defs><style>.cls-1{fill:#fff;}</style></defs><title>Asset 3</title><g id="Layer_2" data-name="Layer 2"><g id="Layer_1-2" data-name="Layer 1"><polygon class="cls-1" points="10.67 0 10.67 5.33 16 5.33 10.67 0"/><path class="cls-1" d="M9.33,5.33V0h-8A1.34,1.34,0,0,0,0,1.33V20a1.33,1.33,0,0,0,1.33,1.33H14.67A1.33,1.33,0,0,0,16,20V6.67H10.67A1.34,1.34,0,0,1,9.33,5.33ZM4.67,4.08V3.33A.67.67,0,0,1,6,3.33v.75a2.7,2.7,0,0,1,1.13.54.66.66,0,0,1-.84,1,1.56,1.56,0,0,0-1-.32c-.72,0-1.33.46-1.33,1s.61,1,1.33,1A2.53,2.53,0,0,1,8,9.67a2.41,2.41,0,0,1-2,2.25v.75a.67.67,0,0,1-1.33,0v-.75a2.7,2.7,0,0,1-1.13-.54.66.66,0,0,1-.1-.93.67.67,0,0,1,.94-.1,1.53,1.53,0,0,0,1,.32c.73,0,1.34-.46,1.34-1s-.61-1-1.34-1A2.52,2.52,0,0,1,2.67,6.33,2.41,2.41,0,0,1,4.67,4.08Zm8,14.59H3.33a.67.67,0,0,1,0-1.34h9.34a.67.67,0,0,1,0,1.34Zm0-2.67H3.33a.67.67,0,0,1,0-1.33h9.34a.67.67,0,0,1,0,1.33Zm0-2.67H10A.67.67,0,1,1,10,12h2.67a.67.67,0,0,1,0,1.33ZM13.33,10a.67.67,0,0,1-.66.67H10a.67.67,0,0,1,0-1.34h2.67A.67.67,0,0,1,13.33,10Z"/></g></g></svg>