<svg xmlns="http://www.w3.org/2000/svg" viewBox="0 0 35.3 38.54"><defs><style>.cls-1{fill:#fff;}</style></defs><title>Asset 2</title><g id="Layer_2" data-name="Layer 2"><g id="Layer_1-2" data-name="Layer 1"><circle class="cls-1" cx="17.65" cy="11.38" r="10.98"/><path class="cls-1" d="M17.65,22.75A11.38,11.38,0,1,1,29,11.38,11.38,11.38,0,0,1,17.65,22.75Zm0-22a10.6,10.6,0,1,0,10.59,10.6A10.6,10.6,0,0,0,17.65.78Z"/><path class="cls-1" d="M34.91,38.54a17.25,17.25,0,0,0-8.8-15,10.86,10.86,0,0,1-16.92,0,17.25,17.25,0,0,0-8.8,15"/><path class="cls-1" d="M35.3,38.54h-.78A16.91,16.91,0,0,0,26.2,24,11.24,11.24,0,0,1,9.11,24,16.9,16.9,0,0,0,.78,38.54H0A17.69,17.69,0,0,1,9,23.16L9.29,23l.21.25a10.46,10.46,0,0,0,16.31,0L26,23l.29.16A17.69,17.69,0,0,1,35.3,38.54Z"/><path class="cls-1" d="M25.47,16.16a8.5,8.5,0,0,1-7.82,4.95,8.51,8.51,0,0,1-7.82-4.95"/><path class="cls-1" d="M17.65,21.51a8.9,8.9,0,0,1-8.18-5.19l.72-.32a8.1,8.1,0,0,0,7.46,4.72A8.08,8.08,0,0,0,25.11,16l.72.32A8.88,8.88,0,0,1,17.65,21.51Z"/></g></g></svg>