<svg xmlns="http://www.w3.org/2000/svg" viewBox="0 0 84 84"><defs><style>.cls-1{fill:#e5906b;}.cls-2{fill:#e17452;}.cls-3{fill:#dbfafc;}.cls-4{fill:#fff;}.cls-5{fill:#9ee1ea;}.cls-6{fill:#f8e8b5;}.cls-7{fill:#edbc44;}.cls-8{fill:#f4d98c;}.cls-9{fill:#f1cb9c;}.cls-10{fill:#eaad82;}.cls-11{fill:#84cfdb;}.cls-12{fill:#bbf5f9;}</style></defs><title>Asset 1</title><g id="Layer_2" data-name="Layer 2"><g id="Layer_1-2" data-name="Layer 1"><path class="cls-1" d="M42,0A42,42,0,0,0,31.06,82.56l51.5-51.5A42,42,0,0,0,42,0Z"/><path class="cls-2" d="M20.09,71.58l11,11a42,42,0,0,0,51.5-51.5L63.91,12.42l-5.37,4.12-4.12-4.12-5.27,4.23-4.23-4.23L40.11,17.1l-4.68-4.68L30.54,17l-4.61-4.61-5.84,5.84,4.47,4.48-4.47,5,4.79,4.79Z"/><polygon class="cls-3" points="63.91 31.41 63.91 60.63 56.61 64.28 52.96 71.58 42 71.58 34.7 54.42 42 35.43 44.92 37.25 48.57 37.25 48.57 31.41 63.91 31.41"/><polygon class="cls-4" points="42 35.43 42 71.58 20.09 71.58 20.09 37.25 23.01 35.43 25.93 37.25 29.58 37.25 32.5 35.43 35.43 37.25 39.08 37.25 42 35.43"/><polygon class="cls-5" points="52.96 60.63 52.96 71.58 63.91 60.63 52.96 60.63"/><rect class="cls-6" x="20.09" y="12.42" width="5.84" height="5.84"/><rect class="cls-6" x="29.58" y="12.42" width="5.84" height="5.84"/><rect class="cls-6" x="48.57" y="12.42" width="5.84" height="5.84"/><rect class="cls-3" x="58.07" y="12.42" width="5.84" height="5.84"/><polygon class="cls-7" points="44.92 12.42 44.92 18.26 42 18.26 40.17 15.34 42 12.42 44.92 12.42"/><rect class="cls-8" x="39.08" y="12.42" width="2.92" height="5.84"/><rect class="cls-9" x="20.09" y="21.91" width="5.84" height="5.84"/><rect class="cls-3" x="29.58" y="21.91" width="5.84" height="5.84"/><rect class="cls-6" x="48.57" y="21.91" width="5.84" height="5.84"/><rect class="cls-10" x="58.07" y="21.91" width="5.84" height="5.84"/><polygon class="cls-1" points="44.92 21.91 44.92 27.76 42 27.76 40.17 24.84 42 21.91 44.92 21.91"/><rect class="cls-10" x="39.08" y="21.91" width="2.92" height="5.84"/><rect class="cls-11" x="20.09" y="31.41" width="5.84" height="5.84"/><rect class="cls-6" x="29.58" y="31.41" width="5.84" height="5.84"/><rect class="cls-1" x="48.57" y="40.9" width="5.84" height="5.84"/><polygon class="cls-12" points="44.92 31.41 44.92 37.25 42 37.25 40.17 34.33 42 31.41 44.92 31.41"/><rect class="cls-3" x="39.08" y="31.41" width="2.92" height="5.84"/><rect class="cls-9" x="29.58" y="40.9" width="5.84" height="5.84"/><rect class="cls-12" x="29.58" y="50.4" width="5.84" height="5.84"/><polygon class="cls-8" points="44.92 40.9 44.92 46.75 42 46.75 40.17 43.83 42 40.9 44.92 40.9"/><rect class="cls-6" x="39.08" y="40.9" width="2.92" height="5.84"/></g></g></svg>