<svg xmlns="http://www.w3.org/2000/svg" viewBox="0 0 30 30"><defs><style>.cls-1{fill:#7cdbae;}.cls-2{fill:#303236;}.cls-3{fill:#fff;}</style></defs><title>Asset 4</title><g id="Layer_2" data-name="Layer 2"><g id="Layer_1-2" data-name="Layer 1"><path class="cls-1" d="M16.76,10.78H4.1A3.52,3.52,0,0,0,.59,14.3v9A3.52,3.52,0,0,0,4.1,26.84H7.86l2.57,2.57V26.84h6.33a3.52,3.52,0,0,0,3.51-3.52v-9A3.52,3.52,0,0,0,16.76,10.78Z"/><path class="cls-2" d="M10.43,30a.58.58,0,0,1-.41-.17L7.61,27.42H4.1A4.11,4.11,0,0,1,0,23.32v-9a4.11,4.11,0,0,1,4.1-4.1H10a.59.59,0,0,1,.59.58.6.6,0,0,1-.59.59H4.1A2.93,2.93,0,0,0,1.17,14.3v9A2.93,2.93,0,0,0,4.1,26.25H7.91a.58.58,0,0,1,.54.35L9.84,28V26.84a.58.58,0,0,1,.58-.59h6.33a2.93,2.93,0,0,0,2.93-2.93v-4a.59.59,0,1,1,1.17,0v4a4.11,4.11,0,0,1-4.1,4.1H11v2a.61.61,0,0,1-.37.55A.54.54,0,0,1,10.43,30Z"/><path class="cls-3" d="M21.48.59H20a7.93,7.93,0,0,0-7.93,7.93h0A7.93,7.93,0,0,0,20,16.45h1.48a8.18,8.18,0,0,0,2.34-.35l2.43,2.43V14.85a7.89,7.89,0,0,0,3.16-6.33h0A7.93,7.93,0,0,0,21.48.59Z"/><path class="cls-2" d="M26.25,19.12a.58.58,0,0,1-.41-.17l-2.19-2.19a8.78,8.78,0,0,1-2.17.27H20A8.52,8.52,0,1,1,20,0h1.48A8.53,8.53,0,0,1,30,8.52a8.33,8.33,0,0,1-.93,3.86,8.65,8.65,0,0,1-2.23,2.76v3.39a.59.59,0,0,1-.37.54A.54.54,0,0,1,26.25,19.12Zm-2.43-3.61a.58.58,0,0,1,.41.17l1.43,1.44V14.85a.57.57,0,0,1,.24-.46A7.35,7.35,0,0,0,21.48,1.17H20a7.35,7.35,0,0,0,0,14.69h1.48a7.43,7.43,0,0,0,2.16-.32Z"/><path d="M20.91,10.94a.58.58,0,0,1-.59-.58V9a1.12,1.12,0,0,1,.87-1.09,1.29,1.29,0,0,0,1-1.37A1.31,1.31,0,0,0,21,5.28a1.3,1.3,0,0,0-1.4,1.31.59.59,0,0,1-.59.58.58.58,0,0,1-.58-.58A2.48,2.48,0,1,1,21.49,9v1.36A.58.58,0,0,1,20.91,10.94Z"/><path d="M20.91,13.26a.59.59,0,0,1-.42-.17.58.58,0,0,1-.17-.41.58.58,0,0,1,.59-.59.58.58,0,0,1,.41.17.59.59,0,0,1,.17.42.58.58,0,0,1-.58.58Z"/><path class="cls-2" d="M16.11,19.34H3.75a.59.59,0,0,1,0-1.18H16.11a.59.59,0,0,1,0,1.18Z"/><path class="cls-2" d="M16.11,22.62a.63.63,0,0,1-.41-.17.59.59,0,0,1-.17-.42.58.58,0,0,1,.58-.58.59.59,0,0,1,.42.17.58.58,0,0,1,.17.41.59.59,0,0,1-.17.42A.63.63,0,0,1,16.11,22.62Z"/><path class="cls-2" d="M13.81,22.62H3.75A.6.6,0,0,1,3.16,22a.59.59,0,0,1,.59-.58H13.81a.58.58,0,0,1,.58.58A.59.59,0,0,1,13.81,22.62Z"/><path class="cls-2" d="M12.3,16.05H3.75a.59.59,0,0,1-.59-.58.6.6,0,0,1,.59-.59H12.3a.59.59,0,0,1,.59.59A.58.58,0,0,1,12.3,16.05Z"/></g></g></svg>