<svg xmlns="http://www.w3.org/2000/svg" viewBox="0 0 84 84"><defs><style>.cls-1{fill:#77b9eb;}.cls-2{fill:#5492d3;}.cls-3{fill:#80e18c;}.cls-4{fill:#69b9b9;}.cls-5{fill:#f9ebb9;}.cls-6{fill:#f3d388;}</style></defs><title>Asset 1</title><g id="Layer_2" data-name="Layer 2"><g id="Layer_1-2" data-name="Layer 1"><path class="cls-1" d="M51.09,1l.82.19L51.09,1Z"/><path class="cls-1" d="M50.15.79l.45.09L50.15.79Z"/><path class="cls-1" d="M52.24,1.26l.55.14-.55-.14Z"/><path class="cls-1" d="M53.06,1.48c.67.18,1.33.37,2,.59-.65-.22-1.31-.41-2-.59Z"/><path class="cls-1" d="M43,0h0Z"/><path class="cls-1" d="M55.14,2.1l.68.23-.68-.23Z"/><path class="cls-1" d="M44,.05h0Z"/><path class="cls-1" d="M45.21.12h0Z"/><path class="cls-1" d="M48.34.48l.33.05L48.34.48Z"/><path class="cls-1" d="M36.1,32.85a7.67,7.67,0,0,1,4.24,1.28l3.6,2.38a2.83,2.83,0,0,0,2.43.32l6.47-2.16,1.08-1a3.1,3.1,0,0,0,1-2.3,3.19,3.19,0,0,0-.77-2l-6.84,2a.69.69,0,0,1-.67-.16L42.07,27a.69.69,0,0,0-.74-.13.72.72,0,0,0-.43.62l.39,3.11a.7.7,0,0,1-1.16.61l-3.81-3.38a3.49,3.49,0,0,0-4,.54l-1.22,3.06a2.79,2.79,0,0,1-.92,1.2l-1.94,1.45L34.75,33a7.7,7.7,0,0,1,1.35-.12Z"/><path class="cls-1" d="M55.85,2.34a42.28,42.28,0,0,1,9.44,4.71h0a42.1,42.1,0,0,1,8,6.88h0a42.53,42.53,0,0,1,3.52,4.5l.1.16c.43.63.84,1.28,1.23,1.93l.18.3c.29.51.58,1,.86,1.54h0A41.76,41.76,0,0,1,83.69,37a.76.76,0,0,1-.3,0L69.9,32.65l.63,2.8A2.1,2.1,0,0,0,73.24,37l1.56-.51a.68.68,0,0,1,.63.09.73.73,0,0,1,.29.57v3.81a4.88,4.88,0,0,1-2,3.93l-4,3.22a1.39,1.39,0,0,1-2-.25L61.25,39.2a5.59,5.59,0,0,0-2.71-2L56,36.4,66.59,50.16a4.91,4.91,0,0,0,3.48,1.12l2-.14a.75.75,0,0,1,.57.24.68.68,0,0,1,.17.59L72,56.48a.66.66,0,0,1-.21.38l-8.2,7.73L57.43,80.08a.71.71,0,0,1-.46.42,8.53,8.53,0,0,1-2.34.33,8.4,8.4,0,0,1-4.1-1.08,8.29,8.29,0,0,1-4-5.07,15.94,15.94,0,0,1-.7-3.49V65.35l-1-.37a13.29,13.29,0,0,1-5.57-4.05l-2.16-2.69-9.31,1.67a6.07,6.07,0,0,1-1.2.09A42,42,0,0,0,43.91,84c-.63,0-1.27,0-1.91,0A42,42,0,0,0,55.85,2.34Z"/><path class="cls-1" d="M46.16.2l.34,0-.34,0Z"/><path class="cls-1" d="M47.12.31l.34,0-.34,0Z"/><path class="cls-1" d="M54.54,26.27l2.18-1.61a1.57,1.57,0,0,0,.21-.24h0a1.4,1.4,0,0,0-1.93-2l-1.81,1.34H49.82a1.4,1.4,0,1,0,0,2.8H53.7a1.41,1.41,0,0,0,.84-.28Z"/><path class="cls-1" d="M49.25.62l.43.08L49.25.62Z"/><path class="cls-1" d="M62.16,24.94a1.41,1.41,0,0,0,.82-.27l.11-.09a1.45,1.45,0,0,0,.43-.78h0a1.43,1.43,0,0,0-.24-1.09L59.7,17.8a1.4,1.4,0,1,0-2.26,1.65L61,24.36a1.4,1.4,0,0,0,1.14.58Z"/><path class="cls-2" d="M26.66,60a6.15,6.15,0,0,1-2-.36,6.29,6.29,0,0,1-2.06-1.2l-.1-.1a1.29,1.29,0,0,1-.17-.16L22.18,58l-.13-.14-.18-.21-.09-.12-.26-.34-1-1.52a10.46,10.46,0,0,1-1.64-7.58s0-.07,0-.11l0-.12c0-.07,0-.15,0-.22s0,0,0,0a10.13,10.13,0,0,1,.63-2c.1-.21.2-.43.31-.64h0l2.15-4.14,0-1.45a4.89,4.89,0,0,1,3.46-4.79l-1.9-.53A3.49,3.49,0,0,1,21,30.93l-.1-1.87A3.5,3.5,0,0,1,24,25.39l1.86-.2V21.88a.7.7,0,0,1,.28-.56l5.57-4.2a3.44,3.44,0,0,0,.92-1.05l1-1.67-6.22,1.22a.68.68,0,0,1-.58-.15.7.7,0,0,1-.26-.54V13a6.27,6.27,0,0,1,2.35-4.9L37.68,1A.69.69,0,0,1,38.47,1l6.14,3.53a.69.69,0,0,0,.54.07.68.68,0,0,0,.42-.34L47.92.43h0A41.82,41.82,0,0,1,65.28,7.05h0a42.28,42.28,0,0,0-9.44-4.71h0l-.68-.23-.1,0c-.65-.22-1.31-.41-2-.59l-.27-.08-.55-.14-.33-.08L51.09,1,50.6.88,50.15.79,49.68.7,49.25.62,48.67.53,48.34.48,47.46.35l-.34,0L46.49.24l-.34,0-.8-.07h-.14L44.27.06H44l-.72,0H42a42,42,0,0,0,0,84c.64,0,1.28,0,1.91,0A42,42,0,0,1,26.66,60ZM19.81,15.39a1.39,1.39,0,0,1,1.92-.46L24,16.3a1.41,1.41,0,0,1,.63,1.5l-1,4.46a1.41,1.41,0,0,1-1.37,1.09l-.31,0a1.4,1.4,0,0,1-1.06-1.67l.78-3.48-1.39-.85a1.4,1.4,0,0,1-.46-1.93Z"/><path class="cls-3" d="M63.09,24.58l-.11.09.11-.09Z"/><path class="cls-3" d="M43.94,36.51l1.14.75,1.29-.43a2.83,2.83,0,0,1-2.43-.32Z"/><path class="cls-3" d="M53.7,26.55a1.41,1.41,0,0,0,.84-.28l2.18-1.61-2.18,1.61a1.41,1.41,0,0,1-.84.28Z"/><path class="cls-3" d="M77.72,32.09l.89,3.33L69.9,32.65l13.49,4.29a.76.76,0,0,0,.3,0,41.76,41.76,0,0,0-4.57-14.6L77.8,26.73a9.86,9.86,0,0,0-.08,5.36Z"/><path class="cls-3" d="M57.82,50.48l-.16.23A5.58,5.58,0,0,1,53,53.2H36.6a5.61,5.61,0,0,0-4.66,2.49l-2.64,4-1.44.26a6.3,6.3,0,0,1-3.2-.27,6.15,6.15,0,0,0,2,.36,6.07,6.07,0,0,0,1.2-.09l9.31-1.66,2.16,2.68A13.29,13.29,0,0,0,44.9,65l1,.37v5.84a15.94,15.94,0,0,0,.7,3.49,8.29,8.29,0,0,0,4,5.07,8.4,8.4,0,0,0,4.1,1.08A8.53,8.53,0,0,0,57,80.5a.71.71,0,0,0,.46-.42l6.13-15.49,8.2-7.73a.66.66,0,0,0,.21-.38L72.79,52a.68.68,0,0,0-.17-.59.71.71,0,0,0-.57-.23l-2,.13a4.91,4.91,0,0,1-3.48-1.12l-6-.9a2.8,2.8,0,0,0-2.74,1.22Z"/><path class="cls-3" d="M78.08,20.51l.18.3-.18-.3Z"/><path class="cls-3" d="M76.75,18.42l.1.16-.1-.16Z"/><path class="cls-3" d="M47.92.43H48A41.25,41.25,0,0,1,54.67,2l.46.16c.88.29,1.76.6,2.61.95l.85.37c.72.31,1.43.63,2.12,1,.32.16.64.32.95.49.65.35,1.28.7,1.91,1.08l.95.58c.24.15.47.32.71.48A42.05,42.05,0,0,0,27.89,34.18l.34-.06,1.94-1.45a2.79,2.79,0,0,0,.92-1.2l1.22-3.06a3.51,3.51,0,0,1,4-.54l3.81,3.38a.7.7,0,0,0,.79.1.71.71,0,0,0,.36-.71l-.39-3.11a.72.72,0,0,1,.43-.62.69.69,0,0,1,.74.13l4.59,4.2a.69.69,0,0,0,.67.16l6.84-2L50.4,30.49,50,29.86a2.71,2.71,0,0,1,.52-3.31h-.74a1.4,1.4,0,1,1,0-2.8h3.42l1.81-1.34a1.4,1.4,0,0,1,1.93,2l1.82-.61h1.82l.4.56-3.58-4.91a1.4,1.4,0,0,1,2.26-1.66l3.59,4.92a1.43,1.43,0,0,1,.24,1.09L66.31,23a5.61,5.61,0,0,0,3.43-2.71l3.49-6.39A42,42,0,0,0,47.92.42Z"/><path class="cls-4" d="M20.27,17.32l1.39.85-.78,3.48a1.4,1.4,0,0,0,1.06,1.67l.31,0a1.41,1.41,0,0,0,1.37-1.09l1-4.46A1.41,1.41,0,0,0,24,16.3l-2.24-1.37a1.4,1.4,0,0,0-1.46,2.39Z"/><path class="cls-4" d="M27.89,34.18A42.05,42.05,0,0,1,65.23,7.05l-.71-.48L63.57,6c-.63-.38-1.26-.73-1.91-1.08-.31-.17-.63-.33-.95-.49-.69-.35-1.4-.67-2.12-1l-.85-.37c-.85-.35-1.73-.66-2.61-.95L54.67,2A41.25,41.25,0,0,0,48,.44h-.07L45.57,4.24a.68.68,0,0,1-.42.34.69.69,0,0,1-.54-.07L38.47,1a.69.69,0,0,0-.79.06L28.92,8.11A6.27,6.27,0,0,0,26.57,13v1.92a.7.7,0,0,0,.26.54.68.68,0,0,0,.58.15l6.22-1.22-1,1.67a3.31,3.31,0,0,1-.92,1.05l-5.57,4.2a.7.7,0,0,0-.28.56v3.31l-1.86.2a3.5,3.5,0,0,0-3.13,3.67l.1,1.87a3.49,3.49,0,0,0,2.56,3.18l1.9.53Z"/><path class="cls-4" d="M18.87,51.59a10.36,10.36,0,0,1,0-3.47,10.46,10.46,0,0,0,1.64,7.58l-.2-.3a10.53,10.53,0,0,1-1.44-3.81Z"/><path class="cls-4" d="M18.88,48l0-.12,0,.12Z"/><path class="cls-4" d="M19,47.67v0Z"/><path class="cls-5" d="M21.52,57.22l-1-1.52Z"/><path class="cls-5" d="M19.59,45.66c.1-.21.2-.43.31-.64-.11.21-.21.43-.31.64Z"/><path class="cls-5" d="M19.9,45h0l2.15-4.14Z"/><path class="cls-5" d="M66.31,23l-2.78.77h0a1.45,1.45,0,0,1-.43.78l-.11.09a1.4,1.4,0,0,1-2-.31l-.4-.56H58.8L57,24.41h0a1.57,1.57,0,0,1-.21.24l-2.18,1.61a1.41,1.41,0,0,1-.83.28H50.56A2.72,2.72,0,0,0,50,29.86l.36.63,3.77-1.12a3.13,3.13,0,0,1,.77,2,3.1,3.1,0,0,1-1,2.3l-1.08,1-6.47,2.16-1.29.43-1.14-.75-3.6-2.38a7.67,7.67,0,0,0-4.24-1.28,7.5,7.5,0,0,0-1.34.12l-6.53,1.15-.34.06-2.42.46,2.43-.46A41.94,41.94,0,0,0,26.67,60a6.32,6.32,0,0,1-4.07-1.55,6.37,6.37,0,0,0,5.26,1.47l1.44-.26,2.64-4A5.61,5.61,0,0,1,36.6,53.2H53a5.62,5.62,0,0,0,4.66-2.49l.15-.23a2.82,2.82,0,0,1,2.75-1.22l6,.9L56,36.4l2.54.85a5.59,5.59,0,0,1,2.71,2l6.48,8.64a1.4,1.4,0,0,0,2,.25l4-3.22a4.88,4.88,0,0,0,2-3.93V37.13a.72.72,0,0,0-.29-.57.68.68,0,0,0-.63-.09L73.24,37a2.1,2.1,0,0,1-2.71-1.53l-.63-2.8,8.71,2.77-.89-3.33a9.86,9.86,0,0,1,.08-5.36l1.32-4.37h0c-.28-.52-.57-1-.86-1.54l-.18-.3c-.39-.65-.8-1.3-1.23-1.93l-.1-.16a42.53,42.53,0,0,0-3.52-4.5h0l-3.49,6.39A5.61,5.61,0,0,1,66.31,23Z"/><path class="cls-5" d="M22.33,58.18l.16.16-.16-.16Z"/><path class="cls-5" d="M21.78,57.56l.09.12-.09-.12Z"/><path class="cls-5" d="M22.05,57.89l.13.14-.13-.14Z"/><path class="cls-5" d="M18.87,51.59a10.53,10.53,0,0,0,1.44,3.81,10.53,10.53,0,0,1-1.44-3.81Z"/><path class="cls-6" d="M26.67,60A41.94,41.94,0,0,1,27.9,34.18l-2.43.46A4.89,4.89,0,0,0,22,39.43l0,1.45L19.9,45h0c-.11.21-.21.43-.31.64a10.13,10.13,0,0,0-.63,2v0c0,.07,0,.15,0,.22l0,.12s0,.07,0,.11a10.36,10.36,0,0,0,0,3.47,10.72,10.72,0,0,0,1.44,3.81l.2.3,1,1.52.26.34.09.12.18.21.13.14.15.15a1.29,1.29,0,0,0,.17.16l.1.1A6.32,6.32,0,0,0,26.67,60Z"/></g></g></svg>