<svg xmlns="http://www.w3.org/2000/svg" viewBox="0 0 83.24 53.35"><defs><style>.cls-1{fill:#5ca17b;}</style></defs><title>Asset 3</title><g id="Layer_2" data-name="Layer 2"><g id="Layer_1-2" data-name="Layer 1"><path id="path3228" class="cls-1" d="M0,50.37v-10H5A3.32,3.32,0,1,1,5,47H2.59v3.36Zm5.85-6.68c0-.68-.48-1.07-1.21-1.07H2.54v2.14h2.1C5.37,44.76,5.85,44.37,5.85,43.69Zm7.42,6.68v-.73a3,3,0,0,1-2.24.88,2.37,2.37,0,0,1-2.49-2.39A2.27,2.27,0,0,1,11,45.79a2.86,2.86,0,0,1,2.24.83v-.88c0-.64-.54-1-1.46-1a3.29,3.29,0,0,0-2.05.78L8.93,44a5.21,5.21,0,0,1,3.27-1.12c1.75,0,3.36.63,3.36,2.88v4.58Zm0-1.9v-.63A1.59,1.59,0,0,0,12,47.35c-.63,0-1.17.29-1.17.83S11.37,49,12,49A1.47,1.47,0,0,0,13.27,48.47Zm3.42,2.64a1.21,1.21,0,0,0,.58.14c.54,0,.88-.1,1-.39l.14-.39-2.87-7.32H18l1.61,4.59,1.66-4.59h2.44l-3.27,8.3c-.58,1.51-1.65,1.85-3.07,1.9a7.4,7.4,0,0,1-1-.1Zm16.54-.74V46a.9.9,0,0,0-1-1,1.77,1.77,0,0,0-1.32.68v4.68H28.64V46a.87.87,0,0,0-1-1,1.62,1.62,0,0,0-1.26.68v4.68H24.1V43.1h2.3V44a3.06,3.06,0,0,1,2.39-1.07,2,2,0,0,1,2.05,1.27,3.07,3.07,0,0,1,2.48-1.27,2,2,0,0,1,2.2,2.19v5.27Zm3-3.66a3.76,3.76,0,0,1,3.86-3.8c2.14,0,3.7,1.56,3.7,4.05v.49H38.64a1.71,1.71,0,0,0,1.81,1.26,3.12,3.12,0,0,0,1.8-.63l1,1.42a4.8,4.8,0,0,1-3,1,3.66,3.66,0,0,1-4-3.76Zm3.86-2a1.38,1.38,0,0,0-1.47,1.22h3A1.4,1.4,0,0,0,40.11,44.71Zm9.31,5.66V46.18A1.07,1.07,0,0,0,48.25,45a2,2,0,0,0-1.41.68v4.73H44.55V43.1h2.29V44a3.31,3.31,0,0,1,2.49-1.07,2.13,2.13,0,0,1,2.39,2.29v5.17Zm3.91-1.95V45.15H52.11v-2h1.22v-2h2.29v2h1.46v2H55.62v2.64a.64.64,0,0,0,.64.73.91.91,0,0,0,.58-.2l.44,1.76a2.47,2.47,0,0,1-1.71.49,2,2,0,0,1-2.24-2.15Zm11.46,1.95-1.36-4.48-1.37,4.48H59.57l-2.14-7.22h2.39L61,47.59l1.41-4.44h2.05l1.42,4.44L67,43.15h2.39l-2.15,7.22Zm9.27,0v-.73a2.94,2.94,0,0,1-2.24.88,2.37,2.37,0,0,1-2.49-2.39,2.27,2.27,0,0,1,2.49-2.34,2.86,2.86,0,0,1,2.24.83v-.88c0-.64-.53-1-1.46-1a3.31,3.31,0,0,0-2,.78L69.72,44A5.23,5.23,0,0,1,73,42.91c1.76,0,3.37.63,3.37,2.88v4.58Zm0-1.9v-.63a1.59,1.59,0,0,0-1.27-.49c-.63,0-1.17.29-1.17.83s.54.83,1.17.83A1.47,1.47,0,0,0,74.06,48.47Zm3.52,1.9v-10h2.29v10Zm3.36,0v-10h2.3v10Z"/><g id="g3236"><path id="path3230" class="cls-1" d="M52.77,32.91l3.61-9.72H69.7l3.6,9.72Zm-21.15,0,3.6-9.72H48.54l3.61,9.72Zm10.65-11.6,3.45-9.71H59l3.61,9.71Zm-21.47,0,3.61-9.71H37.73l3.45,9.71ZM10.15,32.91l3.6-9.72H27.07l3.61,9.72Z"/><g id="g3234"><path id="path3232" class="cls-1" d="M31.62,9.87,35.22,0H48.39L52,9.87Z"/></g></g></g></g></svg>