<svg xmlns="http://www.w3.org/2000/svg" viewBox="0 0 18.64 16.28"><defs><style>.cls-1{fill:#fff;}</style></defs><title>Asset 1</title><g id="Layer_2" data-name="Layer 2"><g id="Layer_1-2" data-name="Layer 1"><path class="cls-1" d="M18.64.51a.54.54,0,0,1-.05.22l0,.07L14.16,8.39,9.78,16h0l0,0,0,.05a.48.48,0,0,1-.41.21A.52.52,0,0,1,8.88,16h0l0,0L4.48,8.39.06.76h0A.5.5,0,0,1,0,.51.51.51,0,0,1,.46,0H15.28L7.87,9.94A18.49,18.49,0,0,0,9,6.84,21.32,21.32,0,0,0,7.12,3.36h-2a.5.5,0,0,0-.42.49.48.48,0,0,0,.06.24h0L7.87,9.94h2.82L16.52,0h1.67A.51.51,0,0,1,18.64.51Z"/></g></g></svg>