<svg xmlns="http://www.w3.org/2000/svg" viewBox="0 0 50.83 34.33"><defs><style>.cls-1{fill:#80bda9;}.cls-2{fill:#979797;}.cls-3{fill:#fff;}.cls-4{fill:#aad4c8;}</style></defs><title>Asset 10</title><g id="Layer_2" data-name="Layer 2"><g id="Layer_1-2" data-name="Layer 1"><path class="cls-1" d="M4.51,8.87,4.36,9a.67.67,0,0,0,0,.93L6,11.65a.64.64,0,0,0,.73.15,14.31,14.31,0,0,1,11.64.06.64.64,0,0,0,.71-.12l1.77-1.68a.68.68,0,0,0,.2-.57A.66.66,0,0,0,20.69,9,17.94,17.94,0,0,0,4.51,8.87Z"/><path class="cls-2" d="M.32,3.33.2,3.42a.65.65,0,0,0,0,.92L1.81,6.06a.64.64,0,0,0,.78.12,20.14,20.14,0,0,1,20.21.24.65.65,0,0,0,.78-.09L25.3,4.7a.64.64,0,0,0,.2-.54.66.66,0,0,0-.3-.49A23.87,23.87,0,0,0,.32,3.33Z"/><rect class="cls-3" x="6.42" y="27.94" width="31.06" height="1.6"/><rect class="cls-3" x="40.38" y="29.82" width="7.52" height="0.57"/><rect class="cls-1" x="40.38" y="26.29" width="3.8" height="1.99"/><rect class="cls-4" x="44.18" y="26.29" width="3.72" height="1.99"/><path class="cls-2" d="M4.55,23.16a1.68,1.68,0,0,0-1.67,1.68v7.81a1.68,1.68,0,0,0,1.67,1.68h44.6a1.68,1.68,0,0,0,1.68-1.68V24.84a1.68,1.68,0,0,0-1.68-1.68H13.36V18.63a2.78,2.78,0,1,0-1.63,0v4.53Zm35.83,3.13h7.53v2H40.38Zm0,3.53h7.53v.57H40.38ZM11.1,16a1.48,1.48,0,1,1,1.48,1.47A1.47,1.47,0,0,1,11.1,16Zm26.39,12v1.61H6.42V27.94Z"/><path class="cls-4" d="M11.1,16a1.48,1.48,0,1,0,1.48-1.47A1.47,1.47,0,0,0,11.1,16Z"/></g></g></svg>