<svg xmlns="http://www.w3.org/2000/svg" viewBox="0 0 48.03 23.9"><defs><style>.cls-1{fill:#979797;}</style></defs><title>Asset 6</title><g id="Layer_2" data-name="Layer 2"><g id="Layer_1-2" data-name="Layer 1"><path class="cls-1" d="M4.11,2.07a1.75,1.75,0,0,1-.17.79,2.23,2.23,0,0,1-.45.65A2,2,0,0,1,2.84,4a2,2,0,0,1-.8.16A1.85,1.85,0,0,1,1.26,4a1.92,1.92,0,0,1-.65-.44,2.23,2.23,0,0,1-.45-.65A1.89,1.89,0,0,1,0,2.07a2,2,0,0,1,.16-.8A2.15,2.15,0,0,1,.61.61,2.1,2.1,0,0,1,1.26.16,1.85,1.85,0,0,1,2,0a2,2,0,0,1,.8.16,2.23,2.23,0,0,1,.65.45,2.15,2.15,0,0,1,.45.66A1.86,1.86,0,0,1,4.11,2.07ZM3.47,7.23V23.64H.58V7.23Z"/><path class="cls-1" d="M30.57,12a13.36,13.36,0,0,1-.83,4.78,10.72,10.72,0,0,1-2.33,3.75A10.24,10.24,0,0,1,23.79,23a12.18,12.18,0,0,1-4.67.87A12.1,12.1,0,0,1,14.45,23a10.3,10.3,0,0,1-3.61-2.44,10.72,10.72,0,0,1-2.33-3.75A13.15,13.15,0,0,1,7.68,12a13.2,13.2,0,0,1,.83-4.79,11,11,0,0,1,2.33-3.76A10.46,10.46,0,0,1,14.45,1,11.92,11.92,0,0,1,19.12.16,12,12,0,0,1,23.79,1a10.4,10.4,0,0,1,3.62,2.45,11,11,0,0,1,2.33,3.76A13.42,13.42,0,0,1,30.57,12Zm-3.22,0a11.73,11.73,0,0,0-.59-3.84,8.12,8.12,0,0,0-1.65-2.88,7.19,7.19,0,0,0-2.59-1.8,8.66,8.66,0,0,0-3.4-.64,8.61,8.61,0,0,0-3.39.64,7.32,7.32,0,0,0-2.6,1.8A8,8,0,0,0,11.47,8.2,11.74,11.74,0,0,0,10.89,12a11.72,11.72,0,0,0,.58,3.83,8.12,8.12,0,0,0,1.66,2.87,7.17,7.17,0,0,0,2.6,1.79,8.79,8.79,0,0,0,3.39.63,8.84,8.84,0,0,0,3.4-.63,7,7,0,0,0,2.59-1.79,8.25,8.25,0,0,0,1.65-2.87A11.71,11.71,0,0,0,27.35,12Z"/><path class="cls-1" d="M46.75,4.05a1.24,1.24,0,0,1-.3.36.65.65,0,0,1-.43.13,1.19,1.19,0,0,1-.64-.28,10.47,10.47,0,0,0-.92-.61,7.34,7.34,0,0,0-1.34-.6,5.66,5.66,0,0,0-1.91-.28,5.87,5.87,0,0,0-1.86.28A4,4,0,0,0,38,3.82,3.2,3.2,0,0,0,37.18,5a3.66,3.66,0,0,0-.28,1.41A2.64,2.64,0,0,0,37.38,8a4.14,4.14,0,0,0,1.27,1.09,9.44,9.44,0,0,0,1.78.78l2,.69c.7.24,1.38.51,2,.8a7.38,7.38,0,0,1,1.78,1.13,5,5,0,0,1,1.27,1.67A5.69,5.69,0,0,1,48,16.59a8,8,0,0,1-.51,2.86A6.73,6.73,0,0,1,46,21.77a7.05,7.05,0,0,1-2.45,1.56,8.9,8.9,0,0,1-3.29.57,10.19,10.19,0,0,1-4.11-.82A9.86,9.86,0,0,1,33,20.87l.91-1.49a1.14,1.14,0,0,1,.32-.3.67.67,0,0,1,.41-.13,1.31,1.31,0,0,1,.78.37,12.5,12.5,0,0,0,1.09.8,8.41,8.41,0,0,0,1.59.8,6.1,6.1,0,0,0,2.27.37,6.17,6.17,0,0,0,2-.31,4.26,4.26,0,0,0,1.48-.87,3.9,3.9,0,0,0,.93-1.33A4.42,4.42,0,0,0,45.08,17a2.89,2.89,0,0,0-.47-1.72,3.94,3.94,0,0,0-1.26-1.13,9,9,0,0,0-1.77-.77c-.67-.21-1.35-.42-2-.65a17.83,17.83,0,0,1-2-.77,6.66,6.66,0,0,1-1.78-1.13,5,5,0,0,1-1.25-1.74A6.21,6.21,0,0,1,34,6.54a6.22,6.22,0,0,1,1.86-4.42A6.71,6.71,0,0,1,38.09.7,8.2,8.2,0,0,1,41.16.16a9.83,9.83,0,0,1,3.55.62,8.15,8.15,0,0,1,2.81,1.78Z"/></g></g></svg>