<svg xmlns="http://www.w3.org/2000/svg" viewBox="0 0 24.02 20.11"><defs><style>.cls-1{fill:#fff;}</style></defs><title>Asset 5</title><g id="Layer_2" data-name="Layer 2"><g id="Layer_1-2" data-name="Layer 1"><path class="cls-1" d="M15.27,20.11a7.6,7.6,0,0,0-3.9-6.65,4.8,4.8,0,0,1-7.48,0A7.61,7.61,0,0,0,0,20.11"/><path class="cls-1" d="M7.63,3.23a4.86,4.86,0,1,0,4.86,4.86A4.86,4.86,0,0,0,7.63,3.23Zm0,9.17a3.76,3.76,0,0,1-3.46-2.19h6.92A3.75,3.75,0,0,1,7.63,12.4Z"/><path class="cls-1" d="M13.9,7h4.49a3.77,3.77,0,0,1-3.46,2.2A4,4,0,0,1,13.72,9a4.51,4.51,0,0,1-.17.52,4.84,4.84,0,1,0-2.68-7.3A5.93,5.93,0,0,1,13.9,7Z"/><path class="cls-1" d="M12.83,12a7.6,7.6,0,0,1,3.74,5.19H24a7.62,7.62,0,0,0-3.89-6.65,4.85,4.85,0,0,1-3.74,1.79,4.74,4.74,0,0,1-3-1.06"/></g></g></svg>