<svg xmlns="http://www.w3.org/2000/svg" viewBox="0 0 20.27 20.27"><defs><style>.cls-1{fill:#69ae8f;}</style></defs><title>Asset 1</title><g id="Layer_2" data-name="Layer 2"><g id="Layer_1-2" data-name="Layer 1"><path class="cls-1" d="M19.72,17l-4.66-4.65a9,9,0,0,1-2.68,2.68L17,19.72A1.9,1.9,0,0,0,19.72,17Z"/><path class="cls-1" d="M15.2,7.6a7.6,7.6,0,1,0-7.6,7.6,7.6,7.6,0,0,0,7.6-7.6ZM7.6,13.3a5.7,5.7,0,1,1,5.7-5.7,5.7,5.7,0,0,1-5.7,5.7Z"/><path class="cls-1" d="M3.17,7.6H4.43A3.18,3.18,0,0,1,7.6,4.43V3.17A4.44,4.44,0,0,0,3.17,7.6Z"/></g></g></svg>