<svg xmlns="http://www.w3.org/2000/svg" viewBox="0 0 40.65 35.5"><defs><style>.cls-1{fill:#69ae8f;}</style></defs><title>Asset 5</title><g id="Layer_2" data-name="Layer 2"><g id="Layer_1-2" data-name="Layer 1"><path class="cls-1" d="M40.65,1.11a1.13,1.13,0,0,1-.11.48l-.09.16L30.89,18.3,21.33,34.86h0l0,.07-.05.09A1.11,1.11,0,0,1,19.37,35v0l0-.06L9.76,18.3.14,1.65v0A1.14,1.14,0,0,1,0,1.11,1.12,1.12,0,0,1,1,0H33.32L17.16,21.67c.39-1.31,2.56-5.63,2.41-6.76-.17-1.43-4.05-7.59-4.05-7.58h-4.4a1.1,1.1,0,0,0-.92,1.08,1.07,1.07,0,0,0,.13.51V9h0l6.81,12.69H23.3L36,0h3.63A1.12,1.12,0,0,1,40.65,1.11Z"/></g></g></svg>