<svg xmlns="http://www.w3.org/2000/svg" viewBox="0 0 108.39 65.58"><defs><style>.cls-1{fill:#69ae8f;}</style></defs><title>Asset 5</title><g id="Layer_2" data-name="Layer 2"><g id="Layer_1-2" data-name="Layer 1"><path class="cls-1" d="M108.31,4.86A4.87,4.87,0,0,0,103.44,0h0L4.86.14A4.87,4.87,0,0,0,0,5l.08,55.7A4.87,4.87,0,0,0,5,65.58H5l98.57-.14a4.88,4.88,0,0,0,4.87-4.87Zm-10.22,0L54.2,35.39,10.22,5Zm-25.6,35.4,26.18,20.3-89,.12L36,40.28a2.44,2.44,0,1,0-3-3.85l-28,21.75-.07-51,48,33.14a2.47,2.47,0,0,0,1.38.43,2.44,2.44,0,0,0,1.39-.44L103.44,7.09l.08,51.08-28-21.74a2.44,2.44,0,0,0-3,3.85Z"/><path class="cls-1" d="M48.5,17.94l3.83-3.42V26.8a1.59,1.59,0,1,0,3.18,0V14.52l3.84,3.42a1.59,1.59,0,0,0,1.06.41,1.59,1.59,0,0,0,1.06-2.78l-5.8-5.18a2.63,2.63,0,0,0-3.5,0l-5.8,5.18a1.59,1.59,0,1,0,2.13,2.37Z"/></g></g></svg>