<svg xmlns="http://www.w3.org/2000/svg" xmlns:xlink="http://www.w3.org/1999/xlink" viewBox="0 0 48.79 48.79"><defs><style>.cls-1{isolation:isolate;}.cls-2{fill:#e4e4e4;}.cls-3{fill:url(#radial-gradient);}.cls-4,.cls-5{fill:#fff;}.cls-4{opacity:0.1;mix-blend-mode:screen;}</style><radialGradient id="radial-gradient" cx="37.8" cy="9.38" r="34.94" gradientUnits="userSpaceOnUse"><stop offset="0.07" stop-color="#7bbeb6"/><stop offset="0.28" stop-color="#76b7b5"/><stop offset="0.57" stop-color="#66a5b3"/><stop offset="0.91" stop-color="#4d86af"/><stop offset="0.93" stop-color="#4c85af"/></radialGradient></defs><title>Asset 4</title><g class="cls-1"><g id="Layer_2" data-name="Layer 2"><g id="Layer_1-2" data-name="Layer 1"><circle class="cls-2" cx="24.39" cy="24.39" r="24.39" transform="translate(-4.34 43.49) rotate(-78.61)"/><path class="cls-3" d="M46.91,24.39a22.5,22.5,0,1,1-2-9.24A22.52,22.52,0,0,1,46.91,24.39Z"/><ellipse class="cls-4" cx="24.39" cy="15.15" rx="20.54" ry="13.27"/><path class="cls-5" d="M33.68,18.81s1.84-1.48,2-2.7a7.88,7.88,0,0,1-3.11,1.19,4.92,4.92,0,0,0-4.91-1.37c-3.2.76-3.87,4.33-3.49,5.76a14.24,14.24,0,0,1-10.09-5.06,4.92,4.92,0,0,0,1.6,6.54s-1.83-.11-2.24-.58a4.85,4.85,0,0,0,4,4.83,5.54,5.54,0,0,1-2.27.2,5.08,5.08,0,0,0,4.6,3.29A10.31,10.31,0,0,1,12.4,33a13.66,13.66,0,0,0,10.29,1.94c.29-.06.57-.13.86-.21a14.47,14.47,0,0,0,8.83-7.13c.12-.23.23-.47.34-.72A13.47,13.47,0,0,0,34,20.53a9.29,9.29,0,0,0,2.44-2.48A10.19,10.19,0,0,1,33.68,18.81Z"/></g></g></g></svg>