<svg xmlns="http://www.w3.org/2000/svg" xmlns:xlink="http://www.w3.org/1999/xlink" viewBox="0 0 37.19 37.33"><defs><style>.cls-1{fill:#c4332d;}.cls-2{fill:#f2d733;}.cls-3{fill:#80b254;}.cls-4{fill:#7ba850;}.cls-5{fill:#fff;}.cls-6{fill:url(#linear-gradient);}.cls-7{fill:#e5cc30;}.cls-8{fill:#ba332c;}</style><linearGradient id="linear-gradient" x1="18.5" y1="11.97" x2="18.5" y2="25.28" gradientUnits="userSpaceOnUse"><stop offset="0" stop-color="#96bae3"/><stop offset="1" stop-color="#3f6cae"/></linearGradient></defs><title>Asset 8</title><g id="Layer_2" data-name="Layer 2"><g id="Layer_1-2" data-name="Layer 1"><path class="cls-1" d="M18.55,0A19,19,0,0,1,35.32,10.53H17.61s-3.34-.11-6.19,4a8.26,8.26,0,0,0-.71,6.9C9.28,19,3.14,8.28,3.14,8.28S7.47.44,18.55,0Z"/><path class="cls-2" d="M34.75,28a19.05,19.05,0,0,1-17.5,9.26L26.1,21.91s1.77-2.84-.32-7.34a8.28,8.28,0,0,0-5.62-4.07c2.8,0,15.13,0,15.13,0S39.91,18.17,34.75,28Z"/><path class="cls-3" d="M2.42,28.05A19,19,0,0,1,3.15,8.26L12,23.6s1.58,2.95,6.52,3.39a8.29,8.29,0,0,0,6.34-2.83c-1.38,2.44-7.57,13.1-7.57,13.1S8.34,37.42,2.42,28.05Z"/><path class="cls-4" d="M17.25,37.33l2.49-10.39a8.36,8.36,0,0,0,5-2.73C23.35,26.71,17.25,37.33,17.25,37.33Z"/><path class="cls-5" d="M10.21,18.78a8.3,8.3,0,1,1,8.29,8.3A8.29,8.29,0,0,1,10.21,18.78Z"/><path class="cls-6" d="M11.59,18.78a6.91,6.91,0,1,1,6.91,6.91A6.92,6.92,0,0,1,11.59,18.78Z"/><path class="cls-7" d="M35.29,10.5,25,13.51a8.35,8.35,0,0,0-4.87-3Z"/><path class="cls-8" d="M10.51,21C9.07,18.51,3.14,8.28,3.14,8.28l7.6,7.52a7.42,7.42,0,0,0-.48,3.9Z"/></g></g></svg>