<svg xmlns="http://www.w3.org/2000/svg" viewBox="0 0 72 72"><defs><style>.cls-1{fill:#69ae8f;}</style></defs><title>Asset 3</title><g id="Layer_2" data-name="Layer 2"><g id="Layer_1-2" data-name="Layer 1"><path class="cls-1" d="M36,0A36,36,0,0,0,0,36V69.19A2.81,2.81,0,0,0,2.81,72H36A36,36,0,0,0,36,0Zm0,66.38H5.62V36A30.38,30.38,0,1,1,36,66.38ZM38.67,52a3.81,3.81,0,0,1-3.77,3.77A3.77,3.77,0,1,1,38.67,52ZM46,27.78c0,4.6-4.17,7.94-5.49,9-2.7,2.1-2.75,3.57-2.75,6.12,0,.93-.49,2-2.89,2-2,0-2.7-.73-2.7-3.28a9,9,0,0,1,3.29-7.45c1.61-1.37,4.36-2.89,4.36-5.54,0-2.26-2-3.33-4.41-3.33-5,0-3.92,3.77-6.57,3.77a2.81,2.81,0,0,1-2.94-2.79c0-2.65,3-6.57,9.65-6.57C41.81,19.69,46,23.17,46,27.78Z"/></g></g></svg>