<svg xmlns="http://www.w3.org/2000/svg" viewBox="0 0 70.23 40.4"><defs><style>.cls-1{fill:#69ae8f;}</style></defs><title>Asset 2</title><g id="Layer_2" data-name="Layer 2"><g id="Layer_1-2" data-name="Layer 1"><polygon class="cls-1" points="48.47 40.39 35.35 32.62 22.23 40.4 25.56 25.52 14.11 15.45 29.29 14.02 35.33 0.02 41.38 14.02 56.57 15.43 45.12 25.51 48.47 40.39"/><polygon class="cls-1" points="52.88 3.7 49.45 11.67 56.62 12.34 52.88 3.7 52.88 3.7"/><polygon class="cls-1" points="17.33 3.7 13.58 12.41 13.88 12.38 20.8 11.73 17.33 3.7 17.33 3.7"/><polygon class="cls-1" points="9.5 15.41 0 16.3 9.36 24.53 6.63 36.68 17.34 30.33 20.92 32.45 22.23 26.6 12.14 17.73 9.5 15.41 9.5 15.41"/><polygon class="cls-1" points="61.21 15.45 58.64 17.71 48.56 26.59 49.81 32.16 52.9 30.33 63.62 36.67 60.88 24.52 70.23 16.29 61.21 15.45 61.21 15.45"/><path class="cls-1" d="M35.38.64,41.2,14.1l.06.14h.15L56,15.61,45,25.3l-.11.1,0,.15,3.22,14.3L35.53,32.38l-.13-.07-.13.07L22.66,39.86l3.21-14.3,0-.15-.12-.1-11-9.68,14.6-1.37h.15l.06-.14L35.38.64m0-.64-6,14L14.16,15.43,25.62,25.5,22.28,40.39,35.4,32.6l13.12,7.77L45.17,25.49,56.62,15.41,41.43,14l-6-14Z"/></g></g></svg>