<svg xmlns="http://www.w3.org/2000/svg" viewBox="0 0 30.76 36.93"><defs><style>.cls-1{fill:#73ac57;}.cls-2{fill:#f9f9f9;}</style></defs><title>Asset 7</title><g id="Layer_2" data-name="Layer 2"><g id="Layer_1-2" data-name="Layer 1"><path class="cls-1" d="M2.31,12.31A2.31,2.31,0,0,0,0,14.62V25.39a2.31,2.31,0,1,0,4.61,0V14.62A2.31,2.31,0,0,0,2.31,12.31Z"/><path class="cls-1" d="M28.46,12.31a2.31,2.31,0,0,0-2.31,2.31V25.39a2.31,2.31,0,1,0,4.61,0V14.62A2.31,2.31,0,0,0,28.46,12.31Z"/><path class="cls-1" d="M23.84,12.31H6.92a.78.78,0,0,0-.77.77V25.39a3.85,3.85,0,0,0,3.08,3.77v5.46a2.31,2.31,0,1,0,4.61,0V29.23h3.08v5.39a2.31,2.31,0,1,0,4.61,0V29.16a3.84,3.84,0,0,0,3.08-3.77V13.08A.77.77,0,0,0,23.84,12.31Z"/><path class="cls-1" d="M21,3.2l1.88-1.88a.78.78,0,0,0,0-1.09.77.77,0,0,0-1.09,0h0L19.58,2.42a10.55,10.55,0,0,0-8.39,0L9,.23A.77.77,0,0,0,7.92,1.32L9.79,3.2A8.13,8.13,0,0,0,6.15,10a.78.78,0,0,0,.77.77H23.84a.77.77,0,0,0,.77-.77A8.09,8.09,0,0,0,21,3.2Z"/><circle class="cls-2" cx="11.54" cy="6.93" r="0.77"/><circle class="cls-2" cx="19.23" cy="6.93" r="0.77"/></g></g></svg>