<svg xmlns="http://www.w3.org/2000/svg" viewBox="0 0 50 50"><defs><style>.cls-1{fill:#29B190;}</style></defs><title>Asset 1</title><g id="Layer_2" data-name="Layer 2"><g id="Layer_1-2" data-name="Layer 1"><path class="cls-1" d="M17.38,50a1,1,0,0,1-.69-.29l-4-4H6.84A6.84,6.84,0,0,1,0,38.87v-15A6.85,6.85,0,0,1,6.84,17H16.7a1,1,0,0,1,0,2H6.84A4.89,4.89,0,0,0,2,23.83v15a4.89,4.89,0,0,0,4.89,4.88h6.34a1,1,0,0,1,.9.59l2.33,2.33V44.73a1,1,0,0,1,1-1H27.93a4.89,4.89,0,0,0,4.88-4.88V32.13a1,1,0,0,1,2,0v6.74a6.84,6.84,0,0,1-6.84,6.83H18.36V49a1,1,0,0,1-.6.91A1,1,0,0,1,17.38,50Z"/><path class="cls-1" d="M43.75,31.86a1,1,0,0,1-.69-.28l-3.65-3.65a14.5,14.5,0,0,1-3.6.46H33.33A14.2,14.2,0,0,1,33.33,0h2.48A14.21,14.21,0,0,1,50,14.19a14.05,14.05,0,0,1-1.54,6.44,14.33,14.33,0,0,1-3.73,4.6v5.65a1,1,0,0,1-.61.91A.94.94,0,0,1,43.75,31.86Zm-4.06-6a.94.94,0,0,1,.69.29l2.39,2.39V24.76a1,1,0,0,1,.39-.78A12.24,12.24,0,0,0,35.81,2H33.33a12.24,12.24,0,0,0,0,24.48h2.48a12.55,12.55,0,0,0,3.6-.53A.92.92,0,0,1,39.69,25.85Z"/><path class="cls-1" d="M34.84,18.24a1,1,0,0,1-1-1V14.92a1.84,1.84,0,0,1,1.45-1.81A2.18,2.18,0,0,0,35,8.8a2.15,2.15,0,0,0-1.64.58,2.17,2.17,0,0,0-.7,1.6,1,1,0,0,1-1.95,0A4.18,4.18,0,0,1,32,8a4.14,4.14,0,1,1,3.8,7v2.27A1,1,0,0,1,34.84,18.24Z"/><path class="cls-1" d="M34.84,22.1a1,1,0,0,1-1-1,1,1,0,0,1,.28-.69,1,1,0,0,1,.69-.29,1,1,0,0,1,1,1,1,1,0,0,1-1,1Z"/><path class="cls-1" d="M26.86,32.23H6.25a1,1,0,1,1,0-2H26.86a1,1,0,0,1,0,2Z"/><path class="cls-1" d="M26.86,37.7a1,1,0,0,1-.69-.29,1,1,0,0,1,0-1.38,1,1,0,0,1,.69-.29,1,1,0,0,1,.69.29,1,1,0,0,1,0,1.38A1,1,0,0,1,26.86,37.7Z"/><path class="cls-1" d="M23,37.7H6.25a1,1,0,0,1,0-2H23a1,1,0,0,1,0,2Z"/><path class="cls-1" d="M20.51,26.76H6.25a1,1,0,0,1,0-2H20.51a1,1,0,0,1,0,2Z"/></g></g></svg>