<svg xmlns="http://www.w3.org/2000/svg" xmlns:xlink="http://www.w3.org/1999/xlink" viewBox="0 0 48.79 48.79"><defs><style>.cls-1{isolation:isolate;}.cls-2{opacity:0.8;}.cls-3{fill:#e4e4e4;}.cls-4{fill:url(#radial-gradient);}.cls-5,.cls-6{fill:#fff;}.cls-5{opacity:0.1;mix-blend-mode:screen;}</style><radialGradient id="radial-gradient" cx="37.8" cy="9.38" r="34.95" gradientUnits="userSpaceOnUse"><stop offset="0" stop-color="#da0100"/><stop offset="0.84" stop-color="#7a1010"/></radialGradient></defs><title>Asset 5</title><g class="cls-1"><g id="Layer_2" data-name="Layer 2"><g id="Layer_1-2" data-name="Layer 1"><g class="cls-2"><circle class="cls-3" cx="24.39" cy="24.39" r="24.39"/><path class="cls-4" d="M46.91,24.39a22.5,22.5,0,1,1-2-9.24A22.52,22.52,0,0,1,46.91,24.39Z"/><path class="cls-5" d="M44.93,15.15a22.52,22.52,0,0,1-41.07,0,22.52,22.52,0,0,1,41.07,0Z"/><path class="cls-6" d="M32.73,16.17H16.06a3.46,3.46,0,0,0-3.45,3.45v9.55a3.46,3.46,0,0,0,3.45,3.45H32.73a3.45,3.45,0,0,0,3.44-3.45V19.62A3.45,3.45,0,0,0,32.73,16.17ZM22,27.49V20.82l6.39,3.33Z"/></g></g></g></g></svg>