<svg xmlns="http://www.w3.org/2000/svg" viewBox="0 0 72.37 46.9"><defs><style>.cls-1{fill:#69ae8f;}</style></defs><title>Asset 1</title><g id="Layer_2" data-name="Layer 2"><g id="Layer_1-2" data-name="Layer 1"><polygon class="cls-1" points="30.28 28.98 30.25 28.98 28.93 33.04 31.55 33.04 30.28 28.98"/><path class="cls-1" d="M20.81,28.44H18.35v2.24h2.52c.84,0,1.51-.33,1.51-1.14S21.78,28.44,20.81,28.44Z"/><path class="cls-1" d="M21.08,32.41H18.35v2.75H21c1,0,1.64-.46,1.64-1.51C22.62,32.75,21.85,32.41,21.08,32.41Z"/><path class="cls-1" d="M70.51,0H1.86A1.86,1.86,0,0,0,0,1.86V45A1.86,1.86,0,0,0,1.86,46.9H70.51A1.86,1.86,0,0,0,72.37,45V1.86A1.86,1.86,0,0,0,70.51,0ZM27.23,15.72a6,6,0,0,1,.25-1.31A6.89,6.89,0,0,1,28,13c.11-.24.22-.49.34-.74a7.56,7.56,0,0,1,.44-.71,9.06,9.06,0,0,1,1-1.35A14.22,14.22,0,0,1,31.07,9c.46-.33.89-.7,1.36-1s.92-.55,1.37-.77.88-.4,1.29-.58c.62-.24,1.17-.42,1.62-.56a9.36,9.36,0,0,1-.47-1.47A8.09,8.09,0,0,1,36,3a7.57,7.57,0,0,1,1.58.66,9,9,0,0,1,1.34.85A13.11,13.11,0,0,1,41.1,6.54a1.74,1.74,0,0,1,.16,2l-.07.12A13.07,13.07,0,0,1,39,11.39a10,10,0,0,1-1.4,1.15q-.39.27-.81.51a7.26,7.26,0,0,1-.93.43,8.59,8.59,0,0,1,0-1c0-.32.08-.64.13-1a9.78,9.78,0,0,1,.47-1.75l.06-.18L36,9.67a11.12,11.12,0,0,0-1.14.24,10.36,10.36,0,0,0-1.25.37c-.44.13-.84.36-1.29.54a10.28,10.28,0,0,0-1.23.74,8.38,8.38,0,0,0-1.12.93c-.16.17-.35.33-.5.51l-.43.56a6.13,6.13,0,0,0-.71,1.16,5.23,5.23,0,0,0-.49,1.13,7.79,7.79,0,0,0-.32,1c-.06.31-.12.59-.16.81-.08.46-.13.72-.13.72s0-.26,0-.73c0-.23,0-.52,0-.84A7.73,7.73,0,0,1,27.23,15.72Zm1.82,10.94h2.47l3.62,10.27H32.81l-.66-2.12H28.36l-.71,2.12H25.39ZM20.57,39.49H19v4.32H17.88V39.49H16.29v-.93h4.28Zm-4.28-2.56V26.66h5c2.52,0,3.16,1.58,3.16,2.64a2.06,2.06,0,0,1-1.26,2.1,2.39,2.39,0,0,1,1.59,2.48A3,3,0,0,1,23.88,36c-.58.57-1.14.93-3.24.93Zm8.12,6.89a3.67,3.67,0,0,1-.11-1.06c0-.72-.05-1-.86-1H22.3v2.06H21.22V38.56h2.66A1.48,1.48,0,0,1,25.54,40a1.27,1.27,0,0,1-.82,1.26c.44.19.67.35.67,1.33,0,.77,0,1,.24,1v.14Zm5.35,0-.34-1.08H27.48l-.36,1.08H26l1.88-5.25H29.1L31,43.81Zm6.14,0H34.8l-2.15-3.75h0v3.75h-1V38.56h1.16l2.09,3.66h0V38.56h1ZM34.62,22a10.46,10.46,0,0,1,.52,1.46,8.65,8.65,0,0,1,.29,1.68,7.94,7.94,0,0,1-1.6-.61,10.61,10.61,0,0,1-1.36-.81,13.19,13.19,0,0,1-2.25-2,1.71,1.71,0,0,1-.22-2l.07-.13a12.66,12.66,0,0,1,2.06-2.79,10.51,10.51,0,0,1,1.36-1.2c.26-.18.52-.36.8-.53a7,7,0,0,1,.91-.45,5.83,5.83,0,0,1,0,1c0,.32,0,.63-.09.95a9.83,9.83,0,0,1-.42,1.76l-.06.18.62-.1c.35-.09.74-.15,1.13-.28a9,9,0,0,0,1.24-.41c.44-.14.83-.38,1.27-.57a11.86,11.86,0,0,0,1.21-.78,7.2,7.2,0,0,0,1.09-1c.16-.18.35-.34.49-.53l.41-.57a5.83,5.83,0,0,0,.67-1.18A5.21,5.21,0,0,0,43.24,12a9.06,9.06,0,0,0,.29-1c0-.32.1-.6.13-.82.08-.46.12-.73.12-.73s0,.27,0,.73c0,.24,0,.52,0,.85a7.5,7.5,0,0,1-.07,1.11,5.32,5.32,0,0,1-.21,1.31,6.28,6.28,0,0,1-.45,1.44c-.1.25-.21.5-.32.75s-.28.47-.42.72a9.65,9.65,0,0,1-1,1.39A14.16,14.16,0,0,1,40.17,19c-.45.34-.88.73-1.34,1a12.78,12.78,0,0,1-1.34.8c-.44.26-.87.43-1.27.62C35.61,21.69,35.07,21.89,34.62,22Zm1.8,4.62h2.26l4.07,7.15h0V26.66h2V36.93H42.64l-4.19-7.32h0v7.32h-2ZM38.94,44c-1.92,0-2.25-1.11-2.25-1.76h1.05c0,.29.16.85,1.12.85.51,0,1.1-.13,1.1-.68s-.4-.52-1-.66l-.56-.13c-.85-.19-1.67-.38-1.67-1.54,0-.59.31-1.62,2-1.62s2,1,2.05,1.7H39.79c0-.24-.12-.79-1.08-.79-.42,0-.92.15-.92.63s.34.5.56.55l1.28.31c.72.17,1.38.47,1.38,1.42C41,43.81,39.4,44,38.94,44Zm6.65-4.47H43v1.18h2.31v.93H43v2.22h-1.1V38.56h3.74Zm4.73,4.32h-4V38.56H50.2v.93H47.41v1.1H50v.93H47.41v1.37h2.91Zm5.3,0H54.41a3.28,3.28,0,0,1-.12-1.06c0-.72,0-1-.86-1H52.3v2.06H51.22V38.56h2.66A1.47,1.47,0,0,1,55.53,40a1.26,1.26,0,0,1-.81,1.26c.43.19.67.35.67,1.33,0,.77,0,1,.23,1Zm.46-6.89H53.32l-3.17-4.5-1,1v3.48H47V26.66h2.15v4.18l3.92-4.18h2.77l-4.19,4.21,4.43,6.06Z"/><path class="cls-1" d="M53.67,39.46H52.3v1.41h1.29c.57,0,.85-.2.85-.72C54.44,39.87,54.31,39.46,53.67,39.46Z"/><polygon class="cls-1" points="28.46 39.74 28.45 39.74 27.78 41.82 29.12 41.82 28.46 39.74"/><path class="cls-1" d="M23.67,39.46H22.3v1.41h1.29c.57,0,.85-.2.85-.72C24.44,39.87,24.31,39.46,23.67,39.46Z"/></g></g></svg>