<svg xmlns="http://www.w3.org/2000/svg" viewBox="0 0 40.65 35.6"><defs><style>.cls-1{fill:#69a4da;}</style></defs><title>Asset 1</title><g id="Layer_2" data-name="Layer 2"><g id="Layer_1-2" data-name="Layer 1"><path class="cls-1" d="M40.65,1.1a1.09,1.09,0,0,1-.11.48l-.09.17L31,18.35,21.51,35v0l0,.06-.06.1a1.08,1.08,0,0,1-.89.47,1.1,1.1,0,0,1-1-.54v0l0-.06L9.85,18.46.14,1.85v0A1.11,1.11,0,0,1,1,.2L33.31,0l-16,21.76c.38-1.32,2.53-5.65,2.38-6.78-.19-1.42-4.1-7.56-4.1-7.56l-4.39,0h0a1.1,1.1,0,0,0-.91,1.08,1.14,1.14,0,0,0,.13.52v0h0l6.88,12.66,6.14,0L36,0l3.63,0A1.11,1.11,0,0,1,40.65,1.1Z"/></g></g></svg>