<svg xmlns="http://www.w3.org/2000/svg" viewBox="0 0 84 84"><defs><style>.cls-1{fill:#accefc;}.cls-2{fill:#8bbafc;}.cls-3{fill:#f6e277;}.cls-4{fill:#f2d231;}.cls-5{fill:#404a4a;}.cls-6{fill:#323c3c;}.cls-7{fill:#55696e;}.cls-8{fill:#485959;}.cls-9{fill:#e38394;}.cls-10{fill:#da1f3e;}.cls-11{fill:#dd4a4a;}.cls-12{fill:#eae7e6;}.cls-13{fill:#dbd5d3;}</style></defs><title>Asset 2</title><g id="Layer_2" data-name="Layer 2"><g id="Layer_1-2" data-name="Layer 1"><rect class="cls-1" x="2.46" y="12.47" width="79.08" height="54.14"/><rect class="cls-2" x="42" y="12.47" width="39.54" height="54.14"/><path d="M44.46,32.16V49.38H39.54V32.16a2.46,2.46,0,0,1,4.92,0Z"/><path class="cls-3" d="M66.61,54.3H56.77a7.37,7.37,0,0,1-7.39-7.38,2.43,2.43,0,0,0-2.46-2.46H37.08a2.43,2.43,0,0,0-2.46,2.46,7.37,7.37,0,0,1-7.39,7.38H17.39a7.38,7.38,0,0,0-5.22,12.6H71.83a7.38,7.38,0,0,0-5.22-12.6Z"/><path d="M44.46,49.38H42V29.7a2.43,2.43,0,0,1,2.46,2.46Z"/><path class="cls-4" d="M71.83,66.9H42V44.46h4.92a2.43,2.43,0,0,1,2.46,2.46,7.37,7.37,0,0,0,7.39,7.38h9.84a7.38,7.38,0,0,1,5.22,12.6Z"/><path class="cls-5" d="M64.15,81.54a1.29,1.29,0,0,1-.15.59H20a1.29,1.29,0,0,1-.15-.59,2.43,2.43,0,0,1,2.46-2.46,7.52,7.52,0,0,0,7.39-7.55V66.61a2.43,2.43,0,0,1,2.46-2.46H51.84a2.43,2.43,0,0,1,2.46,2.46v4.92a7.52,7.52,0,0,0,7.39,7.55A2.43,2.43,0,0,1,64.15,81.54Z"/><path class="cls-6" d="M64.15,81.54a1.29,1.29,0,0,1-.15.59H42v-18h9.84a2.43,2.43,0,0,1,2.46,2.46v4.92a7.52,7.52,0,0,0,7.39,7.55A2.43,2.43,0,0,1,64.15,81.54Z"/><path class="cls-7" d="M74,81.54A2.43,2.43,0,0,1,71.53,84H12.47a2.46,2.46,0,0,1,0-4.92H71.53A2.43,2.43,0,0,1,74,81.54Z"/><path class="cls-8" d="M74,81.54A2.43,2.43,0,0,1,71.53,84H42V79.08H71.53A2.43,2.43,0,0,1,74,81.54Z"/><path class="cls-7" d="M81.54,10H2.46A2.43,2.43,0,0,0,0,12.47V66.61a2.43,2.43,0,0,0,2.46,2.46H81.54A2.43,2.43,0,0,0,84,66.61V12.47A2.43,2.43,0,0,0,81.54,10ZM79.08,64.15H4.92V14.93H79.08Z"/><path class="cls-8" d="M84,12.47V66.61a2.43,2.43,0,0,1-2.46,2.46H42V64.15H79.08V14.93H42V10H81.54A2.43,2.43,0,0,1,84,12.47Z"/><path class="cls-9" d="M54.3,18.57v1.28l-5.8,4.92H36l-6.3-4.92V18.57A20.34,20.34,0,0,1,40.92.25a2.46,2.46,0,0,1,2.16,0A20.34,20.34,0,0,1,54.3,18.57Z"/><path class="cls-10" d="M63.43,40.26l-9.85-9.84a2.46,2.46,0,0,0-4.2,1.74V42.64l4.92,6.74h7.39a2.46,2.46,0,0,0,2.46-2.46V42A2.47,2.47,0,0,0,63.43,40.26Z"/><path class="cls-11" d="M34.62,32.16a2.46,2.46,0,0,0-4.2-1.74l-9.85,9.84A2.47,2.47,0,0,0,19.85,42v4.92a2.46,2.46,0,0,0,2.46,2.46H29.7l4.92-5.64Z"/><path class="cls-11" d="M48.5,24.77H42V0a2.63,2.63,0,0,1,1.08.25A20.34,20.34,0,0,1,54.3,18.57v1.28Z"/><path class="cls-12" d="M29.7,19.85V49.38H54.3V19.85Z"/><rect class="cls-13" x="42" y="19.85" width="12.3" height="29.53"/></g></g></svg>