<svg xmlns="http://www.w3.org/2000/svg" viewBox="0 0 53.82 54"><defs><style>.cls-1{fill:#B3B3B3;}</style></defs><title>Asset 1</title><g id="Layer_2" data-name="Layer 2"><g id="Layer_1-2" data-name="Layer 1"><path class="cls-1" d="M.06,42.77,0,18.23a1.68,1.68,0,0,1,2.34-1.55l22.34,9.55a1.67,1.67,0,0,1,1,1.54l.06,24.54a1.68,1.68,0,0,1-2.34,1.55L1.08,44.31a1.67,1.67,0,0,1-1-1.54ZM51.25,19.38,30.63,28.31,30.68,51,51.3,42.1l0-22.72m.83-3a1.69,1.69,0,0,1,1.69,1.68l0,24.54a1.66,1.66,0,0,1-1,1.55l-22.3,9.66a1.74,1.74,0,0,1-.66.14,1.68,1.68,0,0,1-1.68-1.68l-.06-24.54a1.67,1.67,0,0,1,1-1.55l22.3-9.66a1.74,1.74,0,0,1,.66-.14ZM26.75,2.6,5.36,12.15,26.79,21.6l21.39-9.55L26.75,2.6m0-2.6a1.76,1.76,0,0,1,.68.14L50.93,10.51a1.68,1.68,0,0,1,0,3.07L27.48,24.05a1.64,1.64,0,0,1-.68.15,1.6,1.6,0,0,1-.68-.15L2.61,13.69a1.68,1.68,0,0,1,0-3.07L26.06.15A1.64,1.64,0,0,1,26.74,0Z"/></g></g></svg>