<svg xmlns="http://www.w3.org/2000/svg" xmlns:xlink="http://www.w3.org/1999/xlink" viewBox="0 0 96.29 91.58"><defs><style>.cls-1{fill:url(#linear-gradient);}.cls-2{fill:url(#linear-gradient-2);}.cls-3{fill:#666;}</style><linearGradient id="linear-gradient" x1="18.99" y1="53.17" x2="49.3" y2="0.67" gradientUnits="userSpaceOnUse"><stop offset="0" stop-color="#2c4264"/><stop offset="0.11" stop-color="#35546d"/><stop offset="0.72" stop-color="#68b59b"/><stop offset="1" stop-color="#7cdbae"/></linearGradient><linearGradient id="linear-gradient-2" x1="39.13" y1="103.55" x2="83.12" y2="27.37" xlink:href="#linear-gradient"/></defs><title>Asset 1</title><g id="Layer_2" data-name="Layer 2"><g id="Layer_1-2" data-name="Layer 1"><path class="cls-1" d="M61.93,29.88,48.14,0,33.86,31,0,35,20.81,54.22C32.75,50.71,47.5,43.7,61.93,29.88Z"/><path class="cls-2" d="M96.29,35,72,32.09C64.6,46.77,49.9,65.8,20.59,80.52l-2.2,11.06L48.14,74.92,77.9,91.58,71.25,58.13Z"/><path class="cls-3" d="M64.84,31.25C50.43,45.32,35.61,52.72,23.36,56.58L25,58.13,21.34,76.71c23.63-12.38,36.8-27.42,44-38.94,1.3-2.08,2.44-4.1,3.44-6.06Z"/></g></g></svg>