<svg xmlns="http://www.w3.org/2000/svg" xmlns:xlink="http://www.w3.org/1999/xlink" viewBox="0 0 48.79 48.79"><defs><style>.cls-1{isolation:isolate;}.cls-2{fill:#e4e4e4;}.cls-3{fill:url(#radial-gradient);}.cls-4,.cls-5{fill:#fff;}.cls-4{opacity:0.1;mix-blend-mode:screen;}</style><radialGradient id="radial-gradient" cx="37.8" cy="9.38" r="34.94" gradientUnits="userSpaceOnUse"><stop offset="0" stop-color="#4070b7"/><stop offset="0.69" stop-color="#2a4975"/></radialGradient></defs><title>Asset 3</title><g class="cls-1"><g id="Layer_2" data-name="Layer 2"><g id="Layer_1-2" data-name="Layer 1"><circle class="cls-2" cx="24.39" cy="24.39" r="24.39" transform="translate(-5.39 41.8) rotate(-75.29)"/><path class="cls-3" d="M46.91,24.39a22.5,22.5,0,1,1-2-9.24A22.52,22.52,0,0,1,46.91,24.39Z"/><ellipse class="cls-4" cx="24.39" cy="15.15" rx="20.54" ry="13.27"/><path class="cls-5" d="M26,17.69c0-1.72,1.46-1.46,1.46-1.46H32V11.1H25.11c-5.24,0-5.37,5.75-5.37,5.75v3.92h0l-3,0v4.69h3V39.87H26V25.49h5.27l.81-4.8-6.08,0v-3Z"/></g></g></g></svg>