<svg xmlns="http://www.w3.org/2000/svg" viewBox="0 0 47.46 47.46"><defs><style>.cls-1{fill:#b0b0b0;}</style></defs><title>Asset 2</title><g id="Layer_2" data-name="Layer 2"><g id="Layer_1-2" data-name="Layer 1"><path class="cls-1" d="M28.07,0A11.94,11.94,0,1,0,40,11.94,11.94,11.94,0,0,0,28.07,0Zm.34,2.88-.34,0h0ZM28.07,21l.34,0-.34,0Zm8.17-5.14a4,4,0,0,1-.23.39,4,4,0,0,0,.23-.39l-.09-.07-.56-.32a.69.69,0,0,0-1,.25.7.7,0,0,0,.25.95l.56.32.1.05h0a8.35,8.35,0,0,1-1.15,1.37,7.42,7.42,0,0,1-1,.88,9.12,9.12,0,0,1-1.54.9,9,9,0,0,1-3.06.78.41.41,0,0,0,0-.11v-.65a.7.7,0,0,0-1.39,0v.65a.41.41,0,0,0,0,.11,8.65,8.65,0,0,1-1.76-.31h0s0-.07.05-.1l.22-.61a.7.7,0,0,0-1.31-.48l-.22.61,0,.11c.21.1.43.16.64.24-.21-.08-.43-.14-.64-.24a9.11,9.11,0,0,1-3.75-3.15,8.67,8.67,0,0,1-.69-1.18h0a8.62,8.62,0,0,1-.61-1.68h.11l.64-.11a.69.69,0,0,0,.56-.81.69.69,0,0,0-.8-.56l-.64.11-.11,0a8.7,8.7,0,0,1,0-.89,8.9,8.9,0,0,1,0-.9l.11,0,.64.11h.12a.69.69,0,0,0,.68-.57A.69.69,0,0,0,20,9.81l-.64-.11h-.11A8.62,8.62,0,0,1,19.89,8h0a8.78,8.78,0,0,1,.69-1.19,9.38,9.38,0,0,1,1.15-1.37l.06.09.42.5a.68.68,0,0,0,1,.08.7.7,0,0,0,.08-1l-.41-.49-.08-.08c-.19.13-.35.29-.53.44.18-.15.34-.31.53-.44a8.83,8.83,0,0,1,1.55-.9c.21-.09.43-.16.64-.23-.21.07-.43.14-.64.23l0,.11.22.61a.7.7,0,0,0,.65.46,1,1,0,0,0,.24,0,.71.71,0,0,0,.42-.9l-.22-.61s0-.07-.05-.1h0a9.4,9.4,0,0,1,1.76-.31.45.45,0,0,0,0,.11v.65a.7.7,0,1,0,1.39,0V3a.45.45,0,0,0,0-.11,9.36,9.36,0,0,1,1.77.31,10,10,0,0,1,1.29.47,9.12,9.12,0,0,1,1.54.9c.13.09.23.2.35.29-.12-.09-.22-.2-.35-.29l-.07.08-.42.49a.69.69,0,0,0,.09,1,.67.67,0,0,0,.44.17A.69.69,0,0,0,33.92,6l.42-.5a.24.24,0,0,0,.06-.09,8.79,8.79,0,0,1,1.15,1.37h0l-.1,0-.56.32a.7.7,0,0,0,.35,1.3.73.73,0,0,0,.35-.09l.56-.33L36.24,8a8.65,8.65,0,0,1,.62,1.68,8.89,8.89,0,0,1,.15.9,8.89,8.89,0,0,0-.15-.9h-.12l-.64.11a.7.7,0,0,0-.56.81.69.69,0,0,0,.68.57h.13l.63-.11.11,0a8.88,8.88,0,0,1,0,.9,8.69,8.69,0,0,1,0,.89l-.11,0-.63-.11a.7.7,0,1,0-.25,1.37l.64.11h.12a8.89,8.89,0,0,0,.15-.9,8.89,8.89,0,0,1-.15.9A9,9,0,0,1,36.24,15.87Z"/><path class="cls-1" d="M29,7.7V7.38a.7.7,0,1,0-1.39,0V7.6h-.42V7.38a.7.7,0,1,0-1.39,0V7.6h-.24a.7.7,0,1,0,0,1.39h.24v5.89h-.24a.7.7,0,1,0,0,1.39h.24v.23a.7.7,0,0,0,1.39,0v-.23h.42v.23a.7.7,0,0,0,1.39,0v-.33a2.5,2.5,0,0,0,1.81-2.41h0A2.48,2.48,0,0,0,30,11.94a2.52,2.52,0,0,0,.78-1.82h0A2.5,2.5,0,0,0,29,7.7Zm.42,6.06a1.12,1.12,0,0,1-1.12,1.12H27.14V12.63h1.11a1.12,1.12,0,0,1,1.12,1.12Zm0-3.64a1.12,1.12,0,0,1-1.12,1.12H27.14V9h1.11a1.12,1.12,0,0,1,1.12,1.12Z"/><path class="cls-1" d="M31.55,19.48a.69.69,0,1,0-1.3.48l.22.61.05.1a8.67,8.67,0,0,0,1.29-.47l0-.11Z"/><path class="cls-1" d="M33.92,17.84a.68.68,0,0,0-1-.09.69.69,0,0,0-.09,1l.42.5.07.07a7.42,7.42,0,0,0,1-.88.24.24,0,0,0-.06-.09Z"/><path class="cls-1" d="M21.24,7.19l-.56-.32-.1,0A8.78,8.78,0,0,0,19.89,8h0l.09.06.57.33a.67.67,0,0,0,.34.09.7.7,0,0,0,.35-1.3Z"/><path class="cls-1" d="M20.55,15.48,20,15.8l-.09.06h0a8.67,8.67,0,0,0,.69,1.18l.1-.05.56-.32a.69.69,0,0,0,.25-.95A.68.68,0,0,0,20.55,15.48Z"/><path class="cls-1" d="M22.86,19.23l.41-.5a.7.7,0,0,0-.08-1,.69.69,0,0,0-1,.09l-.42.49-.06.09a8.74,8.74,0,0,0,1.05.88Z"/><path class="cls-1" d="M30.47,3.3l-.22.61a.71.71,0,0,0,.41.9,1,1,0,0,0,.24,0,.7.7,0,0,0,.65-.46l.23-.61,0-.11a10,10,0,0,0-1.29-.47Z"/><path class="cls-1" d="M35.52,23.59A11.94,11.94,0,1,0,47.46,35.52,11.93,11.93,0,0,0,35.52,23.59ZM43.7,39.45l-.1-.06L43,39.06a.7.7,0,0,0-.95.26.7.7,0,0,0,.26,1l.56.32.1,0A9.38,9.38,0,0,1,41.86,42a9.79,9.79,0,0,1-1,.88,8.83,8.83,0,0,1-1.55.9l0-.11L39,43.07a.7.7,0,0,0-1.31.47l.22.61,0,.11h0a9.4,9.4,0,0,1-1.76.31l-.69,0h0l.69,0s0-.08,0-.12v-.64a.7.7,0,1,0-1.39,0v.64a.49.49,0,0,0,0,.12h0a9.36,9.36,0,0,1-1.77-.31h0a.54.54,0,0,0,0-.11l.22-.61a.69.69,0,1,0-1.3-.47l-.23.61,0,.11a9.12,9.12,0,0,1-1.54-.9h0l.07-.08.42-.5a.68.68,0,0,0-.09-1,.7.7,0,0,0-1,.08l-.41.5-.07.09c.17.16.36.29.53.44-.17-.15-.36-.28-.53-.44A10.05,10.05,0,0,1,28,40.64l.1,0,.57-.32a.7.7,0,0,0,.25-1,.69.69,0,0,0-.95-.26l-.56.33-.09.06a8.89,8.89,0,0,1-.62-1.68,10,10,0,0,1-.24-1.35c0-.3,0-.6,0-.9a8.7,8.7,0,0,1,0-.89,9.49,9.49,0,0,1,.24-1.35,9,9,0,0,1,.62-1.69.22.22,0,0,0,.09.07L28,32a.73.73,0,0,0,.35.09.69.69,0,0,0,.35-1.29l-.57-.33-.1,0A8.49,8.49,0,0,1,29.19,29a.24.24,0,0,0,.06.09l.41.49a.69.69,0,0,0,.54.25.69.69,0,0,0,.53-1.14l-.42-.5-.07-.08h0a9.79,9.79,0,0,1,1.54-.89c.21-.1.43-.16.65-.24-.22.08-.44.14-.65.24l0,.11L32,28a.68.68,0,0,0,.65.45.67.67,0,0,0,.24,0,.69.69,0,0,0,.41-.89l-.22-.61a.31.31,0,0,0,0-.1h0a8.63,8.63,0,0,1,1.77-.31l.34,0-.34,0a.37.37,0,0,0,0,.11v.65a.7.7,0,0,0,1.39,0v-.65s0-.08,0-.11q-.35,0-.69,0h0q.34,0,.69,0a8.65,8.65,0,0,1,1.76.31l0,.1-.22.61a.7.7,0,0,0,.42.89.66.66,0,0,0,.23,0A.69.69,0,0,0,39,28l.22-.61,0-.11a9.45,9.45,0,0,1,1.55.89l-.08.08-.42.5a.71.71,0,0,0,.09,1,.7.7,0,0,0,1-.09l.42-.49.06-.09A9,9,0,0,1,43,30.41l-.1,0-.56.33a.7.7,0,0,0-.26.95.71.71,0,0,0,.61.34A.72.72,0,0,0,43,32l.56-.32.1-.07a9.71,9.71,0,0,1,.61,1.69c0,.14,0,.3.08.45,0-.15,0-.31-.08-.45H44.2l-.64.11a.7.7,0,0,0,.12,1.38h.12l.64-.11.11,0a8.7,8.7,0,0,1,0,.89c0,.3,0,.6,0,.9l-.11,0-.64-.11a.69.69,0,0,0-.24,1.36l.64.12h.11c0-.15,0-.3.08-.45,0,.15,0,.3-.08.45A9.61,9.61,0,0,1,43.7,39.45Z"/><path class="cls-1" d="M41.8,41.92l-.42-.5a.7.7,0,0,0-1.07.89l.42.5.08.08a9.79,9.79,0,0,0,1-.88Z"/><path class="cls-1" d="M27.48,33.4l-.63-.11h-.12a9.49,9.49,0,0,0-.24,1.35l.11,0,.64.11h.12a.69.69,0,0,0,.12-1.38Z"/><path class="cls-1" d="M27.24,36.28l-.64.11-.11,0a10,10,0,0,0,.24,1.35h.12l.63-.12a.69.69,0,0,0,.57-.8A.69.69,0,0,0,27.24,36.28Z"/><path class="cls-1" d="M38.33,38.11h-3V36l.85-.21a.69.69,0,1,0-.33-1.35l-.52.12V31.66a.7.7,0,1,0-1.39,0v3.28c-.62.16-.85.23-.87.24a.68.68,0,0,0-.47.86.71.71,0,0,0,.67.5.63.63,0,0,0,.19,0l.48-.13V38.8a.7.7,0,0,0,.7.7h3.68a.7.7,0,0,0,0-1.39Z"/><path class="cls-1" d="M11.94,18.28A11.94,11.94,0,1,0,23.87,30.22,11.94,11.94,0,0,0,11.94,18.28Zm0,2.87h0Zm-.35,18.13h0Zm9.25-7.49c0-.23.1-.45.12-.68l-.11,0L20.22,31A.7.7,0,0,0,20,32.34l.64.11h.12a9,9,0,0,1-.62,1.69L20,34.08l-.56-.32a.69.69,0,1,0-.7,1.2l.56.33.1,0a8,8,0,0,1-1.15,1.37l-.06-.09-.42-.49a.69.69,0,1,0-1.06.89l.42.5.07.08a9.79,9.79,0,0,1-1.54.89.76.76,0,0,0,0-.11l-.22-.6a.69.69,0,1,0-1.3.47l.22.61a.31.31,0,0,0,.05.1c.22-.06.43-.15.64-.23-.21.08-.42.17-.64.23a8.63,8.63,0,0,1-1.77.31l-.34,0,.34,0a.37.37,0,0,0,0-.11V38.5a.7.7,0,0,0-1.39,0v.65a.37.37,0,0,0,0,.11A8.41,8.41,0,0,1,9.49,39c-.15,0-.29-.1-.43-.15.14.05.28.11.43.15a1,1,0,0,0,0-.1l.23-.61a.7.7,0,0,0-.42-.89.69.69,0,0,0-.89.42l-.22.6a.61.61,0,0,0,0,.11,9.45,9.45,0,0,1-1.55-.89A9.88,9.88,0,0,1,5.6,36.7a8.43,8.43,0,0,1-1.15-1.37c-.13-.18-.23-.39-.35-.59.12.2.22.41.35.59l.1,0L5.11,35a.69.69,0,0,0,.25-1,.7.7,0,0,0-1-.25l-.56.32-.09.07a9,9,0,0,1-.61-1.69,7.32,7.32,0,0,1-.24-1.35,8.7,8.7,0,0,1,0-.89c0-.3,0-.6,0-.9A7.63,7.63,0,0,1,3.15,28a8.86,8.86,0,0,1,.61-1.68l.09.06.56.33a.73.73,0,0,0,.35.09.67.67,0,0,0,.6-.35.69.69,0,0,0-.25-1l-.56-.32-.1,0c-.13.19-.23.4-.35.6.12-.2.22-.41.35-.6A9.38,9.38,0,0,1,5.6,23.73l.06.09.42.5a.68.68,0,0,0,1,.08.7.7,0,0,0,.08-1l-.41-.49-.08-.08A8.83,8.83,0,0,1,8.2,22a.35.35,0,0,0,0,.11l.22.61a.7.7,0,0,0,.65.46.67.67,0,0,0,.24,0,.7.7,0,0,0,.42-.89l-.23-.61s0-.07,0-.11-.29.11-.43.16c.14-.05.28-.12.43-.16a9.12,9.12,0,0,1,1.76-.31.49.49,0,0,0,0,.12v.64a.7.7,0,1,0,1.39,0v-.64a.49.49,0,0,0,0-.12h0a9.36,9.36,0,0,1,1.77.31c.22.06.43.16.64.24-.21-.08-.42-.18-.64-.24a.54.54,0,0,0-.05.11l-.22.61a.69.69,0,0,0,.41.89.67.67,0,0,0,.24,0,.7.7,0,0,0,.65-.46l.22-.61a.36.36,0,0,0,0-.11,9.12,9.12,0,0,1,1.54.9.27.27,0,0,0-.07.08l-.42.49a.7.7,0,1,0,1.06.9l.42-.5.06-.09a8.79,8.79,0,0,1,1.15,1.37l-.1,0-.56.32a.7.7,0,0,0-.25,1,.68.68,0,0,0,.6.35.73.73,0,0,0,.35-.09l.56-.33.09-.06A8.89,8.89,0,0,1,20.73,28h-.12l-.64.11a.7.7,0,0,0-.56.81.69.69,0,0,0,.68.57h.13l.63-.11a.35.35,0,0,0,.11,0c0-.23-.08-.45-.12-.67,0,.22.1.44.12.67s.05.6.05.9a8.69,8.69,0,0,1-.05.89C20.94,31.34,20.88,31.56,20.84,31.79Z"/><path class="cls-1" d="M3,29.35l.64.11h.12a.69.69,0,0,0,.68-.57.69.69,0,0,0-.56-.81L3.26,28H3.15a7.63,7.63,0,0,0-.24,1.35A.35.35,0,0,0,3,29.35Z"/><path class="cls-1" d="M3.9,32.34A.7.7,0,0,0,3.66,31L3,31.08l-.11,0a7.32,7.32,0,0,0,.24,1.35h.11Z"/><path class="cls-1" d="M6.73,37.51l.41-.5a.7.7,0,0,0-.08-1,.69.69,0,0,0-1,.09l-.42.49-.06.09a9.88,9.88,0,0,0,1.05.89Z"/><path class="cls-1" d="M12.12,25.32a.22.22,0,0,0-.37,0L8.89,29.88a.22.22,0,0,0,.24.33l2.75-.68a.21.21,0,0,1,.11,0l2.75.68a.22.22,0,0,0,.24-.33Z"/><path class="cls-1" d="M12,30.07a.25.25,0,0,0-.17,0L9.4,31.17a.21.21,0,0,0-.07.33l2.45,2.75a.2.2,0,0,0,.31,0l2.45-2.75a.2.2,0,0,0-.07-.33Z"/></g></g></svg>