<svg xmlns="http://www.w3.org/2000/svg" viewBox="0 0 31.06 36.37"><defs><style>.cls-1{fill:#d19437;}.cls-2{fill:#4e4e4e;}</style></defs><title>Asset 9</title><g id="Layer_2" data-name="Layer 2"><g id="Layer_1-2" data-name="Layer 1"><path class="cls-1" d="M12.3,10.45a2.81,2.81,0,0,0,1,1l.25.16c.33.23.49.33.73.29a12.67,12.67,0,0,0,2.24-1.18l.14-.09c.21-.13.37-.21.51-.28s.29-.16.3-.21a1.5,1.5,0,0,0-.76-.46l-.61-.24a13.07,13.07,0,0,0-1.58-.56h0a2.76,2.76,0,0,0-1.28.79C13,9.91,12.5,10.29,12.3,10.45Z"/><path class="cls-1" d="M7.8,28.1c-.22-.37-.41-.69-.52-.85-.41-.64-1.11-1.35-1.45-1.35a.06.06,0,0,0,0,0,1.69,1.69,0,0,0-.48.71,2.51,2.51,0,0,1-.86,1.15,4.38,4.38,0,0,1-1.25.39c-.33.08-1.1.24-1.14.4a1.59,1.59,0,0,0,.06.7,3.36,3.36,0,0,1,.08,1.23,6.61,6.61,0,0,1-.24.9c-.13.4-.27.85-.15,1a7.22,7.22,0,0,0,1.76.4,11.58,11.58,0,0,1,2.27.5l.14.06a13.3,13.3,0,0,0,3.67,1.16l.21,0a2.28,2.28,0,0,0,.94-1.16c.17-.76-.52-1.64-.95-2.1A27.25,27.25,0,0,1,7.8,28.1Z"/><path class="cls-1" d="M28.3,29.9l-.11,0a2.58,2.58,0,0,1-1.11-2.32.91.91,0,0,0,0-.35,5.3,5.3,0,0,1-.58.76,3.71,3.71,0,0,1-2.28.84,2.13,2.13,0,0,1-.9-.18,2.14,2.14,0,0,1-1-2.05h0a7.23,7.23,0,0,0,0,1.28c0,.23,0,.47.05.69a18.2,18.2,0,0,1-.52,3.84c-.26,1.19.22,2,.79,2.2a.48.48,0,0,0,.18,0A3.93,3.93,0,0,0,25,33.23a12.54,12.54,0,0,1,2.87-1.77,9.54,9.54,0,0,0,1.42-.8l.05-.06C29.29,30.42,28.57,30.05,28.3,29.9Z"/><path class="cls-2" d="M30.1,29.2c-1.07-.43-1.52-1-1.48-1.88a2.86,2.86,0,0,0-.8-2,8.75,8.75,0,0,0,0-4.69c-.69-2-2.8-5.1-5-8.13a6.93,6.93,0,0,1-1-4.16,12.56,12.56,0,0,0-.93-5.07,5.25,5.25,0,0,0-5-3.23,6.83,6.83,0,0,0-3.79,1.15c-2.18,1.51-1.89,4.79-1.7,7,0,.29.05.57.06.81a10.7,10.7,0,0,1-.14,3.59A14.84,14.84,0,0,1,9.28,14c-.53.7-1.13,1.48-1.62,2.21a18.07,18.07,0,0,0-1.51,3.53,15.53,15.53,0,0,1-1,2.39,3.28,3.28,0,0,0-.32,2.45,2.48,2.48,0,0,0-.8,1c-.33.69-1,1.06-2.35,1.33a1.8,1.8,0,0,0-1.29.78,2.24,2.24,0,0,0,0,1.78,2.76,2.76,0,0,1-.18,2c-.06.19-.13.41-.21.64a1.17,1.17,0,0,0,.13,1c.51.79,2,1.07,3.57,1.25a13.62,13.62,0,0,1,2.92.84,13.86,13.86,0,0,0,2.86.83l.4,0a2.39,2.39,0,0,0,2.18-1.27A24.78,24.78,0,0,1,16,34.39a17.27,17.27,0,0,1,3.89.4,3.09,3.09,0,0,0,1.18,1.28,2.83,2.83,0,0,0,1.32.3h0a3.15,3.15,0,0,0,2.32-1A20.72,20.72,0,0,1,29,32.72l.89-.48a2,2,0,0,0,1.21-1.76A1.49,1.49,0,0,0,30.1,29.2ZM17,5.26A1.65,1.65,0,0,1,18.4,7.07a2.13,2.13,0,0,1-.31,1.13,1.91,1.91,0,0,0,.08-.54A1.35,1.35,0,0,0,17,6.17a1.37,1.37,0,0,0-1.2,1.49,1,1,0,0,0,0,.17l-.1,0a2.18,2.18,0,0,1-.12-.72A1.65,1.65,0,0,1,17,5.26ZM14.56,8.89a13.07,13.07,0,0,1,1.58.56l.61.24a1.5,1.5,0,0,1,.76.46s0,.07-.3.21-.3.15-.51.28l-.14.09a12.67,12.67,0,0,1-2.24,1.18c-.24,0-.4-.06-.73-.29l-.25-.16a2.81,2.81,0,0,1-1-1c.2-.16.69-.54.94-.77a2.76,2.76,0,0,1,1.28-.79Zm-2-3.3c.58,0,1.07.78,1.07,1.7a2.19,2.19,0,0,1,0,.36l-.1,0a1.64,1.64,0,0,0,0-.23c-.13-.72-.6-1.23-1.13-1.23h-.12a.91.91,0,0,0-.69.62C11.65,6.13,12.06,5.59,12.55,5.59ZM10.79,33.33a2.28,2.28,0,0,1-.94,1.16l-.21,0A13.3,13.3,0,0,1,6,33.35l-.14-.06a11.58,11.58,0,0,0-2.27-.5,7.22,7.22,0,0,1-1.76-.4c-.12-.14,0-.59.15-1a6.61,6.61,0,0,0,.24-.9,3.36,3.36,0,0,0-.08-1.23,1.59,1.59,0,0,1-.06-.7c0-.16.81-.32,1.14-.4a4.38,4.38,0,0,0,1.25-.39,2.51,2.51,0,0,0,.86-1.15,1.69,1.69,0,0,1,.48-.71.06.06,0,0,1,0,0c.34,0,1,.71,1.45,1.35.11.16.3.48.52.85a27.25,27.25,0,0,0,2,3.13C10.27,31.69,11,32.57,10.79,33.33Zm9.84-7.75a30.31,30.31,0,0,0-.17,3.57,7.05,7.05,0,0,1-4.14,2.59,17,17,0,0,1-2.55.2,10.48,10.48,0,0,1-1.26-.07l-1.13-1.3A1.39,1.39,0,0,0,12.16,29c-.11-.71-1-1.41-2.08-2.23A7.46,7.46,0,0,1,8,24.75a6.31,6.31,0,0,1,.65-4.85,12.19,12.19,0,0,0,1-2.38,8.58,8.58,0,0,1,1-2.36,6,6,0,0,0,1.23-3,3.83,3.83,0,0,0,2.21,1.2,1.36,1.36,0,0,0,.36,0,12.35,12.35,0,0,0,2.12-1.07,9.17,9.17,0,0,1,1.8-.9c.53.76,3.62,7.59,3.93,9.78a10.14,10.14,0,0,1-.15,3.73l-.36,0C20.92,24.83,20.69,25.3,20.63,25.58Zm8.63,5.08a9.8,9.8,0,0,1-1.43.8A12.54,12.54,0,0,0,25,33.23a3.93,3.93,0,0,1-2.19,1.37.48.48,0,0,1-.18,0c-.57-.18-1.05-1-.79-2.2a18.2,18.2,0,0,0,.52-3.84c0-.22,0-.46-.05-.69a7.23,7.23,0,0,1,0-1.28h0a2.14,2.14,0,0,0,1,2.05,2.13,2.13,0,0,0,.9.18,3.71,3.71,0,0,0,2.28-.84,4.15,4.15,0,0,0,.58-.76.89.89,0,0,1,0,.35,2.55,2.55,0,0,0,1.1,2.32l.11,0c.27.15,1,.52,1,.7C29.3,30.6,29.3,30.62,29.26,30.66Z"/></g></g></svg>