<svg xmlns="http://www.w3.org/2000/svg" viewBox="0 0 44.3 34.75"><defs><style>.cls-1{fill:#69ae8f;}</style></defs><title>Asset 11</title><g id="Layer_2" data-name="Layer 2"><g id="Layer_1-2" data-name="Layer 1"><rect class="cls-1" x="4.87" y="17.4" width="5.14" height="13.38"/><rect class="cls-1" x="31.3" y="4.02" width="5.14" height="26.76"/><rect class="cls-1" x="22.49" y="8.94" width="5.14" height="21.84"/><rect class="cls-1" x="13.68" y="13.45" width="5.14" height="17.33"/><path class="cls-1" d="M41.83,33.53H1.22v-31A.52.52,0,0,1,1.63,2a.49.49,0,0,1,.57.48V32.55H41.81a.51.51,0,0,1,.51.4A.5.5,0,0,1,41.83,33.53Z"/><polygon class="cls-1" points="41.33 31.32 44.3 33.04 41.33 34.75 41.33 31.32"/><polygon class="cls-1" points="3.42 2.97 1.71 0 0 2.97 3.42 2.97"/></g></g></svg>