<svg xmlns="http://www.w3.org/2000/svg" viewBox="0 0 84 78.16"><defs><style>.cls-1{fill:#5d5454;}.cls-2{fill:#fff;}.cls-3{fill:#857d7e;}.cls-4{fill:#f2d059;}.cls-5{fill:#faf0cc;}</style></defs><title>Asset 1</title><g id="Layer_2" data-name="Layer 2"><g id="Layer_1-2" data-name="Layer 1"><rect class="cls-1" x="34.47" width="15.06" height="13.56"/><circle class="cls-2" cx="42" cy="4.91" r="1.4"/><polygon class="cls-1" points="84 70.65 84 78.17 0 78.17 0 70.65 42 65.05 84 70.65"/><polygon class="cls-3" points="77.87 57.39 84 70.65 0 70.65 6.13 57.39 42 51.79 77.87 57.39"/><path class="cls-1" d="M46.17,66.15H37.83a1.4,1.4,0,1,1,0-2.8h8.34a1.4,1.4,0,0,1,0,2.8Z"/><path class="cls-4" d="M72.75,9.83H11.25a5.11,5.11,0,0,0-5.12,5.11V57.39H77.87V14.94A5.11,5.11,0,0,0,72.75,9.83Z"/><path class="cls-5" d="M57.1,52a16,16,0,0,0-30.2,0Z"/><path class="cls-2" d="M38.21,21.41h1.62v7.14H38.21Zm5.21-.06a13.57,13.57,0,0,0-2.18.15v7.05h1.6V26a4.22,4.22,0,0,0,.55,0,3.36,3.36,0,0,0,2.32-.75,2.32,2.32,0,0,0,.66-1.7,2.11,2.11,0,0,0-.77-1.66,3.41,3.41,0,0,0-2.18-.57Zm-.05,3.44a2.44,2.44,0,0,1-.53-.05V22.63a2.81,2.81,0,0,1,.67-.06c.8,0,1.25.4,1.25,1.05s-.52,1.17-1.39,1.17Zm-1.66-8.33A8.71,8.71,0,0,0,33,25.17c0,4.81,8.71,12.48,8.71,12.48S50.42,30,50.42,25.17a8.71,8.71,0,0,0-8.71-8.71Zm0,14a5.79,5.79,0,1,1,5.79-5.79,5.79,5.79,0,0,1-5.79,5.79Z"/></g></g></svg>