<svg xmlns="http://www.w3.org/2000/svg" viewBox="0 0 137.72 32.86"><defs><style>.cls-1{fill:#69ae8f;}.cls-2{fill:#525453;}</style></defs><title>Asset 1</title><g id="Layer_2" data-name="Layer 2"><g id="Layer_1-2" data-name="Layer 1"><path class="cls-1" d="M37.63,1a1.1,1.1,0,0,1-.1.45l-.09.15L28.59,16.94,19.75,32.27h0l0,.06-.05.09a1,1,0,0,1-.83.43,1,1,0,0,1-.89-.5v0l0-.06L9,16.94.13,1.52h0A1,1,0,0,1,0,1,1,1,0,0,1,.92,0H30.84L15.89,20.06c.35-1.21,2.36-5.21,2.23-6.26-.16-1.32-3.75-7-3.76-7H10.3v0a1,1,0,0,0-.85,1,.94.94,0,0,0,.12.47v0h0l6.31,11.75h5.68L33.35,0h3.36A1,1,0,0,1,37.63,1Z"/><path class="cls-2" d="M48.56,4.73V24.09c0,.41-.52.83-1.16.83a1,1,0,0,1-1.13-.83V4.73c0-.47.47-.8,1.13-.8S48.56,4.26,48.56,4.73Z"/><path class="cls-2" d="M56.13,6.91a1.43,1.43,0,0,1-2.85,0,1.43,1.43,0,0,1,2.85,0Zm-.25,5.72V24.09c0,.41-.53.83-1.16.83s-1.13-.42-1.13-.83V12.63c0-.47.49-.8,1.13-.8S55.88,12.16,55.88,12.63Z"/><path class="cls-2" d="M68.77,16.91a3,3,0,0,0-2.87-3.18A3,3,0,0,0,63,17v7.12c0,.41-.53.83-1.16.83s-1.13-.42-1.13-.83V12.63c0-.47.46-.8,1.13-.8s1.05.33,1.05.8v1.13a4.14,4.14,0,0,1,3.67-2.1,4.09,4.09,0,0,1,3.78,2.76,4.75,4.75,0,0,1,4.2-2.76c2.43,0,4.72,1.94,4.72,5.31v7.12c0,.41-.52.83-1.16.83s-1.13-.42-1.13-.83V17A3,3,0,0,0,74,13.73a3,3,0,0,0-3,3.15v7.24c0,.55-.58.8-1.16.8s-1.14-.25-1.14-.8Z"/><path class="cls-2" d="M94.18,16.74C94.18,19,93,19,91.72,19h-6v.82c0,2.05,1.63,3.35,3.92,3.35,2.07,0,2.65-1.08,3.34-1.08a1.08,1.08,0,0,1,.94,1.05c0,.72-1.68,2-4.36,2-3.59,0-6.13-2.15-6.13-5.36v-2.9a5.41,5.41,0,0,1,5.5-5.22A5.17,5.17,0,0,1,94.18,16.74Zm-3.4.75c1,0,1.22-.17,1.22-.88a3.14,3.14,0,0,0-3.15-3.12,3.09,3.09,0,0,0-3.18,3v1Z"/><path class="cls-2" d="M97.05,13.21a1.57,1.57,0,0,1-.11-.44c0-.55.85-1,1.46-1a.74.74,0,0,1,.75.45l3.5,9.38,3.46-9.27a.73.73,0,0,1,.74-.56c.53,0,1.49.45,1.49,1a1,1,0,0,1-.11.44L103.7,24.67a1.17,1.17,0,0,1-1,.5,1.11,1.11,0,0,1-1.07-.5Z"/><path class="cls-2" d="M114,12.63v1.13a4.24,4.24,0,0,1,3.7-2.1,5.16,5.16,0,0,1,5,5.31v2.81c0,2.79-2.26,5.36-4.86,5.36a4.26,4.26,0,0,1-3.7-2.15v7.42c0,.42-.52.83-1.16.83s-1.13-.41-1.13-.83V12.63c0-.47.47-.8,1.1-.8S114,12.16,114,12.63ZM120.41,17a3.33,3.33,0,0,0-3.2-3.24A3.12,3.12,0,0,0,114.14,17v3.56a3.41,3.41,0,0,0,3.12,2.54,3.36,3.36,0,0,0,3.15-3.29Z"/><path class="cls-2" d="M129.27,24.09c0,.41-.55.83-1.16.83a1,1,0,0,1-1.13-.83V12.63c0-.47.47-.8,1.13-.8s1,.33,1,.8v1.13a4.11,4.11,0,0,1,3.7-2.1A5.16,5.16,0,0,1,137.72,17v7.12c0,.55-.58.83-1.16.83s-1.13-.28-1.13-.83V17a3.32,3.32,0,0,0-3.15-3.24,3.09,3.09,0,0,0-3,3.24Z"/></g></g></svg>