<svg xmlns="http://www.w3.org/2000/svg" viewBox="0 0 42.15 37.2"><defs><style>.cls-1{fill:#fff;}</style></defs><title>Asset 2</title><g id="Layer_2" data-name="Layer 2"><g id="Layer_1-2" data-name="Layer 1"><path class="cls-1" d="M39.7,1.5a1.07,1.07,0,0,1,.95,1.07,1,1,0,0,1-.1.46l-.09.16L31.25,19.13l-9.2,16a0,0,0,0,1,0,0l0,.07-.05.09a1.06,1.06,0,0,1-1.79-.08v0l0-.06-9.21-16-9.26-16,0,0a1.06,1.06,0,0,1-.12-.5,1.07,1.07,0,0,1,1-1.07H33.28L17.94,22.08c.37-1.25,2.43-5.35,2.29-6.42-.17-1.36-3.85-7.2-3.85-7.2H12.2a1.05,1.05,0,0,0-.87,1,1,1,0,0,0,.12.48v.17L18,22.38H24L36.21,1.5H39.7M39.78,0H2.3a2.57,2.57,0,0,0-2,3.74l0,.07,0,.05,9.25,16,4.93,8.53-.37,1.25.61-.82,4,7,.05.08.1.16,0,0a2.57,2.57,0,0,0,2.1,1.1,2.54,2.54,0,0,0,2.1-1.1l0,0,0,0h0l.12-.13.07-.2,9.13-15.82L41.76,3.94l.09-.17,0,0,0,0a2.57,2.57,0,0,0,.26-1.13A2.55,2.55,0,0,0,39.86,0ZM20.71,20.88l11.21-15-8.83,15ZM13.07,10h2.48a42.89,42.89,0,0,1,3.18,5.85,16,16,0,0,1-1,2.81L13.07,10Z"/></g></g></svg>